M48
; DRILL file {KiCad 7.0.1} date Sat May 10 20:04:10 2025
; FORMAT={-:-/ absolute / metric / decimal}
; #@! TF.CreationDate,2025-05-10T20:04:10+09:00
; #@! TF.GenerationSoftware,Kicad,Pcbnew,7.0.1
; #@! TF.FileFunction,Plated,1,2,PTH
FMAT,2
METRIC
; #@! TA.AperFunction,Plated,PTH,ComponentDrill
T1C0.950
; #@! TA.AperFunction,Plated,PTH,ComponentDrill
T2C2.000
; #@! TA.AperFunction,Plated,PTH,ComponentDrill
T3C3.200
%
G90
G05
T1
X195.477Y-175.75
X197.977Y-175.75
X200.477Y-175.75
X202.977Y-175.75
X205.477Y-175.75
T3
X62.0Y-25.1
X62.0Y-185.1
X222.0Y-25.1
X222.0Y-185.1
T2
G00X63.55Y-45.0
M15
G01X65.55Y-45.0
M16
G05
G00X63.55Y-85.0
M15
G01X65.55Y-85.0
M16
G05
G00X63.55Y-125.0
M15
G01X65.55Y-125.0
M16
G05
G00X63.55Y-165.0
M15
G01X65.55Y-165.0
M16
G05
G00X219.05Y-45.0
M15
G01X221.05Y-45.0
M16
G05
G00X219.05Y-85.0
M15
G01X221.05Y-85.0
M16
G05
G00X219.05Y-125.0
M15
G01X221.05Y-125.0
M16
G05
G00X219.05Y-165.0
M15
G01X221.05Y-165.0
M16
G05
T0
M30
