%TF.GenerationSoftware,KiCad,Pcbnew,9.0.0*%
%TF.CreationDate,2025-07-07T23:48:59+09:00*%
%TF.ProjectId,Distribution Board,44697374-7269-4627-9574-696f6e20426f,rev?*%
%TF.SameCoordinates,Original*%
%TF.FileFunction,Copper,L2,Bot*%
%TF.FilePolarity,Positive*%
%FSLAX46Y46*%
G04 Gerber Fmt 4.6, Leading zero omitted, Abs format (unit mm)*
G04 Created by KiCad (PCBNEW 9.0.0) date 2025-07-07 23:48:59*
%MOMM*%
%LPD*%
G01*
G04 APERTURE LIST*
G04 Aperture macros list*
%AMRoundRect*
0 Rectangle with rounded corners*
0 $1 Rounding radius*
0 $2 $3 $4 $5 $6 $7 $8 $9 X,Y pos of 4 corners*
0 Add a 4 corners polygon primitive as box body*
4,1,4,$2,$3,$4,$5,$6,$7,$8,$9,$2,$3,0*
0 Add four circle primitives for the rounded corners*
1,1,$1+$1,$2,$3*
1,1,$1+$1,$4,$5*
1,1,$1+$1,$6,$7*
1,1,$1+$1,$8,$9*
0 Add four rect primitives between the rounded corners*
20,1,$1+$1,$2,$3,$4,$5,0*
20,1,$1+$1,$4,$5,$6,$7,0*
20,1,$1+$1,$6,$7,$8,$9,0*
20,1,$1+$1,$8,$9,$2,$3,0*%
G04 Aperture macros list end*
%TA.AperFunction,ComponentPad*%
%ADD10R,1.700000X1.700000*%
%TD*%
%TA.AperFunction,ComponentPad*%
%ADD11O,1.700000X1.700000*%
%TD*%
%TA.AperFunction,ComponentPad*%
%ADD12C,6.000000*%
%TD*%
%TA.AperFunction,WasherPad*%
%ADD13O,1.700000X1.700000*%
%TD*%
%TA.AperFunction,ComponentPad*%
%ADD14RoundRect,1.500000X-1.500000X-1.500000X1.500000X-1.500000X1.500000X1.500000X-1.500000X1.500000X0*%
%TD*%
%TA.AperFunction,ComponentPad*%
%ADD15RoundRect,1.500000X1.500000X-1.500000X1.500000X1.500000X-1.500000X1.500000X-1.500000X-1.500000X0*%
%TD*%
%TA.AperFunction,ComponentPad*%
%ADD16RoundRect,0.250001X1.099999X1.399999X-1.099999X1.399999X-1.099999X-1.399999X1.099999X-1.399999X0*%
%TD*%
%TA.AperFunction,ComponentPad*%
%ADD17O,2.700000X3.300000*%
%TD*%
%TA.AperFunction,ComponentPad*%
%ADD18C,1.320800*%
%TD*%
%TA.AperFunction,ComponentPad*%
%ADD19RoundRect,0.250001X-1.399999X1.099999X-1.399999X-1.099999X1.399999X-1.099999X1.399999X1.099999X0*%
%TD*%
%TA.AperFunction,ComponentPad*%
%ADD20O,3.300000X2.700000*%
%TD*%
%TA.AperFunction,WasherPad*%
%ADD21R,1.700000X1.700000*%
%TD*%
G04 APERTURE END LIST*
D10*
%TO.P,J13,1,Pin_1*%
%TO.N,HV-*%
X117295000Y-87315000D03*
D11*
%TO.P,J13,2,Pin_2*%
%TO.N,unconnected-(J13-Pin_2-Pad2)*%
X117295000Y-89855000D03*
%TO.P,J13,3,Pin_3*%
%TO.N,unconnected-(J13-Pin_3-Pad3)*%
X117295000Y-92395000D03*
%TO.P,J13,4,Pin_4*%
%TO.N,unconnected-(J13-Pin_4-Pad4)*%
X117295000Y-94935000D03*
%TO.P,J13,5,Pin_5*%
%TO.N,unconnected-(J13-Pin_5-Pad5)*%
X117295000Y-97475000D03*
%TO.P,J13,6,Pin_6*%
%TO.N,unconnected-(J13-Pin_6-Pad6)*%
X117295000Y-100015000D03*
%TO.P,J13,7,Pin_7*%
%TO.N,HV+*%
X117295000Y-102555000D03*
%TD*%
D10*
%TO.P,J16,1,Pin_1*%
%TO.N,Net-(J14-Pin_5)*%
X136995000Y-89870000D03*
D11*
%TO.P,J16,2,Pin_2*%
%TO.N,Net-(J14-Pin_4)*%
X136995000Y-92410000D03*
%TO.P,J16,3,Pin_3*%
%TO.N,Net-(J14-Pin_3)*%
X136995000Y-94950000D03*
%TO.P,J16,4,Pin_4*%
%TO.N,Net-(J14-Pin_2)*%
X136995000Y-97490000D03*
%TO.P,J16,5,Pin_5*%
%TO.N,Net-(J14-Pin_1)*%
X136995000Y-100030000D03*
%TD*%
D12*
%TO.P,J5,*%
%TO.N,HV+*%
X124915000Y-87870000D03*
%TD*%
D10*
%TO.P,J9,1,Pin_1*%
%TO.N,unconnected-(J9-Pin_1-Pad1)*%
X109319999Y-45560000D03*
D11*
%TO.P,J9,2,Pin_2*%
%TO.N,unconnected-(J9-Pin_2-Pad2)*%
X111859999Y-45560000D03*
%TO.P,J9,3,Pin_3*%
%TO.N,unconnected-(J9-Pin_3-Pad3)*%
X114399999Y-45560000D03*
%TO.P,J9,4,Pin_4*%
%TO.N,unconnected-(J9-Pin_4-Pad4)*%
X116939999Y-45560000D03*
%TO.P,J9,5,Pin_5*%
%TO.N,LV+*%
X119479999Y-45560000D03*
%TO.P,J9,6,Pin_6*%
X122019999Y-45560000D03*
%TO.P,J9,7,Pin_7*%
%TO.N,LV-*%
X124559999Y-45560000D03*
%TO.P,J9,8,Pin_8*%
X127099999Y-45560000D03*
%TD*%
D13*
%TO.P,J10,*%
%TO.N,*%
X119519999Y-68410000D03*
X116979999Y-68410000D03*
D10*
%TO.P,J10,1,Pin_1*%
%TO.N,LV-*%
X127139999Y-68410000D03*
D11*
%TO.P,J10,2,Pin_2*%
X124599999Y-68410000D03*
%TO.P,J10,3,Pin_3*%
X122059999Y-68410000D03*
%TO.P,J10,6,Pin_6*%
%TO.N,7.4V*%
X114439999Y-68410000D03*
%TO.P,J10,7,Pin_7*%
X111899999Y-68410000D03*
%TO.P,J10,8,Pin_8*%
X109359999Y-68410000D03*
%TD*%
D12*
%TO.P,J6,*%
%TO.N,HV+*%
X124915000Y-102050000D03*
%TD*%
D14*
%TO.P,J7,1,Pin_1*%
%TO.N,HV-*%
X95240000Y-62030000D03*
D12*
%TO.P,J7,2,Pin_2*%
%TO.N,HV+*%
X102440000Y-62030000D03*
%TD*%
D15*
%TO.P,J11,1,Pin_1*%
%TO.N,LV-*%
X155614999Y-66605001D03*
D12*
%TO.P,J11,2,Pin_2*%
%TO.N,LV+*%
X155614999Y-59405001D03*
%TD*%
D16*
%TO.P,J2,1,Pin_1*%
%TO.N,HV-*%
X157210000Y-84260000D03*
D17*
%TO.P,J2,2,Pin_2*%
%TO.N,HV+*%
X157210000Y-78760000D03*
%TD*%
D10*
%TO.P,J14,1,Pin_1*%
%TO.N,Net-(J14-Pin_1)*%
X148280000Y-99990000D03*
D11*
%TO.P,J14,2,Pin_2*%
%TO.N,Net-(J14-Pin_2)*%
X148280000Y-97450000D03*
%TO.P,J14,3,Pin_3*%
%TO.N,Net-(J14-Pin_3)*%
X148280000Y-94910000D03*
%TO.P,J14,4,Pin_4*%
%TO.N,Net-(J14-Pin_4)*%
X148280000Y-92370000D03*
%TO.P,J14,5,Pin_5*%
%TO.N,Net-(J14-Pin_5)*%
X148280000Y-89830000D03*
%TD*%
D18*
%TO.P,J4,1,Pin_1*%
%TO.N,5V*%
X138415001Y-73070000D03*
%TO.P,J4,2,Pin_2*%
%TO.N,LV-*%
X139915000Y-76770000D03*
%TO.P,J4,3,Pin_3*%
%TO.N,5V*%
X141415002Y-73070000D03*
%TO.P,J4,4,Pin_4*%
%TO.N,LV-*%
X142915002Y-76770000D03*
%TD*%
D16*
%TO.P,J3,1,Pin_1*%
%TO.N,HV-*%
X94510000Y-84110000D03*
D17*
%TO.P,J3,2,Pin_2*%
%TO.N,HV+*%
X94510000Y-78610000D03*
%TD*%
D19*
%TO.P,J12,1,Pin_1*%
%TO.N,HV+*%
X124750000Y-109800000D03*
D20*
%TO.P,J12,2,Pin_2*%
%TO.N,HV-*%
X119250000Y-109800000D03*
%TD*%
D21*
%TO.P,J8,*%
%TO.N,*%
X147735000Y-45480000D03*
D13*
X145195000Y-45480000D03*
D11*
%TO.P,J8,3,Pin_3*%
%TO.N,LV+*%
X142655000Y-45480000D03*
%TO.P,J8,4,Pin_4*%
%TO.N,LV-*%
X140115000Y-45480000D03*
%TO.P,J8,5,Pin_5*%
X137575000Y-45480000D03*
%TO.P,J8,6,Pin_6*%
%TO.N,5V*%
X135035000Y-45480000D03*
%TD*%
D18*
%TO.P,J1,1,Pin_1*%
%TO.N,7.4V*%
X124630000Y-73605000D03*
%TO.P,J1,2,Pin_2*%
%TO.N,LV-*%
X123130000Y-75605001D03*
%TO.P,J1,3,Pin_3*%
%TO.N,7.4V*%
X121630001Y-73605000D03*
%TO.P,J1,4,Pin_4*%
%TO.N,LV-*%
X120130001Y-75605001D03*
%TO.P,J1,5,Pin_5*%
%TO.N,7.4V*%
X118629999Y-73605000D03*
%TO.P,J1,6,Pin_6*%
%TO.N,LV-*%
X117130000Y-75605001D03*
%TO.P,J1,7,Pin_7*%
%TO.N,7.4V*%
X115630000Y-73605000D03*
%TO.P,J1,8,Pin_8*%
%TO.N,LV-*%
X114130001Y-75605001D03*
%TD*%
%TA.AperFunction,Conductor*%
%TO.N,LV-*%
G36*
X131940688Y-44399465D02*
G01*
X132007625Y-44419489D01*
X132035355Y-44444125D01*
X132839503Y-45410027D01*
X132867268Y-45474143D01*
X132868205Y-45489947D01*
X132738417Y-73144757D01*
X132738418Y-73144757D01*
X132738418Y-73144758D01*
X136389805Y-75741733D01*
X136616754Y-75737527D01*
X136643215Y-75739886D01*
X136766048Y-75764319D01*
X136781538Y-75767401D01*
X136781539Y-75767401D01*
X136948465Y-75767401D01*
X136948466Y-75767400D01*
X137112178Y-75734836D01*
X137112187Y-75734832D01*
X137118008Y-75733067D01*
X137118478Y-75734616D01*
X137152046Y-75727607D01*
X141340000Y-75650000D01*
X142058693Y-74836534D01*
X143617601Y-74836534D01*
X143617601Y-75003467D01*
X143650164Y-75167170D01*
X143650166Y-75167178D01*
X143714043Y-75321392D01*
X143714048Y-75321401D01*
X143806782Y-75460186D01*
X143806785Y-75460190D01*
X143924811Y-75578216D01*
X143924815Y-75578219D01*
X144063600Y-75670953D01*
X144063606Y-75670956D01*
X144063607Y-75670957D01*
X144217824Y-75734836D01*
X144381534Y-75767400D01*
X144381537Y-75767401D01*
X144381539Y-75767401D01*
X144548465Y-75767401D01*
X144548466Y-75767400D01*
X144712178Y-75734836D01*
X144866395Y-75670957D01*
X145005187Y-75578219D01*
X145123219Y-75460187D01*
X145215957Y-75321395D01*
X145279836Y-75167178D01*
X145312401Y-75003463D01*
X145312401Y-74836539D01*
X145312401Y-74836536D01*
X145312400Y-74836534D01*
X145281432Y-74680848D01*
X145279836Y-74672824D01*
X145215957Y-74518607D01*
X145215956Y-74518606D01*
X145215953Y-74518600D01*
X145123219Y-74379815D01*
X145123216Y-74379811D01*
X145005190Y-74261785D01*
X145005186Y-74261782D01*
X144866401Y-74169048D01*
X144866392Y-74169043D01*
X144712178Y-74105166D01*
X144712170Y-74105164D01*
X144548466Y-74072601D01*
X144548463Y-74072601D01*
X144381539Y-74072601D01*
X144381536Y-74072601D01*
X144217831Y-74105164D01*
X144217823Y-74105166D01*
X144063609Y-74169043D01*
X144063600Y-74169048D01*
X143924815Y-74261782D01*
X143924811Y-74261785D01*
X143806785Y-74379811D01*
X143806782Y-74379815D01*
X143714048Y-74518600D01*
X143714043Y-74518609D01*
X143650166Y-74672823D01*
X143650164Y-74672831D01*
X143617601Y-74836534D01*
X142058693Y-74836534D01*
X142910469Y-73872436D01*
X142898534Y-72873771D01*
X142899193Y-72859463D01*
X142906772Y-72786840D01*
X142868714Y-70378319D01*
X142644517Y-51616973D01*
X142600782Y-51566877D01*
X142571523Y-51503432D01*
X142570210Y-51487308D01*
X142569615Y-51449594D01*
X142566778Y-51403512D01*
X142564358Y-51381017D01*
X142557330Y-51335396D01*
X142509170Y-51199815D01*
X142481585Y-51147358D01*
X142478994Y-51141206D01*
X142392242Y-51021450D01*
X139695244Y-48238492D01*
X139690879Y-48233747D01*
X138683418Y-47079758D01*
X136987113Y-47079758D01*
X136955848Y-47070577D01*
X136924245Y-47062639D01*
X136921593Y-47060519D01*
X136920074Y-47060073D01*
X136896684Y-47040602D01*
X136773542Y-46909341D01*
X136742033Y-46846984D01*
X136739989Y-46826102D01*
X136713681Y-44769668D01*
X136712597Y-44742426D01*
X136711705Y-44729079D01*
X136709151Y-44701909D01*
X136702538Y-44677398D01*
X136702669Y-44671414D01*
X136700037Y-44666036D01*
X136703431Y-44636886D01*
X136704078Y-44607547D01*
X136707603Y-44601053D01*
X136708118Y-44596635D01*
X136726395Y-44566442D01*
X136756991Y-44529153D01*
X136814733Y-44489813D01*
X136850834Y-44483824D01*
X140127200Y-44430533D01*
X140188773Y-44445756D01*
X140259993Y-44484758D01*
X140936963Y-44855480D01*
X140986308Y-44904945D01*
X141001381Y-44961856D01*
X141018596Y-45857002D01*
X141030000Y-46450000D01*
X141530000Y-46890000D01*
X148632565Y-46939508D01*
X148698605Y-46959103D01*
X149281364Y-47332553D01*
X149327188Y-47385297D01*
X149338438Y-47434637D01*
X149416634Y-51616973D01*
X149598418Y-61339758D01*
X151202825Y-62840654D01*
X157807316Y-62999523D01*
X157873863Y-63020814D01*
X157890140Y-63033970D01*
X158540756Y-63657619D01*
X158575531Y-63718220D01*
X158578944Y-63745883D01*
X158639569Y-69747401D01*
X158620562Y-69814636D01*
X158614158Y-69823869D01*
X157646468Y-71092202D01*
X157590154Y-71133560D01*
X157549888Y-71140971D01*
X151420000Y-71240000D01*
X151419999Y-71240000D01*
X150454154Y-71967160D01*
X150430223Y-77319967D01*
X150410239Y-77386918D01*
X150395114Y-77405868D01*
X149756560Y-78062409D01*
X149695708Y-78096742D01*
X149667562Y-78099954D01*
X112178639Y-78067173D01*
X112111616Y-78047430D01*
X112099761Y-78038762D01*
X109945687Y-76258817D01*
X109906546Y-76200939D01*
X109900764Y-76158483D01*
X109916723Y-75741732D01*
X110002044Y-73513629D01*
X114469100Y-73513629D01*
X114469100Y-73696370D01*
X114497684Y-73876841D01*
X114497685Y-73876845D01*
X114554152Y-74050631D01*
X114637109Y-74213444D01*
X114744515Y-74361276D01*
X114873724Y-74490485D01*
X115021556Y-74597891D01*
X115184369Y-74680848D01*
X115358155Y-74737315D01*
X115425835Y-74748034D01*
X115538630Y-74765900D01*
X115538635Y-74765900D01*
X115721370Y-74765900D01*
X115821631Y-74750019D01*
X115901845Y-74737315D01*
X116075631Y-74680848D01*
X116238444Y-74597891D01*
X116386276Y-74490485D01*
X116515485Y-74361276D01*
X116622891Y-74213444D01*
X116705848Y-74050631D01*
X116762315Y-73876845D01*
X116775019Y-73796631D01*
X116790900Y-73696370D01*
X116790900Y-73513629D01*
X117469099Y-73513629D01*
X117469099Y-73696370D01*
X117497683Y-73876841D01*
X117497684Y-73876845D01*
X117554151Y-74050631D01*
X117637108Y-74213444D01*
X117744514Y-74361276D01*
X117873723Y-74490485D01*
X118021555Y-74597891D01*
X118184368Y-74680848D01*
X118358154Y-74737315D01*
X118425834Y-74748034D01*
X118538629Y-74765900D01*
X118538634Y-74765900D01*
X118721369Y-74765900D01*
X118821630Y-74750019D01*
X118901844Y-74737315D01*
X119075630Y-74680848D01*
X119238443Y-74597891D01*
X119386275Y-74490485D01*
X119515484Y-74361276D01*
X119622890Y-74213444D01*
X119705847Y-74050631D01*
X119762314Y-73876845D01*
X119775018Y-73796631D01*
X119790899Y-73696370D01*
X119790899Y-73513629D01*
X120469101Y-73513629D01*
X120469101Y-73696370D01*
X120497685Y-73876841D01*
X120497686Y-73876845D01*
X120554153Y-74050631D01*
X120637110Y-74213444D01*
X120744516Y-74361276D01*
X120873725Y-74490485D01*
X121021557Y-74597891D01*
X121184370Y-74680848D01*
X121358156Y-74737315D01*
X121425836Y-74748034D01*
X121538631Y-74765900D01*
X121538636Y-74765900D01*
X121721371Y-74765900D01*
X121821632Y-74750019D01*
X121901846Y-74737315D01*
X122075632Y-74680848D01*
X122238445Y-74597891D01*
X122386277Y-74490485D01*
X122515486Y-74361276D01*
X122622892Y-74213444D01*
X122705849Y-74050631D01*
X122762316Y-73876845D01*
X122775020Y-73796631D01*
X122790901Y-73696370D01*
X122790901Y-73513629D01*
X123469100Y-73513629D01*
X123469100Y-73696370D01*
X123497684Y-73876841D01*
X123497685Y-73876845D01*
X123554152Y-74050631D01*
X123637109Y-74213444D01*
X123744515Y-74361276D01*
X123873724Y-74490485D01*
X124021556Y-74597891D01*
X124184369Y-74680848D01*
X124358155Y-74737315D01*
X124425835Y-74748034D01*
X124538630Y-74765900D01*
X124538635Y-74765900D01*
X124721370Y-74765900D01*
X124821631Y-74750019D01*
X124901845Y-74737315D01*
X125075631Y-74680848D01*
X125238444Y-74597891D01*
X125386276Y-74490485D01*
X125515485Y-74361276D01*
X125622891Y-74213444D01*
X125705848Y-74050631D01*
X125762315Y-73876845D01*
X125775019Y-73796631D01*
X125790900Y-73696370D01*
X125790900Y-73513629D01*
X125762315Y-73333158D01*
X125762315Y-73333155D01*
X125705848Y-73159369D01*
X125622891Y-72996556D01*
X125515485Y-72848724D01*
X125386276Y-72719515D01*
X125238444Y-72612109D01*
X125075631Y-72529152D01*
X124901845Y-72472685D01*
X124901843Y-72472684D01*
X124901841Y-72472684D01*
X124721370Y-72444100D01*
X124721365Y-72444100D01*
X124538635Y-72444100D01*
X124538630Y-72444100D01*
X124358158Y-72472684D01*
X124184366Y-72529153D01*
X124021555Y-72612109D01*
X123873721Y-72719517D01*
X123744517Y-72848721D01*
X123637109Y-72996555D01*
X123554153Y-73159366D01*
X123497684Y-73333158D01*
X123469100Y-73513629D01*
X122790901Y-73513629D01*
X122762316Y-73333158D01*
X122762316Y-73333155D01*
X122705849Y-73159369D01*
X122622892Y-72996556D01*
X122515486Y-72848724D01*
X122386277Y-72719515D01*
X122238445Y-72612109D01*
X122075632Y-72529152D01*
X121901846Y-72472685D01*
X121901844Y-72472684D01*
X121901842Y-72472684D01*
X121721371Y-72444100D01*
X121721366Y-72444100D01*
X121538636Y-72444100D01*
X121538631Y-72444100D01*
X121358159Y-72472684D01*
X121184367Y-72529153D01*
X121021556Y-72612109D01*
X120873722Y-72719517D01*
X120744518Y-72848721D01*
X120637110Y-72996555D01*
X120554154Y-73159366D01*
X120497685Y-73333158D01*
X120469101Y-73513629D01*
X119790899Y-73513629D01*
X119762314Y-73333158D01*
X119762314Y-73333155D01*
X119705847Y-73159369D01*
X119622890Y-72996556D01*
X119515484Y-72848724D01*
X119386275Y-72719515D01*
X119238443Y-72612109D01*
X119075630Y-72529152D01*
X118901844Y-72472685D01*
X118901842Y-72472684D01*
X118901840Y-72472684D01*
X118721369Y-72444100D01*
X118721364Y-72444100D01*
X118538634Y-72444100D01*
X118538629Y-72444100D01*
X118358157Y-72472684D01*
X118184365Y-72529153D01*
X118021554Y-72612109D01*
X117873720Y-72719517D01*
X117744516Y-72848721D01*
X117637108Y-72996555D01*
X117554152Y-73159366D01*
X117497683Y-73333158D01*
X117469099Y-73513629D01*
X116790900Y-73513629D01*
X116762315Y-73333158D01*
X116762315Y-73333155D01*
X116705848Y-73159369D01*
X116622891Y-72996556D01*
X116515485Y-72848724D01*
X116386276Y-72719515D01*
X116238444Y-72612109D01*
X116075631Y-72529152D01*
X115901845Y-72472685D01*
X115901843Y-72472684D01*
X115901841Y-72472684D01*
X115721370Y-72444100D01*
X115721365Y-72444100D01*
X115538635Y-72444100D01*
X115538630Y-72444100D01*
X115358158Y-72472684D01*
X115184366Y-72529153D01*
X115021555Y-72612109D01*
X114873721Y-72719517D01*
X114744517Y-72848721D01*
X114637109Y-72996555D01*
X114554153Y-73159366D01*
X114497684Y-73333158D01*
X114469100Y-73513629D01*
X110002044Y-73513629D01*
X110070833Y-71717244D01*
X110093068Y-71651010D01*
X110131515Y-71615323D01*
X111689181Y-70692087D01*
X111752405Y-70674758D01*
X119438418Y-70674758D01*
X120153418Y-70264758D01*
X120868417Y-69854759D01*
X120868417Y-69854758D01*
X120868418Y-69854758D01*
X120907668Y-65988581D01*
X120928032Y-65921747D01*
X120973676Y-65880235D01*
X123063418Y-64774758D01*
X123338778Y-45874589D01*
X123340292Y-45857002D01*
X123349916Y-45796243D01*
X123370499Y-45666287D01*
X123370499Y-45453713D01*
X123348733Y-45316289D01*
X123347220Y-45295109D01*
X123352475Y-44934474D01*
X123373134Y-44867730D01*
X123407050Y-44833529D01*
X124076681Y-44381195D01*
X124143253Y-44359982D01*
X124146706Y-44359952D01*
X131940688Y-44399465D01*
G37*
%TD.AperFunction*%
%TD*%
%TA.AperFunction,Conductor*%
%TO.N,HV-*%
G36*
X97699806Y-58179698D02*
G01*
X97766724Y-58199785D01*
X97785851Y-58215134D01*
X98212036Y-58632795D01*
X98246139Y-58693776D01*
X98249232Y-58723148D01*
X98138811Y-66368818D01*
X98138812Y-66368818D01*
X98138812Y-66368819D01*
X98790000Y-66830000D01*
X105543408Y-66830000D01*
X105610447Y-66849685D01*
X105625063Y-66860681D01*
X108194996Y-69109373D01*
X108213659Y-69129807D01*
X108329888Y-69289784D01*
X108329892Y-69289788D01*
X108329895Y-69289792D01*
X108407586Y-69367483D01*
X108471372Y-69431269D01*
X108504856Y-69492592D01*
X108507672Y-69521070D01*
X108374999Y-77279998D01*
X108374999Y-77279999D01*
X108375000Y-77279999D01*
X108375000Y-77280000D01*
X113726004Y-81328560D01*
X159329949Y-81379932D01*
X159396965Y-81399692D01*
X159427181Y-81427157D01*
X159772965Y-81865712D01*
X159799015Y-81930542D01*
X159799586Y-81943661D01*
X159760471Y-86070289D01*
X159740152Y-86137139D01*
X159725322Y-86155615D01*
X159496478Y-86390644D01*
X159426448Y-86462567D01*
X159365577Y-86496866D01*
X159337754Y-86500062D01*
X134286063Y-86529945D01*
X134219000Y-86510340D01*
X134205076Y-86499972D01*
X131030000Y-83770000D01*
X131029998Y-83769999D01*
X120191929Y-83696169D01*
X120191927Y-83696170D01*
X118673720Y-88077124D01*
X118633169Y-88134022D01*
X118568294Y-88159964D01*
X118557291Y-88160519D01*
X115269998Y-88180000D01*
X114970000Y-88474999D01*
X114970000Y-88475000D01*
X114965000Y-104385000D01*
X115850000Y-105060000D01*
X120106136Y-105114312D01*
X120172917Y-105134850D01*
X120196258Y-105154839D01*
X120938368Y-105970244D01*
X120968933Y-106033074D01*
X120970650Y-106051989D01*
X121049039Y-111710666D01*
X121030285Y-111777972D01*
X120991433Y-111817119D01*
X119660328Y-112660777D01*
X119594093Y-112680042D01*
X107048101Y-112694931D01*
X106981038Y-112675326D01*
X106952764Y-112650397D01*
X106083522Y-111609165D01*
X106055670Y-111545087D01*
X106054715Y-111530492D01*
X106020000Y-106105001D01*
X106020000Y-106105000D01*
X104824737Y-104850856D01*
X101151709Y-104890672D01*
X101084460Y-104871715D01*
X101067760Y-104859158D01*
X99435875Y-103401510D01*
X99398990Y-103342170D01*
X99394485Y-103310196D01*
X99240000Y-86870000D01*
X98878127Y-86308265D01*
X98878126Y-86308264D01*
X92546542Y-86409257D01*
X92479197Y-86390644D01*
X92464467Y-86379933D01*
X92154190Y-86117391D01*
X92115728Y-86059060D01*
X92110289Y-86022111D01*
X92129679Y-82144022D01*
X92149698Y-82077085D01*
X92182382Y-82043190D01*
X92467918Y-81842543D01*
X92534087Y-81820106D01*
X92539211Y-81820000D01*
X96139999Y-81820000D01*
X96140000Y-81820000D01*
X97520000Y-81220000D01*
X97760000Y-73990000D01*
X95765000Y-73605000D01*
X93770001Y-73220000D01*
X93770006Y-73220000D01*
X93480740Y-73215746D01*
X93413998Y-73195077D01*
X93394340Y-73178894D01*
X93024431Y-72804361D01*
X92266118Y-72036569D01*
X92233015Y-71975041D01*
X92230346Y-71948606D01*
X92319697Y-58704820D01*
X92339833Y-58637918D01*
X92348883Y-58625743D01*
X92712552Y-58194414D01*
X92770813Y-58155851D01*
X92808091Y-58150348D01*
X97699806Y-58179698D01*
G37*
%TD.AperFunction*%
%TD*%
%TA.AperFunction,Conductor*%
%TO.N,5V*%
G36*
X135779513Y-44226802D02*
G01*
X135811480Y-44254185D01*
X136179715Y-44698606D01*
X136207330Y-44762787D01*
X136208222Y-44776134D01*
X136237662Y-47077335D01*
X136967662Y-48067335D01*
X138863559Y-48155062D01*
X138929615Y-48177824D01*
X138946871Y-48192634D01*
X142029239Y-51373245D01*
X142061758Y-51435086D01*
X142064178Y-51457581D01*
X142401335Y-72794827D01*
X142388280Y-72852199D01*
X141764707Y-74100519D01*
X141717139Y-74151695D01*
X141652338Y-74169098D01*
X137164015Y-74117009D01*
X137118003Y-74107579D01*
X137112178Y-74105166D01*
X137112174Y-74105165D01*
X137112170Y-74105164D01*
X136948466Y-74072601D01*
X136948463Y-74072601D01*
X136781539Y-74072601D01*
X136781534Y-74072601D01*
X136623335Y-74104069D01*
X136553744Y-74097842D01*
X136521580Y-74079198D01*
X136513351Y-74072601D01*
X136286392Y-73890642D01*
X135446436Y-73217228D01*
X135406444Y-73159936D01*
X135400000Y-73120482D01*
X135400000Y-72370000D01*
X134140863Y-71625557D01*
X134093173Y-71574493D01*
X134079978Y-71520141D01*
X133793580Y-44632832D01*
X133812549Y-44565588D01*
X133832395Y-44541398D01*
X134093547Y-44294577D01*
X134155789Y-44262836D01*
X134174570Y-44260766D01*
X135711853Y-44209368D01*
X135779513Y-44226802D01*
G37*
%TD.AperFunction*%
%TD*%
M02*
