%TF.GenerationSoftware,KiCad,Pcbnew,9.0.0*%
%TF.CreationDate,2025-07-07T23:48:59+09:00*%
%TF.ProjectId,Distribution Board,44697374-7269-4627-9574-696f6e20426f,rev?*%
%TF.SameCoordinates,Original*%
%TF.FileFunction,Soldermask,Top*%
%TF.FilePolarity,Negative*%
%FSLAX46Y46*%
G04 Gerber Fmt 4.6, Leading zero omitted, Abs format (unit mm)*
G04 Created by KiCad (PCBNEW 9.0.0) date 2025-07-07 23:48:59*
%MOMM*%
%LPD*%
G01*
G04 APERTURE LIST*
G04 Aperture macros list*
%AMRoundRect*
0 Rectangle with rounded corners*
0 $1 Rounding radius*
0 $2 $3 $4 $5 $6 $7 $8 $9 X,Y pos of 4 corners*
0 Add a 4 corners polygon primitive as box body*
4,1,4,$2,$3,$4,$5,$6,$7,$8,$9,$2,$3,0*
0 Add four circle primitives for the rounded corners*
1,1,$1+$1,$2,$3*
1,1,$1+$1,$4,$5*
1,1,$1+$1,$6,$7*
1,1,$1+$1,$8,$9*
0 Add four rect primitives between the rounded corners*
20,1,$1+$1,$2,$3,$4,$5,0*
20,1,$1+$1,$4,$5,$6,$7,0*
20,1,$1+$1,$6,$7,$8,$9,0*
20,1,$1+$1,$8,$9,$2,$3,0*%
G04 Aperture macros list end*
%ADD10C,3.200000*%
%ADD11R,1.700000X1.700000*%
%ADD12O,1.700000X1.700000*%
%ADD13C,6.000000*%
%ADD14RoundRect,1.500000X-1.500000X-1.500000X1.500000X-1.500000X1.500000X1.500000X-1.500000X1.500000X0*%
%ADD15RoundRect,1.500000X1.500000X-1.500000X1.500000X1.500000X-1.500000X1.500000X-1.500000X-1.500000X0*%
%ADD16RoundRect,0.250001X1.099999X1.399999X-1.099999X1.399999X-1.099999X-1.399999X1.099999X-1.399999X0*%
%ADD17O,2.700000X3.300000*%
%ADD18C,1.193800*%
%ADD19C,1.320800*%
%ADD20RoundRect,0.250001X-1.399999X1.099999X-1.399999X-1.099999X1.399999X-1.099999X1.399999X1.099999X0*%
%ADD21O,3.300000X2.700000*%
G04 APERTURE END LIST*
D10*
%TO.C,REF\u002A\u002A*%
X95900000Y-48150000D03*
%TD*%
D11*
%TO.C,J13*%
X117295000Y-87315000D03*
D12*
X117295000Y-89855000D03*
X117295000Y-92395000D03*
X117295000Y-94935000D03*
X117295000Y-97475000D03*
X117295000Y-100015000D03*
X117295000Y-102555000D03*
%TD*%
D11*
%TO.C,J16*%
X136995000Y-89870000D03*
D12*
X136995000Y-92410000D03*
X136995000Y-94950000D03*
X136995000Y-97490000D03*
X136995000Y-100030000D03*
%TD*%
D13*
%TO.C,J5*%
X124915000Y-87870000D03*
%TD*%
D11*
%TO.C,J9*%
X109319999Y-45560000D03*
D12*
X111859999Y-45560000D03*
X114399999Y-45560000D03*
X116939999Y-45560000D03*
X119479999Y-45560000D03*
X122019999Y-45560000D03*
X124559999Y-45560000D03*
X127099999Y-45560000D03*
%TD*%
D10*
%TO.C,REF\u002A\u002A*%
X101235000Y-108565000D03*
%TD*%
D12*
%TO.C,J10*%
X119519999Y-68410000D03*
X116979999Y-68410000D03*
D11*
X127139999Y-68410000D03*
D12*
X124599999Y-68410000D03*
X122059999Y-68410000D03*
X114439999Y-68410000D03*
X111899999Y-68410000D03*
X109359999Y-68410000D03*
%TD*%
D13*
%TO.C,J6*%
X124915000Y-102050000D03*
%TD*%
D10*
%TO.C,REF\u002A\u002A*%
X150310000Y-108540000D03*
%TD*%
D14*
%TO.C,J7*%
X95240000Y-62030000D03*
D13*
X102440000Y-62030000D03*
%TD*%
D15*
%TO.C,J11*%
X155614999Y-66605001D03*
D13*
X155614999Y-59405001D03*
%TD*%
D16*
%TO.C,J2*%
X157210000Y-84260000D03*
D17*
X157210000Y-78760000D03*
%TD*%
D11*
%TO.C,J14*%
X148280000Y-99990000D03*
D12*
X148280000Y-97450000D03*
X148280000Y-94910000D03*
X148280000Y-92370000D03*
X148280000Y-89830000D03*
%TD*%
D18*
%TO.C,J4*%
X136865001Y-74920001D03*
X144465001Y-74920001D03*
D19*
X138415001Y-73070000D03*
X139915000Y-76770000D03*
X141415002Y-73070000D03*
X142915002Y-76770000D03*
%TD*%
D10*
%TO.C,REF\u002A\u002A*%
X155750000Y-48050000D03*
%TD*%
D16*
%TO.C,J3*%
X94510000Y-84110000D03*
D17*
X94510000Y-78610000D03*
%TD*%
D20*
%TO.C,J12*%
X124750000Y-109800000D03*
D21*
X119250000Y-109800000D03*
%TD*%
D11*
%TO.C,J8*%
X147735000Y-45480000D03*
D12*
X145195000Y-45480000D03*
X142655000Y-45480000D03*
X140115000Y-45480000D03*
X137575000Y-45480000D03*
X135035000Y-45480000D03*
%TD*%
D19*
%TO.C,J1*%
X124630000Y-73605000D03*
X123130000Y-75605001D03*
X121630001Y-73605000D03*
X120130001Y-75605001D03*
X118629999Y-73605000D03*
X117130000Y-75605001D03*
X115630000Y-73605000D03*
X114130001Y-75605001D03*
%TD*%
M02*
