%TF.GenerationSoftware,KiCad,Pcbnew,9.0.0*%
%TF.CreationDate,2025-07-07T23:48:59+09:00*%
%TF.ProjectId,Distribution Board,44697374-7269-4627-9574-696f6e20426f,rev?*%
%TF.SameCoordinates,Original*%
%TF.FileFunction,Legend,Top*%
%TF.FilePolarity,Positive*%
%FSLAX46Y46*%
G04 Gerber Fmt 4.6, Leading zero omitted, Abs format (unit mm)*
G04 Created by KiCad (PCBNEW 9.0.0) date 2025-07-07 23:48:59*
%MOMM*%
%LPD*%
G01*
G04 APERTURE LIST*
%ADD10C,0.100000*%
%ADD11C,0.200000*%
%ADD12C,0.150000*%
%ADD13C,0.120000*%
%ADD14C,0.000000*%
%ADD15C,0.152400*%
%ADD16C,0.508000*%
G04 APERTURE END LIST*
D10*
X111580000Y-84785000D02*
X138250000Y-84785000D01*
X138250000Y-105105000D01*
X111580000Y-105105000D01*
X111580000Y-84785000D01*
D11*
X108189999Y-44200000D02*
X128529999Y-44200000D01*
X128529999Y-69610000D01*
X108189999Y-69610000D01*
X108189999Y-44200000D01*
X133700000Y-44160000D02*
X149000000Y-44160000D01*
X149000000Y-69560000D01*
X133700000Y-69560000D01*
X133700000Y-44160000D01*
D12*
X150393866Y-65305951D02*
X150393866Y-64544047D01*
X104826667Y-86069819D02*
X105160000Y-87069819D01*
X105160000Y-87069819D02*
X105493333Y-86069819D01*
X105779048Y-87022200D02*
X105921905Y-87069819D01*
X105921905Y-87069819D02*
X106160000Y-87069819D01*
X106160000Y-87069819D02*
X106255238Y-87022200D01*
X106255238Y-87022200D02*
X106302857Y-86974580D01*
X106302857Y-86974580D02*
X106350476Y-86879342D01*
X106350476Y-86879342D02*
X106350476Y-86784104D01*
X106350476Y-86784104D02*
X106302857Y-86688866D01*
X106302857Y-86688866D02*
X106255238Y-86641247D01*
X106255238Y-86641247D02*
X106160000Y-86593628D01*
X106160000Y-86593628D02*
X105969524Y-86546009D01*
X105969524Y-86546009D02*
X105874286Y-86498390D01*
X105874286Y-86498390D02*
X105826667Y-86450771D01*
X105826667Y-86450771D02*
X105779048Y-86355533D01*
X105779048Y-86355533D02*
X105779048Y-86260295D01*
X105779048Y-86260295D02*
X105826667Y-86165057D01*
X105826667Y-86165057D02*
X105874286Y-86117438D01*
X105874286Y-86117438D02*
X105969524Y-86069819D01*
X105969524Y-86069819D02*
X106207619Y-86069819D01*
X106207619Y-86069819D02*
X106350476Y-86117438D01*
X106779048Y-86546009D02*
X107112381Y-86546009D01*
X107255238Y-87069819D02*
X106779048Y-87069819D01*
X106779048Y-87069819D02*
X106779048Y-86069819D01*
X106779048Y-86069819D02*
X107255238Y-86069819D01*
X107683810Y-87069819D02*
X107683810Y-86069819D01*
X107683810Y-86069819D02*
X108255238Y-87069819D01*
X108255238Y-87069819D02*
X108255238Y-86069819D01*
X108683810Y-87022200D02*
X108826667Y-87069819D01*
X108826667Y-87069819D02*
X109064762Y-87069819D01*
X109064762Y-87069819D02*
X109160000Y-87022200D01*
X109160000Y-87022200D02*
X109207619Y-86974580D01*
X109207619Y-86974580D02*
X109255238Y-86879342D01*
X109255238Y-86879342D02*
X109255238Y-86784104D01*
X109255238Y-86784104D02*
X109207619Y-86688866D01*
X109207619Y-86688866D02*
X109160000Y-86641247D01*
X109160000Y-86641247D02*
X109064762Y-86593628D01*
X109064762Y-86593628D02*
X108874286Y-86546009D01*
X108874286Y-86546009D02*
X108779048Y-86498390D01*
X108779048Y-86498390D02*
X108731429Y-86450771D01*
X108731429Y-86450771D02*
X108683810Y-86355533D01*
X108683810Y-86355533D02*
X108683810Y-86260295D01*
X108683810Y-86260295D02*
X108731429Y-86165057D01*
X108731429Y-86165057D02*
X108779048Y-86117438D01*
X108779048Y-86117438D02*
X108874286Y-86069819D01*
X108874286Y-86069819D02*
X109112381Y-86069819D01*
X109112381Y-86069819D02*
X109255238Y-86117438D01*
X109683810Y-86546009D02*
X110017143Y-86546009D01*
X110160000Y-87069819D02*
X109683810Y-87069819D01*
X109683810Y-87069819D02*
X109683810Y-86069819D01*
X109683810Y-86069819D02*
X110160000Y-86069819D01*
X110588572Y-86688866D02*
X111350477Y-86688866D01*
X150303866Y-59040951D02*
X150303866Y-58279047D01*
X150684819Y-58659999D02*
X149922914Y-58659999D01*
X101794048Y-56148866D02*
X102555953Y-56148866D01*
X102175000Y-56529819D02*
X102175000Y-55767914D01*
X150607143Y-97559104D02*
X151083333Y-97559104D01*
X150511905Y-97844819D02*
X150845238Y-96844819D01*
X150845238Y-96844819D02*
X151178571Y-97844819D01*
X151988095Y-97844819D02*
X151511905Y-97844819D01*
X151511905Y-97844819D02*
X151511905Y-96844819D01*
X151108095Y-99732438D02*
X151012857Y-99684819D01*
X151012857Y-99684819D02*
X150870000Y-99684819D01*
X150870000Y-99684819D02*
X150727143Y-99732438D01*
X150727143Y-99732438D02*
X150631905Y-99827676D01*
X150631905Y-99827676D02*
X150584286Y-99922914D01*
X150584286Y-99922914D02*
X150536667Y-100113390D01*
X150536667Y-100113390D02*
X150536667Y-100256247D01*
X150536667Y-100256247D02*
X150584286Y-100446723D01*
X150584286Y-100446723D02*
X150631905Y-100541961D01*
X150631905Y-100541961D02*
X150727143Y-100637200D01*
X150727143Y-100637200D02*
X150870000Y-100684819D01*
X150870000Y-100684819D02*
X150965238Y-100684819D01*
X150965238Y-100684819D02*
X151108095Y-100637200D01*
X151108095Y-100637200D02*
X151155714Y-100589580D01*
X151155714Y-100589580D02*
X151155714Y-100256247D01*
X151155714Y-100256247D02*
X150965238Y-100256247D01*
X151584286Y-100684819D02*
X151584286Y-99684819D01*
X151584286Y-99684819D02*
X152155714Y-100684819D01*
X152155714Y-100684819D02*
X152155714Y-99684819D01*
X152631905Y-100684819D02*
X152631905Y-99684819D01*
X152631905Y-99684819D02*
X152870000Y-99684819D01*
X152870000Y-99684819D02*
X153012857Y-99732438D01*
X153012857Y-99732438D02*
X153108095Y-99827676D01*
X153108095Y-99827676D02*
X153155714Y-99922914D01*
X153155714Y-99922914D02*
X153203333Y-100113390D01*
X153203333Y-100113390D02*
X153203333Y-100256247D01*
X153203333Y-100256247D02*
X153155714Y-100446723D01*
X153155714Y-100446723D02*
X153108095Y-100541961D01*
X153108095Y-100541961D02*
X153012857Y-100637200D01*
X153012857Y-100637200D02*
X152870000Y-100684819D01*
X152870000Y-100684819D02*
X152631905Y-100684819D01*
X146510951Y-73086133D02*
X145749047Y-73086133D01*
X146129999Y-72705180D02*
X146129999Y-73467085D01*
X128694048Y-112218866D02*
X129455953Y-112218866D01*
X129075000Y-112599819D02*
X129075000Y-111837914D01*
X99613866Y-79115951D02*
X99613866Y-78354047D01*
X99994819Y-78734999D02*
X99232914Y-78734999D01*
X110870951Y-75621133D02*
X110109047Y-75621133D01*
D10*
X150251027Y-87802447D02*
X150584360Y-88802447D01*
X150584360Y-88802447D02*
X150917693Y-87802447D01*
X151822455Y-88707208D02*
X151774836Y-88754828D01*
X151774836Y-88754828D02*
X151631979Y-88802447D01*
X151631979Y-88802447D02*
X151536741Y-88802447D01*
X151536741Y-88802447D02*
X151393884Y-88754828D01*
X151393884Y-88754828D02*
X151298646Y-88659589D01*
X151298646Y-88659589D02*
X151251027Y-88564351D01*
X151251027Y-88564351D02*
X151203408Y-88373875D01*
X151203408Y-88373875D02*
X151203408Y-88231018D01*
X151203408Y-88231018D02*
X151251027Y-88040542D01*
X151251027Y-88040542D02*
X151298646Y-87945304D01*
X151298646Y-87945304D02*
X151393884Y-87850066D01*
X151393884Y-87850066D02*
X151536741Y-87802447D01*
X151536741Y-87802447D02*
X151631979Y-87802447D01*
X151631979Y-87802447D02*
X151774836Y-87850066D01*
X151774836Y-87850066D02*
X151822455Y-87897685D01*
X152822455Y-88707208D02*
X152774836Y-88754828D01*
X152774836Y-88754828D02*
X152631979Y-88802447D01*
X152631979Y-88802447D02*
X152536741Y-88802447D01*
X152536741Y-88802447D02*
X152393884Y-88754828D01*
X152393884Y-88754828D02*
X152298646Y-88659589D01*
X152298646Y-88659589D02*
X152251027Y-88564351D01*
X152251027Y-88564351D02*
X152203408Y-88373875D01*
X152203408Y-88373875D02*
X152203408Y-88231018D01*
X152203408Y-88231018D02*
X152251027Y-88040542D01*
X152251027Y-88040542D02*
X152298646Y-87945304D01*
X152298646Y-87945304D02*
X152393884Y-87850066D01*
X152393884Y-87850066D02*
X152536741Y-87802447D01*
X152536741Y-87802447D02*
X152631979Y-87802447D01*
X152631979Y-87802447D02*
X152774836Y-87850066D01*
X152774836Y-87850066D02*
X152822455Y-87897685D01*
X150679598Y-90793343D02*
X150631979Y-90745724D01*
X150631979Y-90745724D02*
X150536741Y-90602867D01*
X150536741Y-90602867D02*
X150489122Y-90507629D01*
X150489122Y-90507629D02*
X150441503Y-90364772D01*
X150441503Y-90364772D02*
X150393884Y-90126676D01*
X150393884Y-90126676D02*
X150393884Y-89936200D01*
X150393884Y-89936200D02*
X150441503Y-89698105D01*
X150441503Y-89698105D02*
X150489122Y-89555248D01*
X150489122Y-89555248D02*
X150536741Y-89460010D01*
X150536741Y-89460010D02*
X150631979Y-89317152D01*
X150631979Y-89317152D02*
X150679598Y-89269533D01*
X150965313Y-89412391D02*
X151584360Y-89412391D01*
X151584360Y-89412391D02*
X151251027Y-89793343D01*
X151251027Y-89793343D02*
X151393884Y-89793343D01*
X151393884Y-89793343D02*
X151489122Y-89840962D01*
X151489122Y-89840962D02*
X151536741Y-89888581D01*
X151536741Y-89888581D02*
X151584360Y-89983819D01*
X151584360Y-89983819D02*
X151584360Y-90221914D01*
X151584360Y-90221914D02*
X151536741Y-90317152D01*
X151536741Y-90317152D02*
X151489122Y-90364772D01*
X151489122Y-90364772D02*
X151393884Y-90412391D01*
X151393884Y-90412391D02*
X151108170Y-90412391D01*
X151108170Y-90412391D02*
X151012932Y-90364772D01*
X151012932Y-90364772D02*
X150965313Y-90317152D01*
X152012932Y-90031438D02*
X152774837Y-90031438D01*
X153727217Y-89412391D02*
X153251027Y-89412391D01*
X153251027Y-89412391D02*
X153203408Y-89888581D01*
X153203408Y-89888581D02*
X153251027Y-89840962D01*
X153251027Y-89840962D02*
X153346265Y-89793343D01*
X153346265Y-89793343D02*
X153584360Y-89793343D01*
X153584360Y-89793343D02*
X153679598Y-89840962D01*
X153679598Y-89840962D02*
X153727217Y-89888581D01*
X153727217Y-89888581D02*
X153774836Y-89983819D01*
X153774836Y-89983819D02*
X153774836Y-90221914D01*
X153774836Y-90221914D02*
X153727217Y-90317152D01*
X153727217Y-90317152D02*
X153679598Y-90364772D01*
X153679598Y-90364772D02*
X153584360Y-90412391D01*
X153584360Y-90412391D02*
X153346265Y-90412391D01*
X153346265Y-90412391D02*
X153251027Y-90364772D01*
X153251027Y-90364772D02*
X153203408Y-90317152D01*
X154060551Y-89412391D02*
X154393884Y-90412391D01*
X154393884Y-90412391D02*
X154727217Y-89412391D01*
X154965313Y-90793343D02*
X155012932Y-90745724D01*
X155012932Y-90745724D02*
X155108170Y-90602867D01*
X155108170Y-90602867D02*
X155155789Y-90507629D01*
X155155789Y-90507629D02*
X155203408Y-90364772D01*
X155203408Y-90364772D02*
X155251027Y-90126676D01*
X155251027Y-90126676D02*
X155251027Y-89936200D01*
X155251027Y-89936200D02*
X155203408Y-89698105D01*
X155203408Y-89698105D02*
X155155789Y-89555248D01*
X155155789Y-89555248D02*
X155108170Y-89460010D01*
X155108170Y-89460010D02*
X155012932Y-89317152D01*
X155012932Y-89317152D02*
X154965313Y-89269533D01*
D12*
X99703866Y-85380951D02*
X99703866Y-84619047D01*
X151688866Y-78835951D02*
X151688866Y-78074047D01*
X152069819Y-78454999D02*
X151307914Y-78454999D01*
X137472857Y-47586037D02*
X137615714Y-47633656D01*
X137615714Y-47633656D02*
X137663333Y-47681275D01*
X137663333Y-47681275D02*
X137710952Y-47776513D01*
X137710952Y-47776513D02*
X137710952Y-47919370D01*
X137710952Y-47919370D02*
X137663333Y-48014608D01*
X137663333Y-48014608D02*
X137615714Y-48062228D01*
X137615714Y-48062228D02*
X137520476Y-48109847D01*
X137520476Y-48109847D02*
X137139524Y-48109847D01*
X137139524Y-48109847D02*
X137139524Y-47109847D01*
X137139524Y-47109847D02*
X137472857Y-47109847D01*
X137472857Y-47109847D02*
X137568095Y-47157466D01*
X137568095Y-47157466D02*
X137615714Y-47205085D01*
X137615714Y-47205085D02*
X137663333Y-47300323D01*
X137663333Y-47300323D02*
X137663333Y-47395561D01*
X137663333Y-47395561D02*
X137615714Y-47490799D01*
X137615714Y-47490799D02*
X137568095Y-47538418D01*
X137568095Y-47538418D02*
X137472857Y-47586037D01*
X137472857Y-47586037D02*
X137139524Y-47586037D01*
X138091905Y-47824132D02*
X138568095Y-47824132D01*
X137996667Y-48109847D02*
X138330000Y-47109847D01*
X138330000Y-47109847D02*
X138663333Y-48109847D01*
X139568095Y-48014608D02*
X139520476Y-48062228D01*
X139520476Y-48062228D02*
X139377619Y-48109847D01*
X139377619Y-48109847D02*
X139282381Y-48109847D01*
X139282381Y-48109847D02*
X139139524Y-48062228D01*
X139139524Y-48062228D02*
X139044286Y-47966989D01*
X139044286Y-47966989D02*
X138996667Y-47871751D01*
X138996667Y-47871751D02*
X138949048Y-47681275D01*
X138949048Y-47681275D02*
X138949048Y-47538418D01*
X138949048Y-47538418D02*
X138996667Y-47347942D01*
X138996667Y-47347942D02*
X139044286Y-47252704D01*
X139044286Y-47252704D02*
X139139524Y-47157466D01*
X139139524Y-47157466D02*
X139282381Y-47109847D01*
X139282381Y-47109847D02*
X139377619Y-47109847D01*
X139377619Y-47109847D02*
X139520476Y-47157466D01*
X139520476Y-47157466D02*
X139568095Y-47205085D01*
X139996667Y-48109847D02*
X139996667Y-47109847D01*
X140568095Y-48109847D02*
X140139524Y-47538418D01*
X140568095Y-47109847D02*
X139996667Y-47681275D01*
X134401428Y-48719791D02*
X134591904Y-48719791D01*
X134591904Y-48719791D02*
X134687142Y-48767410D01*
X134687142Y-48767410D02*
X134782380Y-48862648D01*
X134782380Y-48862648D02*
X134829999Y-49053124D01*
X134829999Y-49053124D02*
X134829999Y-49386457D01*
X134829999Y-49386457D02*
X134782380Y-49576933D01*
X134782380Y-49576933D02*
X134687142Y-49672172D01*
X134687142Y-49672172D02*
X134591904Y-49719791D01*
X134591904Y-49719791D02*
X134401428Y-49719791D01*
X134401428Y-49719791D02*
X134306190Y-49672172D01*
X134306190Y-49672172D02*
X134210952Y-49576933D01*
X134210952Y-49576933D02*
X134163333Y-49386457D01*
X134163333Y-49386457D02*
X134163333Y-49053124D01*
X134163333Y-49053124D02*
X134210952Y-48862648D01*
X134210952Y-48862648D02*
X134306190Y-48767410D01*
X134306190Y-48767410D02*
X134401428Y-48719791D01*
X135258571Y-48719791D02*
X135258571Y-49529314D01*
X135258571Y-49529314D02*
X135306190Y-49624552D01*
X135306190Y-49624552D02*
X135353809Y-49672172D01*
X135353809Y-49672172D02*
X135449047Y-49719791D01*
X135449047Y-49719791D02*
X135639523Y-49719791D01*
X135639523Y-49719791D02*
X135734761Y-49672172D01*
X135734761Y-49672172D02*
X135782380Y-49624552D01*
X135782380Y-49624552D02*
X135829999Y-49529314D01*
X135829999Y-49529314D02*
X135829999Y-48719791D01*
X136163333Y-48719791D02*
X136734761Y-48719791D01*
X136449047Y-49719791D02*
X136449047Y-48719791D01*
X142401430Y-49719791D02*
X142401430Y-48719791D01*
X142877620Y-49719791D02*
X142877620Y-48719791D01*
X142877620Y-48719791D02*
X143449048Y-49719791D01*
X143449048Y-49719791D02*
X143449048Y-48719791D01*
X114584048Y-112313866D02*
X115345953Y-112313866D01*
X146600951Y-76491133D02*
X145839047Y-76491133D01*
X150509524Y-92777200D02*
X150652381Y-92824819D01*
X150652381Y-92824819D02*
X150890476Y-92824819D01*
X150890476Y-92824819D02*
X150985714Y-92777200D01*
X150985714Y-92777200D02*
X151033333Y-92729580D01*
X151033333Y-92729580D02*
X151080952Y-92634342D01*
X151080952Y-92634342D02*
X151080952Y-92539104D01*
X151080952Y-92539104D02*
X151033333Y-92443866D01*
X151033333Y-92443866D02*
X150985714Y-92396247D01*
X150985714Y-92396247D02*
X150890476Y-92348628D01*
X150890476Y-92348628D02*
X150700000Y-92301009D01*
X150700000Y-92301009D02*
X150604762Y-92253390D01*
X150604762Y-92253390D02*
X150557143Y-92205771D01*
X150557143Y-92205771D02*
X150509524Y-92110533D01*
X150509524Y-92110533D02*
X150509524Y-92015295D01*
X150509524Y-92015295D02*
X150557143Y-91920057D01*
X150557143Y-91920057D02*
X150604762Y-91872438D01*
X150604762Y-91872438D02*
X150700000Y-91824819D01*
X150700000Y-91824819D02*
X150938095Y-91824819D01*
X150938095Y-91824819D02*
X151080952Y-91872438D01*
X152080952Y-92729580D02*
X152033333Y-92777200D01*
X152033333Y-92777200D02*
X151890476Y-92824819D01*
X151890476Y-92824819D02*
X151795238Y-92824819D01*
X151795238Y-92824819D02*
X151652381Y-92777200D01*
X151652381Y-92777200D02*
X151557143Y-92681961D01*
X151557143Y-92681961D02*
X151509524Y-92586723D01*
X151509524Y-92586723D02*
X151461905Y-92396247D01*
X151461905Y-92396247D02*
X151461905Y-92253390D01*
X151461905Y-92253390D02*
X151509524Y-92062914D01*
X151509524Y-92062914D02*
X151557143Y-91967676D01*
X151557143Y-91967676D02*
X151652381Y-91872438D01*
X151652381Y-91872438D02*
X151795238Y-91824819D01*
X151795238Y-91824819D02*
X151890476Y-91824819D01*
X151890476Y-91824819D02*
X152033333Y-91872438D01*
X152033333Y-91872438D02*
X152080952Y-91920057D01*
X152985714Y-92824819D02*
X152509524Y-92824819D01*
X152509524Y-92824819D02*
X152509524Y-91824819D01*
X151778866Y-85100951D02*
X151778866Y-84339047D01*
X110755951Y-73576133D02*
X109994047Y-73576133D01*
X110374999Y-73195180D02*
X110374999Y-73957085D01*
X150515714Y-95162200D02*
X150658571Y-95209819D01*
X150658571Y-95209819D02*
X150896666Y-95209819D01*
X150896666Y-95209819D02*
X150991904Y-95162200D01*
X150991904Y-95162200D02*
X151039523Y-95114580D01*
X151039523Y-95114580D02*
X151087142Y-95019342D01*
X151087142Y-95019342D02*
X151087142Y-94924104D01*
X151087142Y-94924104D02*
X151039523Y-94828866D01*
X151039523Y-94828866D02*
X150991904Y-94781247D01*
X150991904Y-94781247D02*
X150896666Y-94733628D01*
X150896666Y-94733628D02*
X150706190Y-94686009D01*
X150706190Y-94686009D02*
X150610952Y-94638390D01*
X150610952Y-94638390D02*
X150563333Y-94590771D01*
X150563333Y-94590771D02*
X150515714Y-94495533D01*
X150515714Y-94495533D02*
X150515714Y-94400295D01*
X150515714Y-94400295D02*
X150563333Y-94305057D01*
X150563333Y-94305057D02*
X150610952Y-94257438D01*
X150610952Y-94257438D02*
X150706190Y-94209819D01*
X150706190Y-94209819D02*
X150944285Y-94209819D01*
X150944285Y-94209819D02*
X151087142Y-94257438D01*
X151515714Y-95209819D02*
X151515714Y-94209819D01*
X151515714Y-94209819D02*
X151753809Y-94209819D01*
X151753809Y-94209819D02*
X151896666Y-94257438D01*
X151896666Y-94257438D02*
X151991904Y-94352676D01*
X151991904Y-94352676D02*
X152039523Y-94447914D01*
X152039523Y-94447914D02*
X152087142Y-94638390D01*
X152087142Y-94638390D02*
X152087142Y-94781247D01*
X152087142Y-94781247D02*
X152039523Y-94971723D01*
X152039523Y-94971723D02*
X151991904Y-95066961D01*
X151991904Y-95066961D02*
X151896666Y-95162200D01*
X151896666Y-95162200D02*
X151753809Y-95209819D01*
X151753809Y-95209819D02*
X151515714Y-95209819D01*
X152468095Y-94924104D02*
X152944285Y-94924104D01*
X152372857Y-95209819D02*
X152706190Y-94209819D01*
X152706190Y-94209819D02*
X153039523Y-95209819D01*
X95529048Y-56238866D02*
X96290953Y-56238866D01*
X116485476Y-84439819D02*
X116485476Y-85154104D01*
X116485476Y-85154104D02*
X116437857Y-85296961D01*
X116437857Y-85296961D02*
X116342619Y-85392200D01*
X116342619Y-85392200D02*
X116199762Y-85439819D01*
X116199762Y-85439819D02*
X116104524Y-85439819D01*
X117485476Y-85439819D02*
X116914048Y-85439819D01*
X117199762Y-85439819D02*
X117199762Y-84439819D01*
X117199762Y-84439819D02*
X117104524Y-84582676D01*
X117104524Y-84582676D02*
X117009286Y-84677914D01*
X117009286Y-84677914D02*
X116914048Y-84725533D01*
X117818810Y-84439819D02*
X118437857Y-84439819D01*
X118437857Y-84439819D02*
X118104524Y-84820771D01*
X118104524Y-84820771D02*
X118247381Y-84820771D01*
X118247381Y-84820771D02*
X118342619Y-84868390D01*
X118342619Y-84868390D02*
X118390238Y-84916009D01*
X118390238Y-84916009D02*
X118437857Y-85011247D01*
X118437857Y-85011247D02*
X118437857Y-85249342D01*
X118437857Y-85249342D02*
X118390238Y-85344580D01*
X118390238Y-85344580D02*
X118342619Y-85392200D01*
X118342619Y-85392200D02*
X118247381Y-85439819D01*
X118247381Y-85439819D02*
X117961667Y-85439819D01*
X117961667Y-85439819D02*
X117866429Y-85392200D01*
X117866429Y-85392200D02*
X117818810Y-85344580D01*
X105011667Y-102629819D02*
X105345000Y-103629819D01*
X105345000Y-103629819D02*
X105678333Y-102629819D01*
X105964048Y-103582200D02*
X106106905Y-103629819D01*
X106106905Y-103629819D02*
X106345000Y-103629819D01*
X106345000Y-103629819D02*
X106440238Y-103582200D01*
X106440238Y-103582200D02*
X106487857Y-103534580D01*
X106487857Y-103534580D02*
X106535476Y-103439342D01*
X106535476Y-103439342D02*
X106535476Y-103344104D01*
X106535476Y-103344104D02*
X106487857Y-103248866D01*
X106487857Y-103248866D02*
X106440238Y-103201247D01*
X106440238Y-103201247D02*
X106345000Y-103153628D01*
X106345000Y-103153628D02*
X106154524Y-103106009D01*
X106154524Y-103106009D02*
X106059286Y-103058390D01*
X106059286Y-103058390D02*
X106011667Y-103010771D01*
X106011667Y-103010771D02*
X105964048Y-102915533D01*
X105964048Y-102915533D02*
X105964048Y-102820295D01*
X105964048Y-102820295D02*
X106011667Y-102725057D01*
X106011667Y-102725057D02*
X106059286Y-102677438D01*
X106059286Y-102677438D02*
X106154524Y-102629819D01*
X106154524Y-102629819D02*
X106392619Y-102629819D01*
X106392619Y-102629819D02*
X106535476Y-102677438D01*
X106964048Y-103106009D02*
X107297381Y-103106009D01*
X107440238Y-103629819D02*
X106964048Y-103629819D01*
X106964048Y-103629819D02*
X106964048Y-102629819D01*
X106964048Y-102629819D02*
X107440238Y-102629819D01*
X107868810Y-103629819D02*
X107868810Y-102629819D01*
X107868810Y-102629819D02*
X108440238Y-103629819D01*
X108440238Y-103629819D02*
X108440238Y-102629819D01*
X108868810Y-103582200D02*
X109011667Y-103629819D01*
X109011667Y-103629819D02*
X109249762Y-103629819D01*
X109249762Y-103629819D02*
X109345000Y-103582200D01*
X109345000Y-103582200D02*
X109392619Y-103534580D01*
X109392619Y-103534580D02*
X109440238Y-103439342D01*
X109440238Y-103439342D02*
X109440238Y-103344104D01*
X109440238Y-103344104D02*
X109392619Y-103248866D01*
X109392619Y-103248866D02*
X109345000Y-103201247D01*
X109345000Y-103201247D02*
X109249762Y-103153628D01*
X109249762Y-103153628D02*
X109059286Y-103106009D01*
X109059286Y-103106009D02*
X108964048Y-103058390D01*
X108964048Y-103058390D02*
X108916429Y-103010771D01*
X108916429Y-103010771D02*
X108868810Y-102915533D01*
X108868810Y-102915533D02*
X108868810Y-102820295D01*
X108868810Y-102820295D02*
X108916429Y-102725057D01*
X108916429Y-102725057D02*
X108964048Y-102677438D01*
X108964048Y-102677438D02*
X109059286Y-102629819D01*
X109059286Y-102629819D02*
X109297381Y-102629819D01*
X109297381Y-102629819D02*
X109440238Y-102677438D01*
X109868810Y-103106009D02*
X110202143Y-103106009D01*
X110345000Y-103629819D02*
X109868810Y-103629819D01*
X109868810Y-103629819D02*
X109868810Y-102629819D01*
X109868810Y-102629819D02*
X110345000Y-102629819D01*
X110773572Y-103248866D02*
X111535477Y-103248866D01*
X111154524Y-103629819D02*
X111154524Y-102867914D01*
X128569819Y-88203333D02*
X129284104Y-88203333D01*
X129284104Y-88203333D02*
X129426961Y-88250952D01*
X129426961Y-88250952D02*
X129522200Y-88346190D01*
X129522200Y-88346190D02*
X129569819Y-88489047D01*
X129569819Y-88489047D02*
X129569819Y-88584285D01*
X128569819Y-87250952D02*
X128569819Y-87727142D01*
X128569819Y-87727142D02*
X129046009Y-87774761D01*
X129046009Y-87774761D02*
X128998390Y-87727142D01*
X128998390Y-87727142D02*
X128950771Y-87631904D01*
X128950771Y-87631904D02*
X128950771Y-87393809D01*
X128950771Y-87393809D02*
X128998390Y-87298571D01*
X128998390Y-87298571D02*
X129046009Y-87250952D01*
X129046009Y-87250952D02*
X129141247Y-87203333D01*
X129141247Y-87203333D02*
X129379342Y-87203333D01*
X129379342Y-87203333D02*
X129474580Y-87250952D01*
X129474580Y-87250952D02*
X129522200Y-87298571D01*
X129522200Y-87298571D02*
X129569819Y-87393809D01*
X129569819Y-87393809D02*
X129569819Y-87631904D01*
X129569819Y-87631904D02*
X129522200Y-87727142D01*
X129522200Y-87727142D02*
X129474580Y-87774761D01*
X121875000Y-83604819D02*
X121875000Y-82604819D01*
X122303571Y-83557200D02*
X122446428Y-83604819D01*
X122446428Y-83604819D02*
X122684523Y-83604819D01*
X122684523Y-83604819D02*
X122779761Y-83557200D01*
X122779761Y-83557200D02*
X122827380Y-83509580D01*
X122827380Y-83509580D02*
X122874999Y-83414342D01*
X122874999Y-83414342D02*
X122874999Y-83319104D01*
X122874999Y-83319104D02*
X122827380Y-83223866D01*
X122827380Y-83223866D02*
X122779761Y-83176247D01*
X122779761Y-83176247D02*
X122684523Y-83128628D01*
X122684523Y-83128628D02*
X122494047Y-83081009D01*
X122494047Y-83081009D02*
X122398809Y-83033390D01*
X122398809Y-83033390D02*
X122351190Y-82985771D01*
X122351190Y-82985771D02*
X122303571Y-82890533D01*
X122303571Y-82890533D02*
X122303571Y-82795295D01*
X122303571Y-82795295D02*
X122351190Y-82700057D01*
X122351190Y-82700057D02*
X122398809Y-82652438D01*
X122398809Y-82652438D02*
X122494047Y-82604819D01*
X122494047Y-82604819D02*
X122732142Y-82604819D01*
X122732142Y-82604819D02*
X122874999Y-82652438D01*
X123303571Y-83081009D02*
X123636904Y-83081009D01*
X123779761Y-83604819D02*
X123303571Y-83604819D01*
X123303571Y-83604819D02*
X123303571Y-82604819D01*
X123303571Y-82604819D02*
X123779761Y-82604819D01*
X124208333Y-83604819D02*
X124208333Y-82604819D01*
X124208333Y-82604819D02*
X124779761Y-83604819D01*
X124779761Y-83604819D02*
X124779761Y-82604819D01*
X125208333Y-83557200D02*
X125351190Y-83604819D01*
X125351190Y-83604819D02*
X125589285Y-83604819D01*
X125589285Y-83604819D02*
X125684523Y-83557200D01*
X125684523Y-83557200D02*
X125732142Y-83509580D01*
X125732142Y-83509580D02*
X125779761Y-83414342D01*
X125779761Y-83414342D02*
X125779761Y-83319104D01*
X125779761Y-83319104D02*
X125732142Y-83223866D01*
X125732142Y-83223866D02*
X125684523Y-83176247D01*
X125684523Y-83176247D02*
X125589285Y-83128628D01*
X125589285Y-83128628D02*
X125398809Y-83081009D01*
X125398809Y-83081009D02*
X125303571Y-83033390D01*
X125303571Y-83033390D02*
X125255952Y-82985771D01*
X125255952Y-82985771D02*
X125208333Y-82890533D01*
X125208333Y-82890533D02*
X125208333Y-82795295D01*
X125208333Y-82795295D02*
X125255952Y-82700057D01*
X125255952Y-82700057D02*
X125303571Y-82652438D01*
X125303571Y-82652438D02*
X125398809Y-82604819D01*
X125398809Y-82604819D02*
X125636904Y-82604819D01*
X125636904Y-82604819D02*
X125779761Y-82652438D01*
X126208333Y-83081009D02*
X126541666Y-83081009D01*
X126684523Y-83604819D02*
X126208333Y-83604819D01*
X126208333Y-83604819D02*
X126208333Y-82604819D01*
X126208333Y-82604819D02*
X126684523Y-82604819D01*
X127113095Y-83223866D02*
X127875000Y-83223866D01*
X127494047Y-83604819D02*
X127494047Y-82842914D01*
X110321190Y-49046009D02*
X110464047Y-49093628D01*
X110464047Y-49093628D02*
X110511666Y-49141247D01*
X110511666Y-49141247D02*
X110559285Y-49236485D01*
X110559285Y-49236485D02*
X110559285Y-49379342D01*
X110559285Y-49379342D02*
X110511666Y-49474580D01*
X110511666Y-49474580D02*
X110464047Y-49522200D01*
X110464047Y-49522200D02*
X110368809Y-49569819D01*
X110368809Y-49569819D02*
X109987857Y-49569819D01*
X109987857Y-49569819D02*
X109987857Y-48569819D01*
X109987857Y-48569819D02*
X110321190Y-48569819D01*
X110321190Y-48569819D02*
X110416428Y-48617438D01*
X110416428Y-48617438D02*
X110464047Y-48665057D01*
X110464047Y-48665057D02*
X110511666Y-48760295D01*
X110511666Y-48760295D02*
X110511666Y-48855533D01*
X110511666Y-48855533D02*
X110464047Y-48950771D01*
X110464047Y-48950771D02*
X110416428Y-48998390D01*
X110416428Y-48998390D02*
X110321190Y-49046009D01*
X110321190Y-49046009D02*
X109987857Y-49046009D01*
X110940238Y-49284104D02*
X111416428Y-49284104D01*
X110845000Y-49569819D02*
X111178333Y-48569819D01*
X111178333Y-48569819D02*
X111511666Y-49569819D01*
X112416428Y-49474580D02*
X112368809Y-49522200D01*
X112368809Y-49522200D02*
X112225952Y-49569819D01*
X112225952Y-49569819D02*
X112130714Y-49569819D01*
X112130714Y-49569819D02*
X111987857Y-49522200D01*
X111987857Y-49522200D02*
X111892619Y-49426961D01*
X111892619Y-49426961D02*
X111845000Y-49331723D01*
X111845000Y-49331723D02*
X111797381Y-49141247D01*
X111797381Y-49141247D02*
X111797381Y-48998390D01*
X111797381Y-48998390D02*
X111845000Y-48807914D01*
X111845000Y-48807914D02*
X111892619Y-48712676D01*
X111892619Y-48712676D02*
X111987857Y-48617438D01*
X111987857Y-48617438D02*
X112130714Y-48569819D01*
X112130714Y-48569819D02*
X112225952Y-48569819D01*
X112225952Y-48569819D02*
X112368809Y-48617438D01*
X112368809Y-48617438D02*
X112416428Y-48665057D01*
X112845000Y-49569819D02*
X112845000Y-48569819D01*
X113416428Y-49569819D02*
X112987857Y-48998390D01*
X113416428Y-48569819D02*
X112845000Y-49141247D01*
X113845000Y-49188866D02*
X114606905Y-49188866D01*
X115416428Y-49046009D02*
X115559285Y-49093628D01*
X115559285Y-49093628D02*
X115606904Y-49141247D01*
X115606904Y-49141247D02*
X115654523Y-49236485D01*
X115654523Y-49236485D02*
X115654523Y-49379342D01*
X115654523Y-49379342D02*
X115606904Y-49474580D01*
X115606904Y-49474580D02*
X115559285Y-49522200D01*
X115559285Y-49522200D02*
X115464047Y-49569819D01*
X115464047Y-49569819D02*
X115083095Y-49569819D01*
X115083095Y-49569819D02*
X115083095Y-48569819D01*
X115083095Y-48569819D02*
X115416428Y-48569819D01*
X115416428Y-48569819D02*
X115511666Y-48617438D01*
X115511666Y-48617438D02*
X115559285Y-48665057D01*
X115559285Y-48665057D02*
X115606904Y-48760295D01*
X115606904Y-48760295D02*
X115606904Y-48855533D01*
X115606904Y-48855533D02*
X115559285Y-48950771D01*
X115559285Y-48950771D02*
X115511666Y-48998390D01*
X115511666Y-48998390D02*
X115416428Y-49046009D01*
X115416428Y-49046009D02*
X115083095Y-49046009D01*
X116273571Y-48569819D02*
X116464047Y-48569819D01*
X116464047Y-48569819D02*
X116559285Y-48617438D01*
X116559285Y-48617438D02*
X116654523Y-48712676D01*
X116654523Y-48712676D02*
X116702142Y-48903152D01*
X116702142Y-48903152D02*
X116702142Y-49236485D01*
X116702142Y-49236485D02*
X116654523Y-49426961D01*
X116654523Y-49426961D02*
X116559285Y-49522200D01*
X116559285Y-49522200D02*
X116464047Y-49569819D01*
X116464047Y-49569819D02*
X116273571Y-49569819D01*
X116273571Y-49569819D02*
X116178333Y-49522200D01*
X116178333Y-49522200D02*
X116083095Y-49426961D01*
X116083095Y-49426961D02*
X116035476Y-49236485D01*
X116035476Y-49236485D02*
X116035476Y-48903152D01*
X116035476Y-48903152D02*
X116083095Y-48712676D01*
X116083095Y-48712676D02*
X116178333Y-48617438D01*
X116178333Y-48617438D02*
X116273571Y-48569819D01*
X117321190Y-48569819D02*
X117511666Y-48569819D01*
X117511666Y-48569819D02*
X117606904Y-48617438D01*
X117606904Y-48617438D02*
X117702142Y-48712676D01*
X117702142Y-48712676D02*
X117749761Y-48903152D01*
X117749761Y-48903152D02*
X117749761Y-49236485D01*
X117749761Y-49236485D02*
X117702142Y-49426961D01*
X117702142Y-49426961D02*
X117606904Y-49522200D01*
X117606904Y-49522200D02*
X117511666Y-49569819D01*
X117511666Y-49569819D02*
X117321190Y-49569819D01*
X117321190Y-49569819D02*
X117225952Y-49522200D01*
X117225952Y-49522200D02*
X117130714Y-49426961D01*
X117130714Y-49426961D02*
X117083095Y-49236485D01*
X117083095Y-49236485D02*
X117083095Y-48903152D01*
X117083095Y-48903152D02*
X117130714Y-48712676D01*
X117130714Y-48712676D02*
X117225952Y-48617438D01*
X117225952Y-48617438D02*
X117321190Y-48569819D01*
X118130714Y-49522200D02*
X118273571Y-49569819D01*
X118273571Y-49569819D02*
X118511666Y-49569819D01*
X118511666Y-49569819D02*
X118606904Y-49522200D01*
X118606904Y-49522200D02*
X118654523Y-49474580D01*
X118654523Y-49474580D02*
X118702142Y-49379342D01*
X118702142Y-49379342D02*
X118702142Y-49284104D01*
X118702142Y-49284104D02*
X118654523Y-49188866D01*
X118654523Y-49188866D02*
X118606904Y-49141247D01*
X118606904Y-49141247D02*
X118511666Y-49093628D01*
X118511666Y-49093628D02*
X118321190Y-49046009D01*
X118321190Y-49046009D02*
X118225952Y-48998390D01*
X118225952Y-48998390D02*
X118178333Y-48950771D01*
X118178333Y-48950771D02*
X118130714Y-48855533D01*
X118130714Y-48855533D02*
X118130714Y-48760295D01*
X118130714Y-48760295D02*
X118178333Y-48665057D01*
X118178333Y-48665057D02*
X118225952Y-48617438D01*
X118225952Y-48617438D02*
X118321190Y-48569819D01*
X118321190Y-48569819D02*
X118559285Y-48569819D01*
X118559285Y-48569819D02*
X118702142Y-48617438D01*
X118987857Y-48569819D02*
X119559285Y-48569819D01*
X119273571Y-49569819D02*
X119273571Y-48569819D01*
X120654524Y-49569819D02*
X120654524Y-48569819D01*
X121130714Y-49569819D02*
X121130714Y-48569819D01*
X121130714Y-48569819D02*
X121702142Y-49569819D01*
X121702142Y-49569819D02*
X121702142Y-48569819D01*
X110864523Y-64811009D02*
X111007380Y-64858628D01*
X111007380Y-64858628D02*
X111054999Y-64906247D01*
X111054999Y-64906247D02*
X111102618Y-65001485D01*
X111102618Y-65001485D02*
X111102618Y-65144342D01*
X111102618Y-65144342D02*
X111054999Y-65239580D01*
X111054999Y-65239580D02*
X111007380Y-65287200D01*
X111007380Y-65287200D02*
X110912142Y-65334819D01*
X110912142Y-65334819D02*
X110531190Y-65334819D01*
X110531190Y-65334819D02*
X110531190Y-64334819D01*
X110531190Y-64334819D02*
X110864523Y-64334819D01*
X110864523Y-64334819D02*
X110959761Y-64382438D01*
X110959761Y-64382438D02*
X111007380Y-64430057D01*
X111007380Y-64430057D02*
X111054999Y-64525295D01*
X111054999Y-64525295D02*
X111054999Y-64620533D01*
X111054999Y-64620533D02*
X111007380Y-64715771D01*
X111007380Y-64715771D02*
X110959761Y-64763390D01*
X110959761Y-64763390D02*
X110864523Y-64811009D01*
X110864523Y-64811009D02*
X110531190Y-64811009D01*
X111483571Y-65049104D02*
X111959761Y-65049104D01*
X111388333Y-65334819D02*
X111721666Y-64334819D01*
X111721666Y-64334819D02*
X112054999Y-65334819D01*
X112959761Y-65239580D02*
X112912142Y-65287200D01*
X112912142Y-65287200D02*
X112769285Y-65334819D01*
X112769285Y-65334819D02*
X112674047Y-65334819D01*
X112674047Y-65334819D02*
X112531190Y-65287200D01*
X112531190Y-65287200D02*
X112435952Y-65191961D01*
X112435952Y-65191961D02*
X112388333Y-65096723D01*
X112388333Y-65096723D02*
X112340714Y-64906247D01*
X112340714Y-64906247D02*
X112340714Y-64763390D01*
X112340714Y-64763390D02*
X112388333Y-64572914D01*
X112388333Y-64572914D02*
X112435952Y-64477676D01*
X112435952Y-64477676D02*
X112531190Y-64382438D01*
X112531190Y-64382438D02*
X112674047Y-64334819D01*
X112674047Y-64334819D02*
X112769285Y-64334819D01*
X112769285Y-64334819D02*
X112912142Y-64382438D01*
X112912142Y-64382438D02*
X112959761Y-64430057D01*
X113388333Y-65334819D02*
X113388333Y-64334819D01*
X113959761Y-65334819D02*
X113531190Y-64763390D01*
X113959761Y-64334819D02*
X113388333Y-64906247D01*
X114388333Y-64953866D02*
X115150238Y-64953866D01*
X115959761Y-64811009D02*
X116102618Y-64858628D01*
X116102618Y-64858628D02*
X116150237Y-64906247D01*
X116150237Y-64906247D02*
X116197856Y-65001485D01*
X116197856Y-65001485D02*
X116197856Y-65144342D01*
X116197856Y-65144342D02*
X116150237Y-65239580D01*
X116150237Y-65239580D02*
X116102618Y-65287200D01*
X116102618Y-65287200D02*
X116007380Y-65334819D01*
X116007380Y-65334819D02*
X115626428Y-65334819D01*
X115626428Y-65334819D02*
X115626428Y-64334819D01*
X115626428Y-64334819D02*
X115959761Y-64334819D01*
X115959761Y-64334819D02*
X116054999Y-64382438D01*
X116054999Y-64382438D02*
X116102618Y-64430057D01*
X116102618Y-64430057D02*
X116150237Y-64525295D01*
X116150237Y-64525295D02*
X116150237Y-64620533D01*
X116150237Y-64620533D02*
X116102618Y-64715771D01*
X116102618Y-64715771D02*
X116054999Y-64763390D01*
X116054999Y-64763390D02*
X115959761Y-64811009D01*
X115959761Y-64811009D02*
X115626428Y-64811009D01*
X116816904Y-64334819D02*
X117007380Y-64334819D01*
X117007380Y-64334819D02*
X117102618Y-64382438D01*
X117102618Y-64382438D02*
X117197856Y-64477676D01*
X117197856Y-64477676D02*
X117245475Y-64668152D01*
X117245475Y-64668152D02*
X117245475Y-65001485D01*
X117245475Y-65001485D02*
X117197856Y-65191961D01*
X117197856Y-65191961D02*
X117102618Y-65287200D01*
X117102618Y-65287200D02*
X117007380Y-65334819D01*
X117007380Y-65334819D02*
X116816904Y-65334819D01*
X116816904Y-65334819D02*
X116721666Y-65287200D01*
X116721666Y-65287200D02*
X116626428Y-65191961D01*
X116626428Y-65191961D02*
X116578809Y-65001485D01*
X116578809Y-65001485D02*
X116578809Y-64668152D01*
X116578809Y-64668152D02*
X116626428Y-64477676D01*
X116626428Y-64477676D02*
X116721666Y-64382438D01*
X116721666Y-64382438D02*
X116816904Y-64334819D01*
X117864523Y-64334819D02*
X118054999Y-64334819D01*
X118054999Y-64334819D02*
X118150237Y-64382438D01*
X118150237Y-64382438D02*
X118245475Y-64477676D01*
X118245475Y-64477676D02*
X118293094Y-64668152D01*
X118293094Y-64668152D02*
X118293094Y-65001485D01*
X118293094Y-65001485D02*
X118245475Y-65191961D01*
X118245475Y-65191961D02*
X118150237Y-65287200D01*
X118150237Y-65287200D02*
X118054999Y-65334819D01*
X118054999Y-65334819D02*
X117864523Y-65334819D01*
X117864523Y-65334819D02*
X117769285Y-65287200D01*
X117769285Y-65287200D02*
X117674047Y-65191961D01*
X117674047Y-65191961D02*
X117626428Y-65001485D01*
X117626428Y-65001485D02*
X117626428Y-64668152D01*
X117626428Y-64668152D02*
X117674047Y-64477676D01*
X117674047Y-64477676D02*
X117769285Y-64382438D01*
X117769285Y-64382438D02*
X117864523Y-64334819D01*
X118674047Y-65287200D02*
X118816904Y-65334819D01*
X118816904Y-65334819D02*
X119054999Y-65334819D01*
X119054999Y-65334819D02*
X119150237Y-65287200D01*
X119150237Y-65287200D02*
X119197856Y-65239580D01*
X119197856Y-65239580D02*
X119245475Y-65144342D01*
X119245475Y-65144342D02*
X119245475Y-65049104D01*
X119245475Y-65049104D02*
X119197856Y-64953866D01*
X119197856Y-64953866D02*
X119150237Y-64906247D01*
X119150237Y-64906247D02*
X119054999Y-64858628D01*
X119054999Y-64858628D02*
X118864523Y-64811009D01*
X118864523Y-64811009D02*
X118769285Y-64763390D01*
X118769285Y-64763390D02*
X118721666Y-64715771D01*
X118721666Y-64715771D02*
X118674047Y-64620533D01*
X118674047Y-64620533D02*
X118674047Y-64525295D01*
X118674047Y-64525295D02*
X118721666Y-64430057D01*
X118721666Y-64430057D02*
X118769285Y-64382438D01*
X118769285Y-64382438D02*
X118864523Y-64334819D01*
X118864523Y-64334819D02*
X119102618Y-64334819D01*
X119102618Y-64334819D02*
X119245475Y-64382438D01*
X119531190Y-64334819D02*
X120102618Y-64334819D01*
X119816904Y-65334819D02*
X119816904Y-64334819D01*
X121388333Y-64334819D02*
X121578809Y-64334819D01*
X121578809Y-64334819D02*
X121674047Y-64382438D01*
X121674047Y-64382438D02*
X121769285Y-64477676D01*
X121769285Y-64477676D02*
X121816904Y-64668152D01*
X121816904Y-64668152D02*
X121816904Y-65001485D01*
X121816904Y-65001485D02*
X121769285Y-65191961D01*
X121769285Y-65191961D02*
X121674047Y-65287200D01*
X121674047Y-65287200D02*
X121578809Y-65334819D01*
X121578809Y-65334819D02*
X121388333Y-65334819D01*
X121388333Y-65334819D02*
X121293095Y-65287200D01*
X121293095Y-65287200D02*
X121197857Y-65191961D01*
X121197857Y-65191961D02*
X121150238Y-65001485D01*
X121150238Y-65001485D02*
X121150238Y-64668152D01*
X121150238Y-64668152D02*
X121197857Y-64477676D01*
X121197857Y-64477676D02*
X121293095Y-64382438D01*
X121293095Y-64382438D02*
X121388333Y-64334819D01*
X122245476Y-64334819D02*
X122245476Y-65144342D01*
X122245476Y-65144342D02*
X122293095Y-65239580D01*
X122293095Y-65239580D02*
X122340714Y-65287200D01*
X122340714Y-65287200D02*
X122435952Y-65334819D01*
X122435952Y-65334819D02*
X122626428Y-65334819D01*
X122626428Y-65334819D02*
X122721666Y-65287200D01*
X122721666Y-65287200D02*
X122769285Y-65239580D01*
X122769285Y-65239580D02*
X122816904Y-65144342D01*
X122816904Y-65144342D02*
X122816904Y-64334819D01*
X123150238Y-64334819D02*
X123721666Y-64334819D01*
X123435952Y-65334819D02*
X123435952Y-64334819D01*
X128569819Y-102383333D02*
X129284104Y-102383333D01*
X129284104Y-102383333D02*
X129426961Y-102430952D01*
X129426961Y-102430952D02*
X129522200Y-102526190D01*
X129522200Y-102526190D02*
X129569819Y-102669047D01*
X129569819Y-102669047D02*
X129569819Y-102764285D01*
X128569819Y-101478571D02*
X128569819Y-101669047D01*
X128569819Y-101669047D02*
X128617438Y-101764285D01*
X128617438Y-101764285D02*
X128665057Y-101811904D01*
X128665057Y-101811904D02*
X128807914Y-101907142D01*
X128807914Y-101907142D02*
X128998390Y-101954761D01*
X128998390Y-101954761D02*
X129379342Y-101954761D01*
X129379342Y-101954761D02*
X129474580Y-101907142D01*
X129474580Y-101907142D02*
X129522200Y-101859523D01*
X129522200Y-101859523D02*
X129569819Y-101764285D01*
X129569819Y-101764285D02*
X129569819Y-101573809D01*
X129569819Y-101573809D02*
X129522200Y-101478571D01*
X129522200Y-101478571D02*
X129474580Y-101430952D01*
X129474580Y-101430952D02*
X129379342Y-101383333D01*
X129379342Y-101383333D02*
X129141247Y-101383333D01*
X129141247Y-101383333D02*
X129046009Y-101430952D01*
X129046009Y-101430952D02*
X128998390Y-101478571D01*
X128998390Y-101478571D02*
X128950771Y-101573809D01*
X128950771Y-101573809D02*
X128950771Y-101764285D01*
X128950771Y-101764285D02*
X128998390Y-101859523D01*
X128998390Y-101859523D02*
X129046009Y-101907142D01*
X129046009Y-101907142D02*
X129141247Y-101954761D01*
X127860000Y-106399819D02*
X127860000Y-105399819D01*
X128288571Y-106352200D02*
X128431428Y-106399819D01*
X128431428Y-106399819D02*
X128669523Y-106399819D01*
X128669523Y-106399819D02*
X128764761Y-106352200D01*
X128764761Y-106352200D02*
X128812380Y-106304580D01*
X128812380Y-106304580D02*
X128859999Y-106209342D01*
X128859999Y-106209342D02*
X128859999Y-106114104D01*
X128859999Y-106114104D02*
X128812380Y-106018866D01*
X128812380Y-106018866D02*
X128764761Y-105971247D01*
X128764761Y-105971247D02*
X128669523Y-105923628D01*
X128669523Y-105923628D02*
X128479047Y-105876009D01*
X128479047Y-105876009D02*
X128383809Y-105828390D01*
X128383809Y-105828390D02*
X128336190Y-105780771D01*
X128336190Y-105780771D02*
X128288571Y-105685533D01*
X128288571Y-105685533D02*
X128288571Y-105590295D01*
X128288571Y-105590295D02*
X128336190Y-105495057D01*
X128336190Y-105495057D02*
X128383809Y-105447438D01*
X128383809Y-105447438D02*
X128479047Y-105399819D01*
X128479047Y-105399819D02*
X128717142Y-105399819D01*
X128717142Y-105399819D02*
X128859999Y-105447438D01*
X129288571Y-105876009D02*
X129621904Y-105876009D01*
X129764761Y-106399819D02*
X129288571Y-106399819D01*
X129288571Y-106399819D02*
X129288571Y-105399819D01*
X129288571Y-105399819D02*
X129764761Y-105399819D01*
X130193333Y-106399819D02*
X130193333Y-105399819D01*
X130193333Y-105399819D02*
X130764761Y-106399819D01*
X130764761Y-106399819D02*
X130764761Y-105399819D01*
X131193333Y-106352200D02*
X131336190Y-106399819D01*
X131336190Y-106399819D02*
X131574285Y-106399819D01*
X131574285Y-106399819D02*
X131669523Y-106352200D01*
X131669523Y-106352200D02*
X131717142Y-106304580D01*
X131717142Y-106304580D02*
X131764761Y-106209342D01*
X131764761Y-106209342D02*
X131764761Y-106114104D01*
X131764761Y-106114104D02*
X131717142Y-106018866D01*
X131717142Y-106018866D02*
X131669523Y-105971247D01*
X131669523Y-105971247D02*
X131574285Y-105923628D01*
X131574285Y-105923628D02*
X131383809Y-105876009D01*
X131383809Y-105876009D02*
X131288571Y-105828390D01*
X131288571Y-105828390D02*
X131240952Y-105780771D01*
X131240952Y-105780771D02*
X131193333Y-105685533D01*
X131193333Y-105685533D02*
X131193333Y-105590295D01*
X131193333Y-105590295D02*
X131240952Y-105495057D01*
X131240952Y-105495057D02*
X131288571Y-105447438D01*
X131288571Y-105447438D02*
X131383809Y-105399819D01*
X131383809Y-105399819D02*
X131621904Y-105399819D01*
X131621904Y-105399819D02*
X131764761Y-105447438D01*
X132193333Y-105876009D02*
X132526666Y-105876009D01*
X132669523Y-106399819D02*
X132193333Y-106399819D01*
X132193333Y-106399819D02*
X132193333Y-105399819D01*
X132193333Y-105399819D02*
X132669523Y-105399819D01*
X133098095Y-106018866D02*
X133860000Y-106018866D01*
X94977857Y-55024819D02*
X94977857Y-54024819D01*
X94977857Y-54024819D02*
X95311190Y-54739104D01*
X95311190Y-54739104D02*
X95644523Y-54024819D01*
X95644523Y-54024819D02*
X95644523Y-55024819D01*
X95882619Y-55120057D02*
X96644523Y-55120057D01*
X97215952Y-54501009D02*
X97358809Y-54548628D01*
X97358809Y-54548628D02*
X97406428Y-54596247D01*
X97406428Y-54596247D02*
X97454047Y-54691485D01*
X97454047Y-54691485D02*
X97454047Y-54834342D01*
X97454047Y-54834342D02*
X97406428Y-54929580D01*
X97406428Y-54929580D02*
X97358809Y-54977200D01*
X97358809Y-54977200D02*
X97263571Y-55024819D01*
X97263571Y-55024819D02*
X96882619Y-55024819D01*
X96882619Y-55024819D02*
X96882619Y-54024819D01*
X96882619Y-54024819D02*
X97215952Y-54024819D01*
X97215952Y-54024819D02*
X97311190Y-54072438D01*
X97311190Y-54072438D02*
X97358809Y-54120057D01*
X97358809Y-54120057D02*
X97406428Y-54215295D01*
X97406428Y-54215295D02*
X97406428Y-54310533D01*
X97406428Y-54310533D02*
X97358809Y-54405771D01*
X97358809Y-54405771D02*
X97311190Y-54453390D01*
X97311190Y-54453390D02*
X97215952Y-54501009D01*
X97215952Y-54501009D02*
X96882619Y-54501009D01*
X97835000Y-54739104D02*
X98311190Y-54739104D01*
X97739762Y-55024819D02*
X98073095Y-54024819D01*
X98073095Y-54024819D02*
X98406428Y-55024819D01*
X98596905Y-54024819D02*
X99168333Y-54024819D01*
X98882619Y-55024819D02*
X98882619Y-54024819D01*
X99501667Y-54501009D02*
X99835000Y-54501009D01*
X99977857Y-55024819D02*
X99501667Y-55024819D01*
X99501667Y-55024819D02*
X99501667Y-54024819D01*
X99501667Y-54024819D02*
X99977857Y-54024819D01*
X100406429Y-54501009D02*
X100739762Y-54501009D01*
X100882619Y-55024819D02*
X100406429Y-55024819D01*
X100406429Y-55024819D02*
X100406429Y-54024819D01*
X100406429Y-54024819D02*
X100882619Y-54024819D01*
X101882619Y-55024819D02*
X101549286Y-54548628D01*
X101311191Y-55024819D02*
X101311191Y-54024819D01*
X101311191Y-54024819D02*
X101692143Y-54024819D01*
X101692143Y-54024819D02*
X101787381Y-54072438D01*
X101787381Y-54072438D02*
X101835000Y-54120057D01*
X101835000Y-54120057D02*
X101882619Y-54215295D01*
X101882619Y-54215295D02*
X101882619Y-54358152D01*
X101882619Y-54358152D02*
X101835000Y-54453390D01*
X101835000Y-54453390D02*
X101787381Y-54501009D01*
X101787381Y-54501009D02*
X101692143Y-54548628D01*
X101692143Y-54548628D02*
X101311191Y-54548628D01*
X102501667Y-54548628D02*
X102501667Y-55024819D01*
X102168334Y-54024819D02*
X102501667Y-54548628D01*
X102501667Y-54548628D02*
X102835000Y-54024819D01*
X152255713Y-53754580D02*
X152208094Y-53802200D01*
X152208094Y-53802200D02*
X152065237Y-53849819D01*
X152065237Y-53849819D02*
X151969999Y-53849819D01*
X151969999Y-53849819D02*
X151827142Y-53802200D01*
X151827142Y-53802200D02*
X151731904Y-53706961D01*
X151731904Y-53706961D02*
X151684285Y-53611723D01*
X151684285Y-53611723D02*
X151636666Y-53421247D01*
X151636666Y-53421247D02*
X151636666Y-53278390D01*
X151636666Y-53278390D02*
X151684285Y-53087914D01*
X151684285Y-53087914D02*
X151731904Y-52992676D01*
X151731904Y-52992676D02*
X151827142Y-52897438D01*
X151827142Y-52897438D02*
X151969999Y-52849819D01*
X151969999Y-52849819D02*
X152065237Y-52849819D01*
X152065237Y-52849819D02*
X152208094Y-52897438D01*
X152208094Y-52897438D02*
X152255713Y-52945057D01*
X152446190Y-53945057D02*
X153208094Y-53945057D01*
X153779523Y-53326009D02*
X153922380Y-53373628D01*
X153922380Y-53373628D02*
X153969999Y-53421247D01*
X153969999Y-53421247D02*
X154017618Y-53516485D01*
X154017618Y-53516485D02*
X154017618Y-53659342D01*
X154017618Y-53659342D02*
X153969999Y-53754580D01*
X153969999Y-53754580D02*
X153922380Y-53802200D01*
X153922380Y-53802200D02*
X153827142Y-53849819D01*
X153827142Y-53849819D02*
X153446190Y-53849819D01*
X153446190Y-53849819D02*
X153446190Y-52849819D01*
X153446190Y-52849819D02*
X153779523Y-52849819D01*
X153779523Y-52849819D02*
X153874761Y-52897438D01*
X153874761Y-52897438D02*
X153922380Y-52945057D01*
X153922380Y-52945057D02*
X153969999Y-53040295D01*
X153969999Y-53040295D02*
X153969999Y-53135533D01*
X153969999Y-53135533D02*
X153922380Y-53230771D01*
X153922380Y-53230771D02*
X153874761Y-53278390D01*
X153874761Y-53278390D02*
X153779523Y-53326009D01*
X153779523Y-53326009D02*
X153446190Y-53326009D01*
X154398571Y-53564104D02*
X154874761Y-53564104D01*
X154303333Y-53849819D02*
X154636666Y-52849819D01*
X154636666Y-52849819D02*
X154969999Y-53849819D01*
X155160476Y-52849819D02*
X155731904Y-52849819D01*
X155446190Y-53849819D02*
X155446190Y-52849819D01*
X156065238Y-53326009D02*
X156398571Y-53326009D01*
X156541428Y-53849819D02*
X156065238Y-53849819D01*
X156065238Y-53849819D02*
X156065238Y-52849819D01*
X156065238Y-52849819D02*
X156541428Y-52849819D01*
X156970000Y-53326009D02*
X157303333Y-53326009D01*
X157446190Y-53849819D02*
X156970000Y-53849819D01*
X156970000Y-53849819D02*
X156970000Y-52849819D01*
X156970000Y-52849819D02*
X157446190Y-52849819D01*
X158446190Y-53849819D02*
X158112857Y-53373628D01*
X157874762Y-53849819D02*
X157874762Y-52849819D01*
X157874762Y-52849819D02*
X158255714Y-52849819D01*
X158255714Y-52849819D02*
X158350952Y-52897438D01*
X158350952Y-52897438D02*
X158398571Y-52945057D01*
X158398571Y-52945057D02*
X158446190Y-53040295D01*
X158446190Y-53040295D02*
X158446190Y-53183152D01*
X158446190Y-53183152D02*
X158398571Y-53278390D01*
X158398571Y-53278390D02*
X158350952Y-53326009D01*
X158350952Y-53326009D02*
X158255714Y-53373628D01*
X158255714Y-53373628D02*
X157874762Y-53373628D01*
X159065238Y-53373628D02*
X159065238Y-53849819D01*
X158731905Y-52849819D02*
X159065238Y-53373628D01*
X159065238Y-53373628D02*
X159398571Y-52849819D01*
X155024819Y-65808333D02*
X155739104Y-65808333D01*
X155739104Y-65808333D02*
X155881961Y-65855952D01*
X155881961Y-65855952D02*
X155977200Y-65951190D01*
X155977200Y-65951190D02*
X156024819Y-66094047D01*
X156024819Y-66094047D02*
X156024819Y-66189285D01*
X155120057Y-65379761D02*
X155072438Y-65332142D01*
X155072438Y-65332142D02*
X155024819Y-65236904D01*
X155024819Y-65236904D02*
X155024819Y-64998809D01*
X155024819Y-64998809D02*
X155072438Y-64903571D01*
X155072438Y-64903571D02*
X155120057Y-64855952D01*
X155120057Y-64855952D02*
X155215295Y-64808333D01*
X155215295Y-64808333D02*
X155310533Y-64808333D01*
X155310533Y-64808333D02*
X155453390Y-64855952D01*
X155453390Y-64855952D02*
X156024819Y-65427380D01*
X156024819Y-65427380D02*
X156024819Y-64808333D01*
X154229762Y-74579819D02*
X154229762Y-73579819D01*
X154229762Y-73579819D02*
X154563095Y-74294104D01*
X154563095Y-74294104D02*
X154896428Y-73579819D01*
X154896428Y-73579819D02*
X154896428Y-74579819D01*
X155372619Y-74579819D02*
X155372619Y-73579819D01*
X155372619Y-73579819D02*
X155753571Y-73579819D01*
X155753571Y-73579819D02*
X155848809Y-73627438D01*
X155848809Y-73627438D02*
X155896428Y-73675057D01*
X155896428Y-73675057D02*
X155944047Y-73770295D01*
X155944047Y-73770295D02*
X155944047Y-73913152D01*
X155944047Y-73913152D02*
X155896428Y-74008390D01*
X155896428Y-74008390D02*
X155848809Y-74056009D01*
X155848809Y-74056009D02*
X155753571Y-74103628D01*
X155753571Y-74103628D02*
X155372619Y-74103628D01*
X156372619Y-74579819D02*
X156372619Y-73579819D01*
X156372619Y-73579819D02*
X156753571Y-73579819D01*
X156753571Y-73579819D02*
X156848809Y-73627438D01*
X156848809Y-73627438D02*
X156896428Y-73675057D01*
X156896428Y-73675057D02*
X156944047Y-73770295D01*
X156944047Y-73770295D02*
X156944047Y-73913152D01*
X156944047Y-73913152D02*
X156896428Y-74008390D01*
X156896428Y-74008390D02*
X156848809Y-74056009D01*
X156848809Y-74056009D02*
X156753571Y-74103628D01*
X156753571Y-74103628D02*
X156372619Y-74103628D01*
X157229762Y-73579819D02*
X157801190Y-73579819D01*
X157515476Y-74579819D02*
X157515476Y-73579819D01*
X157896429Y-74675057D02*
X158658333Y-74675057D01*
X159467857Y-74579819D02*
X159134524Y-74103628D01*
X158896429Y-74579819D02*
X158896429Y-73579819D01*
X158896429Y-73579819D02*
X159277381Y-73579819D01*
X159277381Y-73579819D02*
X159372619Y-73627438D01*
X159372619Y-73627438D02*
X159420238Y-73675057D01*
X159420238Y-73675057D02*
X159467857Y-73770295D01*
X159467857Y-73770295D02*
X159467857Y-73913152D01*
X159467857Y-73913152D02*
X159420238Y-74008390D01*
X159420238Y-74008390D02*
X159372619Y-74056009D01*
X159372619Y-74056009D02*
X159277381Y-74103628D01*
X159277381Y-74103628D02*
X158896429Y-74103628D01*
X146918810Y-87614819D02*
X146918810Y-86614819D01*
X147347381Y-86710057D02*
X147395000Y-86662438D01*
X147395000Y-86662438D02*
X147490238Y-86614819D01*
X147490238Y-86614819D02*
X147728333Y-86614819D01*
X147728333Y-86614819D02*
X147823571Y-86662438D01*
X147823571Y-86662438D02*
X147871190Y-86710057D01*
X147871190Y-86710057D02*
X147918809Y-86805295D01*
X147918809Y-86805295D02*
X147918809Y-86900533D01*
X147918809Y-86900533D02*
X147871190Y-87043390D01*
X147871190Y-87043390D02*
X147299762Y-87614819D01*
X147299762Y-87614819D02*
X147918809Y-87614819D01*
X148918809Y-87519580D02*
X148871190Y-87567200D01*
X148871190Y-87567200D02*
X148728333Y-87614819D01*
X148728333Y-87614819D02*
X148633095Y-87614819D01*
X148633095Y-87614819D02*
X148490238Y-87567200D01*
X148490238Y-87567200D02*
X148395000Y-87471961D01*
X148395000Y-87471961D02*
X148347381Y-87376723D01*
X148347381Y-87376723D02*
X148299762Y-87186247D01*
X148299762Y-87186247D02*
X148299762Y-87043390D01*
X148299762Y-87043390D02*
X148347381Y-86852914D01*
X148347381Y-86852914D02*
X148395000Y-86757676D01*
X148395000Y-86757676D02*
X148490238Y-86662438D01*
X148490238Y-86662438D02*
X148633095Y-86614819D01*
X148633095Y-86614819D02*
X148728333Y-86614819D01*
X148728333Y-86614819D02*
X148871190Y-86662438D01*
X148871190Y-86662438D02*
X148918809Y-86710057D01*
X140624523Y-70599819D02*
X140148333Y-70599819D01*
X140148333Y-70599819D02*
X140100714Y-71076009D01*
X140100714Y-71076009D02*
X140148333Y-71028390D01*
X140148333Y-71028390D02*
X140243571Y-70980771D01*
X140243571Y-70980771D02*
X140481666Y-70980771D01*
X140481666Y-70980771D02*
X140576904Y-71028390D01*
X140576904Y-71028390D02*
X140624523Y-71076009D01*
X140624523Y-71076009D02*
X140672142Y-71171247D01*
X140672142Y-71171247D02*
X140672142Y-71409342D01*
X140672142Y-71409342D02*
X140624523Y-71504580D01*
X140624523Y-71504580D02*
X140576904Y-71552200D01*
X140576904Y-71552200D02*
X140481666Y-71599819D01*
X140481666Y-71599819D02*
X140243571Y-71599819D01*
X140243571Y-71599819D02*
X140148333Y-71552200D01*
X140148333Y-71552200D02*
X140100714Y-71504580D01*
X140957857Y-70599819D02*
X141291190Y-71599819D01*
X141291190Y-71599819D02*
X141624523Y-70599819D01*
X92010000Y-74614819D02*
X92010000Y-73614819D01*
X92010000Y-73614819D02*
X92343333Y-74329104D01*
X92343333Y-74329104D02*
X92676666Y-73614819D01*
X92676666Y-73614819D02*
X92676666Y-74614819D01*
X93152857Y-74614819D02*
X93152857Y-73614819D01*
X93152857Y-73614819D02*
X93533809Y-73614819D01*
X93533809Y-73614819D02*
X93629047Y-73662438D01*
X93629047Y-73662438D02*
X93676666Y-73710057D01*
X93676666Y-73710057D02*
X93724285Y-73805295D01*
X93724285Y-73805295D02*
X93724285Y-73948152D01*
X93724285Y-73948152D02*
X93676666Y-74043390D01*
X93676666Y-74043390D02*
X93629047Y-74091009D01*
X93629047Y-74091009D02*
X93533809Y-74138628D01*
X93533809Y-74138628D02*
X93152857Y-74138628D01*
X94152857Y-74614819D02*
X94152857Y-73614819D01*
X94152857Y-73614819D02*
X94533809Y-73614819D01*
X94533809Y-73614819D02*
X94629047Y-73662438D01*
X94629047Y-73662438D02*
X94676666Y-73710057D01*
X94676666Y-73710057D02*
X94724285Y-73805295D01*
X94724285Y-73805295D02*
X94724285Y-73948152D01*
X94724285Y-73948152D02*
X94676666Y-74043390D01*
X94676666Y-74043390D02*
X94629047Y-74091009D01*
X94629047Y-74091009D02*
X94533809Y-74138628D01*
X94533809Y-74138628D02*
X94152857Y-74138628D01*
X95010000Y-73614819D02*
X95581428Y-73614819D01*
X95295714Y-74614819D02*
X95295714Y-73614819D01*
X95676667Y-74710057D02*
X96438571Y-74710057D01*
X97152857Y-74614819D02*
X96676667Y-74614819D01*
X96676667Y-74614819D02*
X96676667Y-73614819D01*
X127998095Y-110004819D02*
X128331428Y-111004819D01*
X128331428Y-111004819D02*
X128664761Y-110004819D01*
X128998095Y-110481009D02*
X129331428Y-110481009D01*
X129474285Y-111004819D02*
X128998095Y-111004819D01*
X128998095Y-111004819D02*
X128998095Y-110004819D01*
X128998095Y-110004819D02*
X129474285Y-110004819D01*
X129855238Y-110957200D02*
X129998095Y-111004819D01*
X129998095Y-111004819D02*
X130236190Y-111004819D01*
X130236190Y-111004819D02*
X130331428Y-110957200D01*
X130331428Y-110957200D02*
X130379047Y-110909580D01*
X130379047Y-110909580D02*
X130426666Y-110814342D01*
X130426666Y-110814342D02*
X130426666Y-110719104D01*
X130426666Y-110719104D02*
X130379047Y-110623866D01*
X130379047Y-110623866D02*
X130331428Y-110576247D01*
X130331428Y-110576247D02*
X130236190Y-110528628D01*
X130236190Y-110528628D02*
X130045714Y-110481009D01*
X130045714Y-110481009D02*
X129950476Y-110433390D01*
X129950476Y-110433390D02*
X129902857Y-110385771D01*
X129902857Y-110385771D02*
X129855238Y-110290533D01*
X129855238Y-110290533D02*
X129855238Y-110195295D01*
X129855238Y-110195295D02*
X129902857Y-110100057D01*
X129902857Y-110100057D02*
X129950476Y-110052438D01*
X129950476Y-110052438D02*
X130045714Y-110004819D01*
X130045714Y-110004819D02*
X130283809Y-110004819D01*
X130283809Y-110004819D02*
X130426666Y-110052438D01*
X131426666Y-110909580D02*
X131379047Y-110957200D01*
X131379047Y-110957200D02*
X131236190Y-111004819D01*
X131236190Y-111004819D02*
X131140952Y-111004819D01*
X131140952Y-111004819D02*
X130998095Y-110957200D01*
X130998095Y-110957200D02*
X130902857Y-110861961D01*
X130902857Y-110861961D02*
X130855238Y-110766723D01*
X130855238Y-110766723D02*
X130807619Y-110576247D01*
X130807619Y-110576247D02*
X130807619Y-110433390D01*
X130807619Y-110433390D02*
X130855238Y-110242914D01*
X130855238Y-110242914D02*
X130902857Y-110147676D01*
X130902857Y-110147676D02*
X130998095Y-110052438D01*
X130998095Y-110052438D02*
X131140952Y-110004819D01*
X131140952Y-110004819D02*
X131236190Y-110004819D01*
X131236190Y-110004819D02*
X131379047Y-110052438D01*
X131379047Y-110052438D02*
X131426666Y-110100057D01*
X117328810Y-70589819D02*
X117995476Y-70589819D01*
X117995476Y-70589819D02*
X117566905Y-71589819D01*
X118376429Y-71494580D02*
X118424048Y-71542200D01*
X118424048Y-71542200D02*
X118376429Y-71589819D01*
X118376429Y-71589819D02*
X118328810Y-71542200D01*
X118328810Y-71542200D02*
X118376429Y-71494580D01*
X118376429Y-71494580D02*
X118376429Y-71589819D01*
X119281190Y-70923152D02*
X119281190Y-71589819D01*
X119043095Y-70542200D02*
X118805000Y-71256485D01*
X118805000Y-71256485D02*
X119424047Y-71256485D01*
X119662143Y-70589819D02*
X119995476Y-71589819D01*
X119995476Y-71589819D02*
X120328809Y-70589819D01*
D13*
%TO.C,J13*%
X115965000Y-85985000D02*
X117295000Y-85985000D01*
X115965000Y-87315000D02*
X115965000Y-85985000D01*
X115965000Y-88585000D02*
X115965000Y-103885000D01*
X115965000Y-88585000D02*
X118625000Y-88585000D01*
X115965000Y-103885000D02*
X118625000Y-103885000D01*
X118625000Y-88585000D02*
X118625000Y-103885000D01*
%TO.C,J16*%
X135665000Y-88540000D02*
X136995000Y-88540000D01*
X135665000Y-89870000D02*
X135665000Y-88540000D01*
X135665000Y-91140000D02*
X135665000Y-101360000D01*
X135665000Y-91140000D02*
X138325000Y-91140000D01*
X135665000Y-101360000D02*
X138325000Y-101360000D01*
X138325000Y-91140000D02*
X138325000Y-101360000D01*
%TO.C,J9*%
X107989999Y-44230000D02*
X109319999Y-44230000D01*
X107989999Y-45560000D02*
X107989999Y-44230000D01*
X110589999Y-44230000D02*
X128429999Y-44230000D01*
X110589999Y-46890000D02*
X110589999Y-44230000D01*
X110589999Y-46890000D02*
X128429999Y-46890000D01*
X128429999Y-46890000D02*
X128429999Y-44230000D01*
D14*
%TO.C,G\u002A\u002A\u002A*%
G36*
X104593949Y-96650536D02*
G01*
X104612563Y-96704884D01*
X104595007Y-96750120D01*
X104554051Y-96777559D01*
X104502464Y-96778517D01*
X104454109Y-96745646D01*
X104435169Y-96698537D01*
X104447618Y-96666118D01*
X104495498Y-96624360D01*
X104551541Y-96620373D01*
X104593949Y-96650536D01*
G37*
G36*
X107114373Y-96650536D02*
G01*
X107132987Y-96704884D01*
X107115431Y-96750120D01*
X107074475Y-96777559D01*
X107022888Y-96778517D01*
X106974533Y-96745646D01*
X106955593Y-96698537D01*
X106968042Y-96666118D01*
X107015922Y-96624360D01*
X107071964Y-96620373D01*
X107114373Y-96650536D01*
G37*
G36*
X104590397Y-97139220D02*
G01*
X104589937Y-97256923D01*
X104587393Y-97334453D01*
X104581018Y-97380575D01*
X104569069Y-97404053D01*
X104549798Y-97413654D01*
X104535230Y-97416225D01*
X104486622Y-97409329D01*
X104466998Y-97390013D01*
X104462098Y-97352052D01*
X104459537Y-97277608D01*
X104459582Y-97179094D01*
X104460990Y-97113008D01*
X104464629Y-97002444D01*
X104469466Y-96931842D01*
X104478019Y-96892240D01*
X104492804Y-96874676D01*
X104516338Y-96870189D01*
X104529222Y-96870048D01*
X104590397Y-96870048D01*
X104590397Y-97139220D01*
G37*
G36*
X107110821Y-97139220D02*
G01*
X107110361Y-97256923D01*
X107107817Y-97334453D01*
X107101442Y-97380575D01*
X107089493Y-97404053D01*
X107070222Y-97413654D01*
X107055654Y-97416225D01*
X107007046Y-97409329D01*
X106987422Y-97390013D01*
X106982522Y-97352052D01*
X106979961Y-97277608D01*
X106980006Y-97179094D01*
X106981414Y-97113008D01*
X106985053Y-97002444D01*
X106989890Y-96931842D01*
X106998443Y-96892240D01*
X107013228Y-96874676D01*
X107036762Y-96870189D01*
X107049646Y-96870048D01*
X107110821Y-96870048D01*
X107110821Y-97139220D01*
G37*
G36*
X106193191Y-93746923D02*
G01*
X106193191Y-93939502D01*
X106080280Y-93952229D01*
X105954471Y-93985556D01*
X105862495Y-94052416D01*
X105809168Y-94143920D01*
X105797322Y-94203653D01*
X105787899Y-94303685D01*
X105781475Y-94435409D01*
X105778626Y-94590218D01*
X105778580Y-94600443D01*
X105777199Y-94973613D01*
X105581438Y-94973613D01*
X105385677Y-94973613D01*
X105385677Y-94276214D01*
X105385677Y-93578815D01*
X105569203Y-93578815D01*
X105752729Y-93578815D01*
X105753141Y-93695048D01*
X105753553Y-93811281D01*
X105803953Y-93732592D01*
X105886219Y-93640787D01*
X105990242Y-93578327D01*
X106100587Y-93554373D01*
X106104316Y-93554345D01*
X106193191Y-93554345D01*
X106193191Y-93746923D01*
G37*
G36*
X106878355Y-96894518D02*
G01*
X106891574Y-96940109D01*
X106867487Y-96981619D01*
X106816447Y-97003841D01*
X106803392Y-97004634D01*
X106764800Y-97012910D01*
X106738591Y-97043224D01*
X106721357Y-97103800D01*
X106709689Y-97202864D01*
X106707064Y-97237100D01*
X106698803Y-97328253D01*
X106687778Y-97381249D01*
X106670233Y-97406864D01*
X106644882Y-97415541D01*
X106596258Y-97413904D01*
X106577589Y-97405345D01*
X106569328Y-97374080D01*
X106563363Y-97307309D01*
X106560804Y-97218449D01*
X106560787Y-97202434D01*
X106564721Y-97091432D01*
X106577110Y-97017536D01*
X106600011Y-96969333D01*
X106603610Y-96964675D01*
X106674564Y-96900116D01*
X106752427Y-96865043D01*
X106824860Y-96862607D01*
X106878355Y-96894518D01*
G37*
G36*
X104531473Y-95776537D02*
G01*
X104542850Y-95807951D01*
X104524124Y-95859912D01*
X104473629Y-95936298D01*
X104389695Y-96040983D01*
X104353028Y-96083962D01*
X104250005Y-96198393D01*
X104171091Y-96273937D01*
X104113400Y-96312532D01*
X104074047Y-96316114D01*
X104050347Y-96287141D01*
X104045732Y-96249959D01*
X104043390Y-96176186D01*
X104043562Y-96078129D01*
X104044998Y-96011852D01*
X104048637Y-95901288D01*
X104053474Y-95830686D01*
X104062027Y-95791084D01*
X104076812Y-95773520D01*
X104100346Y-95769033D01*
X104113230Y-95768892D01*
X104148770Y-95773175D01*
X104168952Y-95793951D01*
X104180282Y-95843116D01*
X104186640Y-95903092D01*
X104198875Y-96037292D01*
X104320621Y-95895995D01*
X104398198Y-95813352D01*
X104455509Y-95770026D01*
X104491662Y-95761795D01*
X104531473Y-95776537D01*
G37*
G36*
X103545326Y-93166624D02*
G01*
X103538181Y-93370819D01*
X103287930Y-93383054D01*
X103151629Y-93392475D01*
X103056177Y-93409221D01*
X102993497Y-93439402D01*
X102955512Y-93489125D01*
X102934146Y-93564499D01*
X102922434Y-93659478D01*
X102907116Y-93823516D01*
X103229756Y-93823516D01*
X103552396Y-93823516D01*
X103545289Y-94025395D01*
X103538181Y-94227273D01*
X103226187Y-94234122D01*
X102914193Y-94240971D01*
X102914193Y-94607292D01*
X102914193Y-94973613D01*
X102704972Y-94973613D01*
X102495752Y-94973613D01*
X102503094Y-94159981D01*
X102510436Y-93346349D01*
X102579081Y-93229568D01*
X102639491Y-93147300D01*
X102714113Y-93072310D01*
X102748519Y-93046042D01*
X102790780Y-93019690D01*
X102831159Y-93001083D01*
X102879427Y-92988598D01*
X102945352Y-92980610D01*
X103038707Y-92975496D01*
X103169260Y-92971633D01*
X103200891Y-92970863D01*
X103552471Y-92962429D01*
X103545326Y-93166624D01*
G37*
G36*
X106256642Y-95763588D02*
G01*
X106345425Y-95804413D01*
X106346129Y-95804966D01*
X106400700Y-95861457D01*
X106408746Y-95910564D01*
X106376840Y-95952316D01*
X106341197Y-95968809D01*
X106297112Y-95953721D01*
X106277512Y-95941565D01*
X106196539Y-95909656D01*
X106126058Y-95923590D01*
X106073114Y-95980186D01*
X106050823Y-96031298D01*
X106057873Y-96072949D01*
X106078978Y-96108654D01*
X106135344Y-96161295D01*
X106205300Y-96167187D01*
X106279820Y-96133049D01*
X106330102Y-96108123D01*
X106366429Y-96116023D01*
X106376840Y-96123811D01*
X106409679Y-96171462D01*
X106402118Y-96218768D01*
X106362522Y-96261252D01*
X106299255Y-96294442D01*
X106220682Y-96313863D01*
X106135169Y-96315040D01*
X106055868Y-96295488D01*
X105973561Y-96238318D01*
X105920616Y-96153074D01*
X105899572Y-96052616D01*
X105912966Y-95949804D01*
X105963336Y-95857497D01*
X105968296Y-95851780D01*
X106052171Y-95789242D01*
X106153588Y-95759188D01*
X106256642Y-95763588D01*
G37*
G36*
X106682594Y-93395289D02*
G01*
X106682594Y-93578815D01*
X106817179Y-93578815D01*
X106951765Y-93578815D01*
X106951765Y-93762341D01*
X106951765Y-93945867D01*
X106817179Y-93945867D01*
X106682594Y-93945867D01*
X106682594Y-94227273D01*
X106685578Y-94373002D01*
X106696698Y-94476750D01*
X106719203Y-94545234D01*
X106756342Y-94585170D01*
X106811365Y-94603272D01*
X106866120Y-94606561D01*
X106951765Y-94606561D01*
X106951765Y-94790087D01*
X106951765Y-94973613D01*
X106774357Y-94972531D01*
X106641595Y-94964486D01*
X106544272Y-94940861D01*
X106511303Y-94925867D01*
X106439808Y-94872801D01*
X106380624Y-94804737D01*
X106376717Y-94798480D01*
X106362847Y-94772552D01*
X106351765Y-94742446D01*
X106343090Y-94702488D01*
X106336437Y-94647008D01*
X106331423Y-94570332D01*
X106327666Y-94466789D01*
X106324781Y-94330707D01*
X106322387Y-94156414D01*
X106320354Y-93964220D01*
X106312931Y-93211763D01*
X106497762Y-93211763D01*
X106682594Y-93211763D01*
X106682594Y-93395289D01*
G37*
G36*
X105753841Y-96870075D02*
G01*
X105796982Y-96900425D01*
X105813514Y-96916374D01*
X105877951Y-96980811D01*
X105829967Y-97047780D01*
X105760020Y-97133189D01*
X105693873Y-97192064D01*
X105639583Y-97217948D01*
X105619388Y-97216494D01*
X105586330Y-97182517D01*
X105588507Y-97128940D01*
X105622071Y-97073703D01*
X105647034Y-97030056D01*
X105636340Y-97006426D01*
X105597070Y-97014109D01*
X105588017Y-97019370D01*
X105526844Y-97075730D01*
X105513261Y-97139684D01*
X105533315Y-97194488D01*
X105588418Y-97253742D01*
X105659070Y-97267579D01*
X105739169Y-97235718D01*
X105790325Y-97209830D01*
X105826545Y-97216226D01*
X105838497Y-97224967D01*
X105871336Y-97272618D01*
X105863775Y-97319924D01*
X105824179Y-97362408D01*
X105760912Y-97395598D01*
X105682339Y-97415019D01*
X105596826Y-97416196D01*
X105517525Y-97396644D01*
X105435218Y-97339474D01*
X105382273Y-97254230D01*
X105361229Y-97153772D01*
X105374623Y-97050960D01*
X105424993Y-96958653D01*
X105429953Y-96952936D01*
X105485874Y-96902043D01*
X105549977Y-96875184D01*
X105623888Y-96863966D01*
X105702856Y-96859777D01*
X105753841Y-96870075D01*
G37*
G36*
X106316654Y-96870075D02*
G01*
X106359795Y-96900425D01*
X106376327Y-96916374D01*
X106440764Y-96980811D01*
X106392780Y-97047780D01*
X106322833Y-97133189D01*
X106256686Y-97192064D01*
X106202396Y-97217948D01*
X106182201Y-97216494D01*
X106149143Y-97182517D01*
X106151320Y-97128940D01*
X106184884Y-97073703D01*
X106209847Y-97030056D01*
X106199153Y-97006426D01*
X106159883Y-97014109D01*
X106150830Y-97019370D01*
X106089657Y-97075730D01*
X106076074Y-97139684D01*
X106096128Y-97194488D01*
X106151231Y-97253742D01*
X106221884Y-97267579D01*
X106301982Y-97235718D01*
X106353138Y-97209830D01*
X106389358Y-97216226D01*
X106401310Y-97224967D01*
X106434149Y-97272618D01*
X106426588Y-97319924D01*
X106386992Y-97362408D01*
X106323725Y-97395598D01*
X106245152Y-97415019D01*
X106159639Y-97416196D01*
X106080338Y-97396644D01*
X105998031Y-97339474D01*
X105945086Y-97254230D01*
X105924042Y-97153772D01*
X105937436Y-97050960D01*
X105987806Y-96958653D01*
X105992766Y-96952936D01*
X106048687Y-96902043D01*
X106112790Y-96875184D01*
X106186701Y-96863966D01*
X106265669Y-96859777D01*
X106316654Y-96870075D01*
G37*
G36*
X106879467Y-95768919D02*
G01*
X106922608Y-95799269D01*
X106939140Y-95815218D01*
X107003577Y-95879655D01*
X106955593Y-95946624D01*
X106885647Y-96032033D01*
X106819499Y-96090908D01*
X106765209Y-96116791D01*
X106745014Y-96115338D01*
X106711956Y-96081361D01*
X106714133Y-96027784D01*
X106747697Y-95972547D01*
X106772660Y-95928900D01*
X106761967Y-95905270D01*
X106722696Y-95912953D01*
X106713643Y-95918214D01*
X106652470Y-95974574D01*
X106638887Y-96038528D01*
X106658941Y-96093332D01*
X106714044Y-96152586D01*
X106784697Y-96166423D01*
X106864795Y-96134562D01*
X106915951Y-96108674D01*
X106952172Y-96115070D01*
X106964123Y-96123811D01*
X106996963Y-96171462D01*
X106989402Y-96218768D01*
X106949805Y-96261252D01*
X106886538Y-96294442D01*
X106807965Y-96313863D01*
X106722453Y-96315040D01*
X106643151Y-96295488D01*
X106560844Y-96238318D01*
X106507900Y-96153074D01*
X106486855Y-96052616D01*
X106500249Y-95949804D01*
X106550619Y-95857497D01*
X106555579Y-95851780D01*
X106611500Y-95800887D01*
X106675603Y-95774028D01*
X106749514Y-95762810D01*
X106828482Y-95758621D01*
X106879467Y-95768919D01*
G37*
G36*
X103493128Y-96884353D02*
G01*
X103553303Y-96930345D01*
X103588867Y-96968497D01*
X103609885Y-97004154D01*
X103619570Y-97050844D01*
X103621137Y-97122093D01*
X103618713Y-97205634D01*
X103614557Y-97304820D01*
X103608460Y-97364886D01*
X103597119Y-97395634D01*
X103577233Y-97406866D01*
X103550416Y-97408391D01*
X103518933Y-97405563D01*
X103499626Y-97390186D01*
X103488302Y-97351925D01*
X103480770Y-97280442D01*
X103477006Y-97227387D01*
X103466838Y-97123881D01*
X103451697Y-97059556D01*
X103429016Y-97024707D01*
X103421948Y-97019516D01*
X103367535Y-97001488D01*
X103326940Y-97025976D01*
X103299006Y-97094692D01*
X103282575Y-97209344D01*
X103281245Y-97227387D01*
X103273331Y-97321453D01*
X103263061Y-97377099D01*
X103246963Y-97404831D01*
X103221565Y-97415157D01*
X103219063Y-97415541D01*
X103170439Y-97413904D01*
X103151770Y-97405345D01*
X103143600Y-97374214D01*
X103137501Y-97307229D01*
X103134546Y-97217467D01*
X103134424Y-97194434D01*
X103135736Y-97095439D01*
X103142230Y-97031150D01*
X103157741Y-96987354D01*
X103186105Y-96949836D01*
X103205952Y-96929341D01*
X103296307Y-96869356D01*
X103395483Y-96854370D01*
X103493128Y-96884353D01*
G37*
G36*
X105108157Y-96884353D02*
G01*
X105168332Y-96930345D01*
X105203896Y-96968497D01*
X105224914Y-97004154D01*
X105234599Y-97050844D01*
X105236166Y-97122093D01*
X105233742Y-97205634D01*
X105229586Y-97304820D01*
X105223489Y-97364886D01*
X105212148Y-97395634D01*
X105192262Y-97406866D01*
X105165445Y-97408391D01*
X105133962Y-97405563D01*
X105114655Y-97390186D01*
X105103331Y-97351925D01*
X105095799Y-97280442D01*
X105092035Y-97227387D01*
X105081866Y-97123881D01*
X105066726Y-97059556D01*
X105044044Y-97024707D01*
X105036977Y-97019516D01*
X104982564Y-97001488D01*
X104941969Y-97025976D01*
X104914035Y-97094692D01*
X104897603Y-97209344D01*
X104896274Y-97227387D01*
X104888360Y-97321453D01*
X104878090Y-97377099D01*
X104861992Y-97404831D01*
X104836594Y-97415157D01*
X104834092Y-97415541D01*
X104785468Y-97413904D01*
X104766799Y-97405345D01*
X104758629Y-97374214D01*
X104752530Y-97307229D01*
X104749575Y-97217467D01*
X104749453Y-97194434D01*
X104750765Y-97095439D01*
X104757259Y-97031150D01*
X104772770Y-96987354D01*
X104801134Y-96949836D01*
X104820981Y-96929341D01*
X104911336Y-96869356D01*
X105010512Y-96854370D01*
X105108157Y-96884353D01*
G37*
G36*
X105646500Y-95783197D02*
G01*
X105706674Y-95829189D01*
X105742239Y-95867341D01*
X105763257Y-95902998D01*
X105772942Y-95949688D01*
X105774509Y-96020937D01*
X105772085Y-96104478D01*
X105767929Y-96203664D01*
X105761832Y-96263730D01*
X105750491Y-96294478D01*
X105730605Y-96305710D01*
X105703788Y-96307235D01*
X105672305Y-96304407D01*
X105652997Y-96289030D01*
X105641674Y-96250769D01*
X105634142Y-96179286D01*
X105630378Y-96126231D01*
X105620209Y-96022725D01*
X105605069Y-95958400D01*
X105582387Y-95923551D01*
X105575320Y-95918360D01*
X105520907Y-95900332D01*
X105480312Y-95924820D01*
X105452378Y-95993535D01*
X105435946Y-96108188D01*
X105434617Y-96126231D01*
X105426703Y-96220297D01*
X105416433Y-96275943D01*
X105400335Y-96303675D01*
X105374937Y-96314001D01*
X105372435Y-96314385D01*
X105323811Y-96312748D01*
X105305142Y-96304189D01*
X105296972Y-96273057D01*
X105290872Y-96206073D01*
X105287918Y-96116311D01*
X105287796Y-96093278D01*
X105289108Y-95994283D01*
X105295602Y-95929994D01*
X105311113Y-95886198D01*
X105339477Y-95848680D01*
X105359324Y-95828185D01*
X105449679Y-95768200D01*
X105548855Y-95753214D01*
X105646500Y-95783197D01*
G37*
G36*
X107604111Y-96884353D02*
G01*
X107664285Y-96930345D01*
X107699850Y-96968497D01*
X107720867Y-97004154D01*
X107730553Y-97050844D01*
X107732119Y-97122093D01*
X107729696Y-97205634D01*
X107725540Y-97304820D01*
X107719443Y-97364886D01*
X107708101Y-97395634D01*
X107688215Y-97406866D01*
X107661399Y-97408391D01*
X107629916Y-97405563D01*
X107610608Y-97390186D01*
X107599285Y-97351925D01*
X107591753Y-97280442D01*
X107587989Y-97227387D01*
X107577820Y-97123881D01*
X107562680Y-97059556D01*
X107539998Y-97024707D01*
X107532931Y-97019516D01*
X107478517Y-97001488D01*
X107437923Y-97025976D01*
X107409988Y-97094692D01*
X107393557Y-97209344D01*
X107392228Y-97227387D01*
X107384314Y-97321453D01*
X107374044Y-97377099D01*
X107357946Y-97404831D01*
X107332548Y-97415157D01*
X107330045Y-97415541D01*
X107281422Y-97413904D01*
X107262752Y-97405345D01*
X107254583Y-97374214D01*
X107248483Y-97307229D01*
X107245529Y-97217467D01*
X107245407Y-97194434D01*
X107246719Y-97095439D01*
X107253213Y-97031150D01*
X107268724Y-96987354D01*
X107297087Y-96949836D01*
X107316935Y-96929341D01*
X107407290Y-96869356D01*
X107506466Y-96854370D01*
X107604111Y-96884353D01*
G37*
G36*
X107519213Y-94045917D02*
G01*
X107526813Y-94513019D01*
X107595471Y-94572025D01*
X107657349Y-94611910D01*
X107717091Y-94630797D01*
X107722574Y-94631031D01*
X107780253Y-94615413D01*
X107843325Y-94577285D01*
X107849678Y-94572025D01*
X107918336Y-94513019D01*
X107925936Y-94045917D01*
X107933537Y-93578815D01*
X108115580Y-93578815D01*
X108297623Y-93578815D01*
X108297623Y-94123657D01*
X108296946Y-94321527D01*
X108293764Y-94477044D01*
X108286352Y-94596788D01*
X108272983Y-94687341D01*
X108251932Y-94755283D01*
X108221472Y-94807195D01*
X108179878Y-94849659D01*
X108125423Y-94889254D01*
X108091094Y-94911117D01*
X108026050Y-94947845D01*
X107964594Y-94970567D01*
X107890212Y-94983309D01*
X107786387Y-94990096D01*
X107763334Y-94990994D01*
X107616368Y-94990452D01*
X107504649Y-94977389D01*
X107462826Y-94965746D01*
X107326058Y-94896532D01*
X107226793Y-94806789D01*
X107187248Y-94744048D01*
X107173783Y-94708069D01*
X107163634Y-94659989D01*
X107156374Y-94593075D01*
X107151574Y-94500593D01*
X107148806Y-94375812D01*
X107147641Y-94211998D01*
X107147526Y-94119577D01*
X107147526Y-93578815D01*
X107329569Y-93578815D01*
X107511612Y-93578815D01*
X107519213Y-94045917D01*
G37*
G36*
X100705352Y-92801421D02*
G01*
X100905398Y-92871889D01*
X101112863Y-92987001D01*
X101325990Y-93146232D01*
X101435219Y-93243249D01*
X101629732Y-93439964D01*
X101785232Y-93631618D01*
X101909310Y-93828073D01*
X101957265Y-93921397D01*
X102000592Y-94015780D01*
X102026857Y-94090216D01*
X102040269Y-94163966D01*
X102045038Y-94256295D01*
X102045503Y-94325154D01*
X102042379Y-94450393D01*
X102031554Y-94541363D01*
X102010851Y-94612425D01*
X101997374Y-94642454D01*
X101896735Y-94790351D01*
X101752155Y-94916736D01*
X101563664Y-95021586D01*
X101397045Y-95084940D01*
X101351857Y-95097488D01*
X101298252Y-95107693D01*
X101230400Y-95115903D01*
X101142471Y-95122461D01*
X101028637Y-95127713D01*
X100883067Y-95132004D01*
X100699932Y-95135680D01*
X100485532Y-95138920D01*
X99708605Y-95149525D01*
X99708605Y-94416450D01*
X99709363Y-94225385D01*
X99711507Y-94044633D01*
X99714837Y-93881562D01*
X99719159Y-93743541D01*
X99724274Y-93637936D01*
X99729986Y-93572116D01*
X99731438Y-93562979D01*
X99790275Y-93348030D01*
X99878511Y-93159793D01*
X99992526Y-93004083D01*
X100128698Y-92886714D01*
X100167333Y-92863168D01*
X100334560Y-92796534D01*
X100514486Y-92776127D01*
X100705352Y-92801421D01*
G37*
G36*
X99390069Y-96142062D02*
G01*
X99389140Y-96387667D01*
X99386191Y-96590609D01*
X99380509Y-96757147D01*
X99371379Y-96893539D01*
X99358087Y-97006044D01*
X99339920Y-97100923D01*
X99316164Y-97184433D01*
X99286104Y-97262835D01*
X99254399Y-97331493D01*
X99164987Y-97475513D01*
X99050895Y-97601235D01*
X98924938Y-97695185D01*
X98891802Y-97712757D01*
X98770146Y-97753414D01*
X98626399Y-97774408D01*
X98484340Y-97773139D01*
X98423923Y-97763900D01*
X98230036Y-97700633D01*
X98025127Y-97592772D01*
X97812718Y-97442449D01*
X97626302Y-97280434D01*
X97413082Y-97055446D01*
X97244310Y-96823546D01*
X97143031Y-96639058D01*
X97096293Y-96533651D01*
X97068222Y-96444552D01*
X97053135Y-96348734D01*
X97046399Y-96247536D01*
X97043028Y-96141024D01*
X97046653Y-96066250D01*
X97060295Y-96006175D01*
X97086977Y-95943757D01*
X97107265Y-95904228D01*
X97214963Y-95751423D01*
X97361913Y-95624630D01*
X97544631Y-95526020D01*
X97759630Y-95457762D01*
X97854097Y-95439409D01*
X97919368Y-95432808D01*
X98025447Y-95426848D01*
X98164203Y-95421771D01*
X98327506Y-95417820D01*
X98507225Y-95415236D01*
X98695230Y-95414261D01*
X98699212Y-95414260D01*
X99390494Y-95414075D01*
X99390069Y-96142062D01*
G37*
G36*
X109281693Y-93567543D02*
G01*
X109361777Y-93572254D01*
X109420197Y-93583445D01*
X109470587Y-93603846D01*
X109526579Y-93636190D01*
X109532697Y-93639990D01*
X109595223Y-93681053D01*
X109643844Y-93721349D01*
X109680304Y-93767469D01*
X109706346Y-93826004D01*
X109723713Y-93903545D01*
X109734150Y-94006683D01*
X109739399Y-94142009D01*
X109741204Y-94316113D01*
X109741361Y-94428770D01*
X109741361Y-94973613D01*
X109559318Y-94973613D01*
X109377275Y-94973613D01*
X109369674Y-94506511D01*
X109362074Y-94039409D01*
X109293416Y-93980403D01*
X109231538Y-93940518D01*
X109171795Y-93921631D01*
X109166312Y-93921397D01*
X109108634Y-93937014D01*
X109045562Y-93975142D01*
X109039209Y-93980403D01*
X108970551Y-94039409D01*
X108962951Y-94506511D01*
X108955350Y-94973613D01*
X108773307Y-94973613D01*
X108591264Y-94973613D01*
X108591264Y-94428770D01*
X108591933Y-94230945D01*
X108595103Y-94075463D01*
X108602517Y-93955733D01*
X108615919Y-93865165D01*
X108637053Y-93797169D01*
X108667661Y-93745152D01*
X108709488Y-93702524D01*
X108764276Y-93662694D01*
X108799928Y-93639990D01*
X108857164Y-93606367D01*
X108907500Y-93584947D01*
X108964569Y-93572997D01*
X109042004Y-93567787D01*
X109153438Y-93566585D01*
X109166312Y-93566580D01*
X109281693Y-93567543D01*
G37*
G36*
X101139698Y-95428295D02*
G01*
X101367613Y-95465888D01*
X101570374Y-95533764D01*
X101743605Y-95629062D01*
X101882932Y-95748919D01*
X101983980Y-95890473D01*
X102033026Y-96012729D01*
X102058919Y-96194951D01*
X102039048Y-96389391D01*
X101974233Y-96593274D01*
X101865297Y-96803823D01*
X101748846Y-96972702D01*
X101570926Y-97182737D01*
X101381238Y-97365489D01*
X101184582Y-97518285D01*
X100985756Y-97638448D01*
X100789560Y-97723305D01*
X100600794Y-97770180D01*
X100424256Y-97776398D01*
X100333714Y-97761421D01*
X100174953Y-97697578D01*
X100033969Y-97592002D01*
X99914217Y-97449759D01*
X99819152Y-97275913D01*
X99752230Y-97075530D01*
X99717243Y-96857813D01*
X99704139Y-96698757D01*
X99775961Y-96845578D01*
X99831458Y-96940361D01*
X99899719Y-97031714D01*
X99948098Y-97082845D01*
X100080218Y-97172114D01*
X100226189Y-97215234D01*
X100384631Y-97212567D01*
X100554162Y-97164474D01*
X100733402Y-97071317D01*
X100920972Y-96933457D01*
X101080932Y-96786402D01*
X101247141Y-96605793D01*
X101370009Y-96438445D01*
X101451890Y-96280080D01*
X101495134Y-96126426D01*
X101503672Y-96017957D01*
X101481314Y-95851721D01*
X101415674Y-95707933D01*
X101307399Y-95587463D01*
X101157133Y-95491181D01*
X101091168Y-95461920D01*
X100968817Y-95412927D01*
X101139698Y-95428295D01*
G37*
G36*
X104926220Y-95770017D02*
G01*
X104943025Y-95779256D01*
X104994400Y-95785765D01*
X105019311Y-95775019D01*
X105072926Y-95760140D01*
X105101029Y-95764262D01*
X105119255Y-95778589D01*
X105131082Y-95810593D01*
X105137776Y-95868962D01*
X105140605Y-95962385D01*
X105140975Y-96038063D01*
X105139842Y-96156433D01*
X105135597Y-96234585D01*
X105126973Y-96281208D01*
X105112703Y-96304992D01*
X105101029Y-96311865D01*
X105048107Y-96312720D01*
X105019311Y-96301108D01*
X104965078Y-96288733D01*
X104943025Y-96296871D01*
X104860540Y-96322047D01*
X104768391Y-96306506D01*
X104679389Y-96253005D01*
X104661361Y-96236272D01*
X104607941Y-96174706D01*
X104583746Y-96116295D01*
X104578162Y-96038063D01*
X104578476Y-96033812D01*
X104724983Y-96033812D01*
X104745162Y-96105781D01*
X104796080Y-96152583D01*
X104863313Y-96167897D01*
X104932432Y-96145400D01*
X104949405Y-96132151D01*
X104985432Y-96072179D01*
X104984803Y-96004503D01*
X104953328Y-95944651D01*
X104896820Y-95908151D01*
X104863820Y-95903478D01*
X104798850Y-95923528D01*
X104746593Y-95972455D01*
X104724984Y-96033423D01*
X104724983Y-96033812D01*
X104578476Y-96033812D01*
X104584055Y-95958326D01*
X104608807Y-95900128D01*
X104661361Y-95839855D01*
X104747929Y-95778308D01*
X104840486Y-95754110D01*
X104926220Y-95770017D01*
G37*
G36*
X103887521Y-95922353D02*
G01*
X103889585Y-96066764D01*
X103889290Y-96169612D01*
X103885995Y-96238245D01*
X103879063Y-96280011D01*
X103867856Y-96302256D01*
X103853692Y-96311619D01*
X103800187Y-96312670D01*
X103771334Y-96301108D01*
X103717101Y-96288733D01*
X103695048Y-96296871D01*
X103612563Y-96322047D01*
X103520414Y-96306506D01*
X103431412Y-96253005D01*
X103413384Y-96236272D01*
X103359964Y-96174706D01*
X103335769Y-96116295D01*
X103330185Y-96038063D01*
X103330499Y-96033812D01*
X103477006Y-96033812D01*
X103497185Y-96105781D01*
X103548103Y-96152583D01*
X103615336Y-96167897D01*
X103684455Y-96145400D01*
X103701428Y-96132151D01*
X103737456Y-96072179D01*
X103736826Y-96004503D01*
X103705352Y-95944651D01*
X103648843Y-95908151D01*
X103615844Y-95903478D01*
X103550873Y-95923528D01*
X103498616Y-95972455D01*
X103477007Y-96033423D01*
X103477006Y-96033812D01*
X103330499Y-96033812D01*
X103336078Y-95958326D01*
X103360830Y-95900128D01*
X103413384Y-95839855D01*
X103500805Y-95777808D01*
X103594049Y-95754223D01*
X103680878Y-95771647D01*
X103697237Y-95780809D01*
X103719542Y-95786819D01*
X103733609Y-95763684D01*
X103743484Y-95702780D01*
X103746178Y-95676436D01*
X103755537Y-95601617D01*
X103769648Y-95563532D01*
X103795494Y-95550025D01*
X103819588Y-95548661D01*
X103880763Y-95548661D01*
X103887521Y-95922353D01*
G37*
G36*
X107631452Y-95922353D02*
G01*
X107633516Y-96066764D01*
X107633220Y-96169612D01*
X107629926Y-96238245D01*
X107622994Y-96280011D01*
X107611787Y-96302256D01*
X107597623Y-96311619D01*
X107544118Y-96312670D01*
X107515265Y-96301108D01*
X107461032Y-96288733D01*
X107438978Y-96296871D01*
X107356494Y-96322047D01*
X107264344Y-96306506D01*
X107175342Y-96253005D01*
X107157314Y-96236272D01*
X107103895Y-96174706D01*
X107079700Y-96116295D01*
X107074116Y-96038063D01*
X107074430Y-96033812D01*
X107220937Y-96033812D01*
X107241115Y-96105781D01*
X107292034Y-96152583D01*
X107359266Y-96167897D01*
X107428386Y-96145400D01*
X107445359Y-96132151D01*
X107481386Y-96072179D01*
X107480757Y-96004503D01*
X107449282Y-95944651D01*
X107392773Y-95908151D01*
X107359774Y-95903478D01*
X107294804Y-95923528D01*
X107242547Y-95972455D01*
X107220938Y-96033423D01*
X107220937Y-96033812D01*
X107074430Y-96033812D01*
X107080009Y-95958326D01*
X107104761Y-95900128D01*
X107157314Y-95839855D01*
X107244735Y-95777808D01*
X107337980Y-95754223D01*
X107424808Y-95771647D01*
X107441168Y-95780809D01*
X107463473Y-95786819D01*
X107477540Y-95763684D01*
X107487414Y-95702780D01*
X107490108Y-95676436D01*
X107499467Y-95601617D01*
X107513578Y-95563532D01*
X107539425Y-95550025D01*
X107563519Y-95548661D01*
X107624694Y-95548661D01*
X107631452Y-95922353D01*
G37*
G36*
X102892564Y-96674849D02*
G01*
X102954035Y-96678434D01*
X102985944Y-96687892D01*
X102997983Y-96706073D01*
X102999838Y-96735462D01*
X102995625Y-96771419D01*
X102974858Y-96790831D01*
X102925346Y-96800206D01*
X102871370Y-96804034D01*
X102796622Y-96810009D01*
X102758492Y-96821736D01*
X102744689Y-96846704D01*
X102742902Y-96882283D01*
X102745932Y-96923683D01*
X102763216Y-96945707D01*
X102807045Y-96955843D01*
X102871370Y-96960532D01*
X102946369Y-96966857D01*
X102984624Y-96978948D01*
X102998325Y-97003314D01*
X102999838Y-97029104D01*
X102995625Y-97065060D01*
X102974858Y-97084472D01*
X102925346Y-97093847D01*
X102871370Y-97097676D01*
X102796716Y-97103320D01*
X102758621Y-97114858D01*
X102744784Y-97140952D01*
X102742902Y-97188160D01*
X102744984Y-97236563D01*
X102759432Y-97262033D01*
X102798547Y-97273234D01*
X102871370Y-97278644D01*
X102946369Y-97284968D01*
X102984624Y-97297060D01*
X102998325Y-97321426D01*
X102999838Y-97347216D01*
X102997318Y-97378282D01*
X102982934Y-97397064D01*
X102946459Y-97407320D01*
X102877660Y-97412805D01*
X102813989Y-97415470D01*
X102707316Y-97416555D01*
X102640133Y-97409188D01*
X102603538Y-97392214D01*
X102599167Y-97387638D01*
X102586141Y-97349504D01*
X102578342Y-97270969D01*
X102575597Y-97149094D01*
X102577020Y-97013508D01*
X102583846Y-96674287D01*
X102791842Y-96674287D01*
X102892564Y-96674849D01*
G37*
G36*
X110796496Y-93563975D02*
G01*
X110949895Y-93603343D01*
X111083431Y-93680089D01*
X111159878Y-93747512D01*
X111214565Y-93806414D01*
X111256367Y-93864263D01*
X111286983Y-93928667D01*
X111308114Y-94007238D01*
X111321459Y-94107584D01*
X111328719Y-94237315D01*
X111331592Y-94404041D01*
X111331919Y-94517637D01*
X111331919Y-94973613D01*
X111149938Y-94973613D01*
X110967957Y-94973613D01*
X110960294Y-94531088D01*
X110952632Y-94088564D01*
X110874186Y-94018527D01*
X110801882Y-93968910D01*
X110723221Y-93935568D01*
X110708605Y-93932144D01*
X110596800Y-93933215D01*
X110497394Y-93974017D01*
X110416756Y-94045713D01*
X110361253Y-94139467D01*
X110337254Y-94246441D01*
X110351128Y-94357800D01*
X110369351Y-94402893D01*
X110441243Y-94505721D01*
X110535387Y-94566833D01*
X110654491Y-94587315D01*
X110788484Y-94571203D01*
X110869036Y-94553282D01*
X110861894Y-94757330D01*
X110854752Y-94961378D01*
X110658991Y-94966102D01*
X110554861Y-94964727D01*
X110460183Y-94956745D01*
X110393329Y-94943808D01*
X110387070Y-94941632D01*
X110233968Y-94857986D01*
X110107986Y-94738474D01*
X110016765Y-94591505D01*
X109982708Y-94496673D01*
X109965100Y-94374619D01*
X109967214Y-94230514D01*
X109987104Y-94085606D01*
X110022821Y-93961143D01*
X110034143Y-93935407D01*
X110131554Y-93781830D01*
X110256085Y-93668664D01*
X110408939Y-93595127D01*
X110591318Y-93560441D01*
X110614318Y-93558903D01*
X110796496Y-93563975D01*
G37*
G36*
X103172086Y-95561690D02*
G01*
X103172304Y-95561870D01*
X103188231Y-95599318D01*
X103199975Y-95674209D01*
X103207537Y-95775223D01*
X103210917Y-95891042D01*
X103210114Y-96010348D01*
X103205129Y-96121822D01*
X103195962Y-96214145D01*
X103182612Y-96275999D01*
X103172305Y-96294024D01*
X103117306Y-96316272D01*
X103067628Y-96300908D01*
X103041164Y-96253479D01*
X103041148Y-96253365D01*
X103021189Y-96212331D01*
X102968681Y-96193967D01*
X102955502Y-96192439D01*
X102900372Y-96180379D01*
X102879542Y-96150674D01*
X102877488Y-96123709D01*
X102885837Y-96079990D01*
X102920459Y-96060181D01*
X102957016Y-96054866D01*
X103007409Y-96046394D01*
X103030229Y-96024103D01*
X103036341Y-95973069D01*
X103036544Y-95945624D01*
X103034316Y-95884348D01*
X103025216Y-95864477D01*
X103005618Y-95878585D01*
X103004447Y-95879882D01*
X102975155Y-95913335D01*
X102922769Y-95973843D01*
X102856029Y-96051290D01*
X102814830Y-96099239D01*
X102725200Y-96202129D01*
X102660260Y-96270958D01*
X102613808Y-96309622D01*
X102579640Y-96322016D01*
X102551556Y-96312038D01*
X102523351Y-96283583D01*
X102522670Y-96282764D01*
X102511725Y-96257428D01*
X102521569Y-96222978D01*
X102556724Y-96170060D01*
X102608410Y-96105356D01*
X102676740Y-96022141D01*
X102761670Y-95918028D01*
X102849143Y-95810268D01*
X102886695Y-95763813D01*
X102975903Y-95657385D01*
X103043548Y-95587846D01*
X103095127Y-95551309D01*
X103136140Y-95543887D01*
X103172086Y-95561690D01*
G37*
G36*
X104094235Y-96871173D02*
G01*
X104111040Y-96880412D01*
X104162415Y-96886921D01*
X104187327Y-96876176D01*
X104240941Y-96861296D01*
X104269044Y-96865418D01*
X104287906Y-96896083D01*
X104301522Y-96963972D01*
X104309860Y-97057647D01*
X104312889Y-97165669D01*
X104310579Y-97276601D01*
X104302898Y-97379004D01*
X104289815Y-97461441D01*
X104271300Y-97512474D01*
X104270800Y-97513202D01*
X104194390Y-97585708D01*
X104096314Y-97628222D01*
X103991372Y-97637975D01*
X103894366Y-97612196D01*
X103859593Y-97590141D01*
X103806453Y-97534060D01*
X103800490Y-97484543D01*
X103830688Y-97446038D01*
X103865757Y-97430830D01*
X103912576Y-97444896D01*
X103939515Y-97459792D01*
X103999731Y-97487368D01*
X104049797Y-97484651D01*
X104075236Y-97474606D01*
X104126862Y-97443651D01*
X104132254Y-97421613D01*
X104093757Y-97411492D01*
X104028245Y-97414505D01*
X103958252Y-97418520D01*
X103909177Y-97405312D01*
X103859258Y-97366657D01*
X103832484Y-97340536D01*
X103778140Y-97278849D01*
X103752808Y-97222355D01*
X103746205Y-97147068D01*
X103746178Y-97139220D01*
X103748393Y-97109247D01*
X103898116Y-97109247D01*
X103903331Y-97181137D01*
X103933496Y-97229056D01*
X103997611Y-97268688D01*
X104069502Y-97263472D01*
X104117420Y-97233308D01*
X104157215Y-97173805D01*
X104150565Y-97106097D01*
X104124077Y-97059019D01*
X104066938Y-97013245D01*
X103998000Y-97010795D01*
X103937748Y-97045132D01*
X103898116Y-97109247D01*
X103748393Y-97109247D01*
X103752070Y-97059482D01*
X103776823Y-97001284D01*
X103829376Y-96941011D01*
X103915944Y-96879464D01*
X104008501Y-96855266D01*
X104094235Y-96871173D01*
G37*
G36*
X108205218Y-96871173D02*
G01*
X108222023Y-96880412D01*
X108273398Y-96886921D01*
X108298309Y-96876176D01*
X108351924Y-96861296D01*
X108380027Y-96865418D01*
X108398889Y-96896083D01*
X108412504Y-96963972D01*
X108420842Y-97057647D01*
X108423872Y-97165669D01*
X108421561Y-97276601D01*
X108413880Y-97379004D01*
X108400798Y-97461441D01*
X108382282Y-97512474D01*
X108381783Y-97513202D01*
X108305373Y-97585708D01*
X108207297Y-97628222D01*
X108102355Y-97637975D01*
X108005349Y-97612196D01*
X107970576Y-97590141D01*
X107917435Y-97534060D01*
X107911472Y-97484543D01*
X107941670Y-97446038D01*
X107976739Y-97430830D01*
X108023559Y-97444896D01*
X108050498Y-97459792D01*
X108110714Y-97487368D01*
X108160780Y-97484651D01*
X108186219Y-97474606D01*
X108237845Y-97443651D01*
X108243236Y-97421613D01*
X108204740Y-97411492D01*
X108139228Y-97414505D01*
X108069235Y-97418520D01*
X108020160Y-97405312D01*
X107970240Y-97366657D01*
X107943467Y-97340536D01*
X107889123Y-97278849D01*
X107863791Y-97222355D01*
X107857187Y-97147068D01*
X107857160Y-97139220D01*
X107859375Y-97109247D01*
X108009098Y-97109247D01*
X108014314Y-97181137D01*
X108044479Y-97229056D01*
X108108594Y-97268688D01*
X108180485Y-97263472D01*
X108228403Y-97233308D01*
X108268198Y-97173805D01*
X108261548Y-97106097D01*
X108235060Y-97059019D01*
X108177921Y-97013245D01*
X108108982Y-97010795D01*
X108048731Y-97045132D01*
X108009098Y-97109247D01*
X107859375Y-97109247D01*
X107863053Y-97059482D01*
X107887805Y-97001284D01*
X107940359Y-96941011D01*
X108026927Y-96879464D01*
X108119484Y-96855266D01*
X108205218Y-96871173D01*
G37*
G36*
X98554037Y-92252749D02*
G01*
X98713338Y-92291697D01*
X98754270Y-92308841D01*
X98903235Y-92392350D01*
X99022985Y-92493824D01*
X99129291Y-92627203D01*
X99150306Y-92658902D01*
X99250392Y-92844486D01*
X99321123Y-93049365D01*
X99364818Y-93281995D01*
X99382337Y-93505405D01*
X99394206Y-93811281D01*
X99335014Y-93688931D01*
X99259133Y-93569253D01*
X99159145Y-93463864D01*
X99048771Y-93385787D01*
X98987193Y-93358734D01*
X98844021Y-93336261D01*
X98684975Y-93355064D01*
X98515576Y-93412403D01*
X98341346Y-93505538D01*
X98167805Y-93631728D01*
X98000474Y-93788234D01*
X97905234Y-93895694D01*
X97767672Y-94085723D01*
X97673273Y-94268679D01*
X97621888Y-94441952D01*
X97613371Y-94602930D01*
X97647575Y-94749000D01*
X97724353Y-94877550D01*
X97843558Y-94985969D01*
X97970567Y-95056993D01*
X98045352Y-95092065D01*
X98098419Y-95119835D01*
X98118047Y-95134041D01*
X98095469Y-95139875D01*
X98035045Y-95142464D01*
X97947741Y-95142113D01*
X97844522Y-95139132D01*
X97736353Y-95133826D01*
X97634200Y-95126502D01*
X97555233Y-95118282D01*
X97313290Y-95069413D01*
X97091611Y-94989289D01*
X96897397Y-94881490D01*
X96737846Y-94749596D01*
X96678467Y-94682315D01*
X96588914Y-94548826D01*
X96533581Y-94412340D01*
X96508401Y-94258860D01*
X96508081Y-94096103D01*
X96537348Y-93887965D01*
X96605009Y-93680145D01*
X96712922Y-93469290D01*
X96862948Y-93252044D01*
X97056945Y-93025055D01*
X97162473Y-92915426D01*
X97393421Y-92702066D01*
X97624913Y-92524852D01*
X97851471Y-92387658D01*
X98012432Y-92314292D01*
X98189254Y-92264152D01*
X98374566Y-92243602D01*
X98554037Y-92252749D01*
G37*
G36*
X104638150Y-93576631D02*
G01*
X104738150Y-93612231D01*
X104859992Y-93689786D01*
X104972431Y-93798624D01*
X105061330Y-93923202D01*
X105102432Y-94012759D01*
X105132191Y-94151446D01*
X105138937Y-94309238D01*
X105122671Y-94462047D01*
X105102432Y-94539669D01*
X105038853Y-94665984D01*
X104941688Y-94787605D01*
X104825075Y-94888988D01*
X104738150Y-94940196D01*
X104636794Y-94977636D01*
X104527429Y-94994933D01*
X104443576Y-94997605D01*
X104316785Y-94990581D01*
X104213195Y-94966377D01*
X104149002Y-94940196D01*
X104027161Y-94862642D01*
X103914722Y-94753804D01*
X103825823Y-94629226D01*
X103784721Y-94539669D01*
X103754962Y-94400982D01*
X103751600Y-94322351D01*
X104119228Y-94322351D01*
X104150882Y-94430424D01*
X104153755Y-94437681D01*
X104197963Y-94517113D01*
X104264043Y-94569396D01*
X104294458Y-94584460D01*
X104380844Y-94618550D01*
X104449336Y-94627519D01*
X104523184Y-94611856D01*
X104580574Y-94590506D01*
X104660005Y-94546297D01*
X104712289Y-94480218D01*
X104727352Y-94449802D01*
X104756161Y-94369669D01*
X104771871Y-94293485D01*
X104772848Y-94276214D01*
X104762498Y-94206941D01*
X104736723Y-94124835D01*
X104727352Y-94102625D01*
X104681742Y-94027278D01*
X104617625Y-93978824D01*
X104576098Y-93960131D01*
X104448911Y-93930395D01*
X104333296Y-93943950D01*
X104236314Y-93998148D01*
X104165026Y-94090341D01*
X104152010Y-94119108D01*
X104119647Y-94226370D01*
X104119228Y-94322351D01*
X103751600Y-94322351D01*
X103748216Y-94243190D01*
X103764482Y-94090380D01*
X103784721Y-94012759D01*
X103848300Y-93886443D01*
X103945465Y-93764822D01*
X104062078Y-93663439D01*
X104149002Y-93612231D01*
X104302892Y-93564767D01*
X104472047Y-93552901D01*
X104638150Y-93576631D01*
G37*
D13*
%TO.C,J10*%
X108029999Y-67080000D02*
X108029999Y-69740000D01*
X125869999Y-67080000D02*
X108029999Y-67080000D01*
X125869999Y-67080000D02*
X125869999Y-69740000D01*
X125869999Y-69740000D02*
X108029999Y-69740000D01*
X128469999Y-68410000D02*
X128469999Y-69740000D01*
X128469999Y-69740000D02*
X127139999Y-69740000D01*
%TO.C,J7*%
X90990000Y-60430000D02*
X90990000Y-63580000D01*
X90990000Y-63580000D02*
X93840000Y-66180000D01*
X93840000Y-57880000D02*
X90990000Y-60430000D01*
X93840000Y-66180000D02*
X106690000Y-66180000D01*
X106690000Y-57880000D02*
X93840000Y-57880000D01*
X106690000Y-66180000D02*
X106690000Y-57880000D01*
%TO.C,J11*%
X151464999Y-55155001D02*
X151464999Y-68005001D01*
X151464999Y-68005001D02*
X154014999Y-70855001D01*
X154014999Y-70855001D02*
X157164999Y-70855001D01*
X157164999Y-70855001D02*
X159764999Y-68005001D01*
X159764999Y-55155001D02*
X151464999Y-55155001D01*
X159764999Y-68005001D02*
X159764999Y-55155001D01*
%TO.C,J2*%
X154400000Y-76800000D02*
X155400000Y-76800000D01*
X154400000Y-86620000D02*
X154400000Y-76800000D01*
X155400000Y-75400000D02*
X157210000Y-75400000D01*
X155400000Y-76800000D02*
X155400000Y-75400000D01*
X157210000Y-86620000D02*
X154400000Y-86620000D01*
X157210000Y-86620000D02*
X160020000Y-86620000D01*
X157410000Y-86860000D02*
X160260000Y-86860000D01*
X159020000Y-75400000D02*
X157210000Y-75400000D01*
X159020000Y-76800000D02*
X159020000Y-75400000D01*
X160020000Y-76800000D02*
X159020000Y-76800000D01*
X160020000Y-86620000D02*
X160020000Y-76800000D01*
X160260000Y-86860000D02*
X160260000Y-84010000D01*
%TO.C,J14*%
X146950000Y-98720000D02*
X146950000Y-88500000D01*
X149610000Y-88500000D02*
X146950000Y-88500000D01*
X149610000Y-98720000D02*
X146950000Y-98720000D01*
X149610000Y-98720000D02*
X149610000Y-88500000D01*
X149610000Y-99990000D02*
X149610000Y-101320000D01*
X149610000Y-101320000D02*
X148280000Y-101320000D01*
D15*
%TO.C,J4*%
X136093001Y-72493001D02*
X136093001Y-74402076D01*
X136093001Y-75437927D02*
X136093001Y-79986001D01*
X136093001Y-79986001D02*
X145237001Y-79986001D01*
X137606669Y-72493001D02*
X136093001Y-72493001D01*
X140606671Y-72493001D02*
X139223331Y-72493001D01*
X145237001Y-72493001D02*
X142223333Y-72493001D01*
X145237001Y-74402076D02*
X145237001Y-72493001D01*
X145237001Y-79986001D02*
X145237001Y-75437927D01*
D16*
X134696001Y-73070000D02*
G75*
G02*
X133934001Y-73070000I-381000J0D01*
G01*
X133934001Y-73070000D02*
G75*
G02*
X134696001Y-73070000I381000J0D01*
G01*
D13*
%TO.C,J3*%
X91700000Y-76650000D02*
X92700000Y-76650000D01*
X91700000Y-86470000D02*
X91700000Y-76650000D01*
X92700000Y-75250000D02*
X94510000Y-75250000D01*
X92700000Y-76650000D02*
X92700000Y-75250000D01*
X94510000Y-86470000D02*
X91700000Y-86470000D01*
X94510000Y-86470000D02*
X97320000Y-86470000D01*
X94710000Y-86710000D02*
X97560000Y-86710000D01*
X96320000Y-75250000D02*
X94510000Y-75250000D01*
X96320000Y-76650000D02*
X96320000Y-75250000D01*
X97320000Y-76650000D02*
X96320000Y-76650000D01*
X97320000Y-86470000D02*
X97320000Y-76650000D01*
X97560000Y-86710000D02*
X97560000Y-83860000D01*
%TO.C,J12*%
X115890000Y-107990000D02*
X115890000Y-109800000D01*
X115890000Y-111610000D02*
X115890000Y-109800000D01*
X117290000Y-106990000D02*
X117290000Y-107990000D01*
X117290000Y-107990000D02*
X115890000Y-107990000D01*
X117290000Y-111610000D02*
X115890000Y-111610000D01*
X117290000Y-112610000D02*
X117290000Y-111610000D01*
X127110000Y-106990000D02*
X117290000Y-106990000D01*
X127110000Y-109800000D02*
X127110000Y-106990000D01*
X127110000Y-109800000D02*
X127110000Y-112610000D01*
X127110000Y-112610000D02*
X117290000Y-112610000D01*
X127350000Y-106750000D02*
X124500000Y-106750000D01*
X127350000Y-109600000D02*
X127350000Y-106750000D01*
%TO.C,J8*%
X133705000Y-44150000D02*
X133705000Y-46810000D01*
X146465000Y-44150000D02*
X133705000Y-44150000D01*
X146465000Y-44150000D02*
X146465000Y-46810000D01*
X146465000Y-46810000D02*
X133705000Y-46810000D01*
X149065000Y-45480000D02*
X149065000Y-46810000D01*
X149065000Y-46810000D02*
X147735000Y-46810000D01*
D15*
%TO.C,J1*%
X111798100Y-72714801D02*
X111798100Y-79522001D01*
X111798100Y-79522001D02*
X126961900Y-79522001D01*
X115189690Y-72714801D02*
X111798100Y-72714801D01*
X118189689Y-72714801D02*
X116070310Y-72714801D01*
X121189691Y-72714801D02*
X119070309Y-72714801D01*
X124189690Y-72714801D02*
X122070311Y-72714801D01*
X126961900Y-72714801D02*
X125070310Y-72714801D01*
X126961900Y-79522001D02*
X126961900Y-72714801D01*
D16*
X129120900Y-73605000D02*
G75*
G02*
X128358900Y-73605000I-381000J0D01*
G01*
X128358900Y-73605000D02*
G75*
G02*
X129120900Y-73605000I381000J0D01*
G01*
%TD*%
M02*
