M48
; DRILL file {KiCad 9.0.0} date 2025-07-07T23:49:03+0900
; FORMAT={-:-/ absolute / metric / decimal}
; #@! TF.CreationDate,2025-07-07T23:49:03+09:00
; #@! TF.GenerationSoftware,Kicad,Pcbnew,9.0.0
; #@! TF.FileFunction,Plated,1,2,PTH
FMAT,2
METRIC
; #@! TA.AperFunction,Plated,PTH,ComponentDrill
T1C0.813
; #@! TA.AperFunction,Plated,PTH,ComponentDrill
T2C1.000
; #@! TA.AperFunction,Plated,PTH,ComponentDrill
T3C1.400
; #@! TA.AperFunction,Plated,PTH,ComponentDrill
T4C3.200
; #@! TA.AperFunction,Plated,PTH,ComponentDrill
T5C4.500
%
G90
G05
T1
X114.13Y-75.605
X115.63Y-73.605
X117.13Y-75.605
X118.63Y-73.605
X120.13Y-75.605
X121.63Y-73.605
X123.13Y-75.605
X124.63Y-73.605
X138.415Y-73.07
X139.915Y-76.77
X141.415Y-73.07
X142.915Y-76.77
T2
X109.32Y-45.56
X109.36Y-68.41
X111.86Y-45.56
X111.9Y-68.41
X114.4Y-45.56
X114.44Y-68.41
X116.94Y-45.56
X117.295Y-87.315
X117.295Y-89.855
X117.295Y-92.395
X117.295Y-94.935
X117.295Y-97.475
X117.295Y-100.015
X117.295Y-102.555
X119.48Y-45.56
X122.02Y-45.56
X122.06Y-68.41
X124.56Y-45.56
X124.6Y-68.41
X127.1Y-45.56
X127.14Y-68.41
X135.035Y-45.48
X136.995Y-89.87
X136.995Y-92.41
X136.995Y-94.95
X136.995Y-97.49
X136.995Y-100.03
X137.575Y-45.48
X140.115Y-45.48
X142.655Y-45.48
X148.28Y-89.83
X148.28Y-92.37
X148.28Y-94.91
X148.28Y-97.45
X148.28Y-99.99
T3
X94.51Y-78.61
X94.51Y-84.11
X119.25Y-109.8
X124.75Y-109.8
X157.21Y-78.76
X157.21Y-84.26
T4
X124.915Y-87.87
X124.915Y-102.05
T5
X95.24Y-62.03
X102.44Y-62.03
X155.615Y-59.405
X155.615Y-66.605
M30
