%TF.GenerationSoftware,KiCad,Pcbnew,9.0.0*%
%TF.CreationDate,2025-07-07T23:48:59+09:00*%
%TF.ProjectId,Distribution Board,44697374-7269-4627-9574-696f6e20426f,rev?*%
%TF.SameCoordinates,Original*%
%TF.FileFunction,Copper,L1,Top*%
%TF.FilePolarity,Positive*%
%FSLAX46Y46*%
G04 Gerber Fmt 4.6, Leading zero omitted, Abs format (unit mm)*
G04 Created by KiCad (PCBNEW 9.0.0) date 2025-07-07 23:48:59*
%MOMM*%
%LPD*%
G01*
G04 APERTURE LIST*
G04 Aperture macros list*
%AMRoundRect*
0 Rectangle with rounded corners*
0 $1 Rounding radius*
0 $2 $3 $4 $5 $6 $7 $8 $9 X,Y pos of 4 corners*
0 Add a 4 corners polygon primitive as box body*
4,1,4,$2,$3,$4,$5,$6,$7,$8,$9,$2,$3,0*
0 Add four circle primitives for the rounded corners*
1,1,$1+$1,$2,$3*
1,1,$1+$1,$4,$5*
1,1,$1+$1,$6,$7*
1,1,$1+$1,$8,$9*
0 Add four rect primitives between the rounded corners*
20,1,$1+$1,$2,$3,$4,$5,0*
20,1,$1+$1,$4,$5,$6,$7,0*
20,1,$1+$1,$6,$7,$8,$9,0*
20,1,$1+$1,$8,$9,$2,$3,0*%
G04 Aperture macros list end*
%TA.AperFunction,ComponentPad*%
%ADD10R,1.700000X1.700000*%
%TD*%
%TA.AperFunction,ComponentPad*%
%ADD11O,1.700000X1.700000*%
%TD*%
%TA.AperFunction,ComponentPad*%
%ADD12C,6.000000*%
%TD*%
%TA.AperFunction,WasherPad*%
%ADD13O,1.700000X1.700000*%
%TD*%
%TA.AperFunction,ComponentPad*%
%ADD14RoundRect,1.500000X-1.500000X-1.500000X1.500000X-1.500000X1.500000X1.500000X-1.500000X1.500000X0*%
%TD*%
%TA.AperFunction,ComponentPad*%
%ADD15RoundRect,1.500000X1.500000X-1.500000X1.500000X1.500000X-1.500000X1.500000X-1.500000X-1.500000X0*%
%TD*%
%TA.AperFunction,ComponentPad*%
%ADD16RoundRect,0.250001X1.099999X1.399999X-1.099999X1.399999X-1.099999X-1.399999X1.099999X-1.399999X0*%
%TD*%
%TA.AperFunction,ComponentPad*%
%ADD17O,2.700000X3.300000*%
%TD*%
%TA.AperFunction,ComponentPad*%
%ADD18C,1.320800*%
%TD*%
%TA.AperFunction,ComponentPad*%
%ADD19RoundRect,0.250001X-1.399999X1.099999X-1.399999X-1.099999X1.399999X-1.099999X1.399999X1.099999X0*%
%TD*%
%TA.AperFunction,ComponentPad*%
%ADD20O,3.300000X2.700000*%
%TD*%
%TA.AperFunction,WasherPad*%
%ADD21R,1.700000X1.700000*%
%TD*%
%TA.AperFunction,Conductor*%
%ADD22C,1.000000*%
%TD*%
G04 APERTURE END LIST*
D10*
%TO.P,J13,1,Pin_1*%
%TO.N,HV-*%
X117295000Y-87315000D03*
D11*
%TO.P,J13,2,Pin_2*%
%TO.N,unconnected-(J13-Pin_2-Pad2)*%
X117295000Y-89855000D03*
%TO.P,J13,3,Pin_3*%
%TO.N,unconnected-(J13-Pin_3-Pad3)*%
X117295000Y-92395000D03*
%TO.P,J13,4,Pin_4*%
%TO.N,unconnected-(J13-Pin_4-Pad4)*%
X117295000Y-94935000D03*
%TO.P,J13,5,Pin_5*%
%TO.N,unconnected-(J13-Pin_5-Pad5)*%
X117295000Y-97475000D03*
%TO.P,J13,6,Pin_6*%
%TO.N,unconnected-(J13-Pin_6-Pad6)*%
X117295000Y-100015000D03*
%TO.P,J13,7,Pin_7*%
%TO.N,HV+*%
X117295000Y-102555000D03*
%TD*%
D10*
%TO.P,J16,1,Pin_1*%
%TO.N,Net-(J14-Pin_5)*%
X136995000Y-89870000D03*
D11*
%TO.P,J16,2,Pin_2*%
%TO.N,Net-(J14-Pin_4)*%
X136995000Y-92410000D03*
%TO.P,J16,3,Pin_3*%
%TO.N,Net-(J14-Pin_3)*%
X136995000Y-94950000D03*
%TO.P,J16,4,Pin_4*%
%TO.N,Net-(J14-Pin_2)*%
X136995000Y-97490000D03*
%TO.P,J16,5,Pin_5*%
%TO.N,Net-(J14-Pin_1)*%
X136995000Y-100030000D03*
%TD*%
D12*
%TO.P,J5,*%
%TO.N,HV+*%
X124915000Y-87870000D03*
%TD*%
D10*
%TO.P,J9,1,Pin_1*%
%TO.N,unconnected-(J9-Pin_1-Pad1)*%
X109319999Y-45560000D03*
D11*
%TO.P,J9,2,Pin_2*%
%TO.N,unconnected-(J9-Pin_2-Pad2)*%
X111859999Y-45560000D03*
%TO.P,J9,3,Pin_3*%
%TO.N,unconnected-(J9-Pin_3-Pad3)*%
X114399999Y-45560000D03*
%TO.P,J9,4,Pin_4*%
%TO.N,unconnected-(J9-Pin_4-Pad4)*%
X116939999Y-45560000D03*
%TO.P,J9,5,Pin_5*%
%TO.N,LV+*%
X119479999Y-45560000D03*
%TO.P,J9,6,Pin_6*%
X122019999Y-45560000D03*
%TO.P,J9,7,Pin_7*%
%TO.N,LV-*%
X124559999Y-45560000D03*
%TO.P,J9,8,Pin_8*%
X127099999Y-45560000D03*
%TD*%
D13*
%TO.P,J10,*%
%TO.N,*%
X119519999Y-68410000D03*
X116979999Y-68410000D03*
D10*
%TO.P,J10,1,Pin_1*%
%TO.N,LV-*%
X127139999Y-68410000D03*
D11*
%TO.P,J10,2,Pin_2*%
X124599999Y-68410000D03*
%TO.P,J10,3,Pin_3*%
X122059999Y-68410000D03*
%TO.P,J10,6,Pin_6*%
%TO.N,7.4V*%
X114439999Y-68410000D03*
%TO.P,J10,7,Pin_7*%
X111899999Y-68410000D03*
%TO.P,J10,8,Pin_8*%
X109359999Y-68410000D03*
%TD*%
D12*
%TO.P,J6,*%
%TO.N,HV+*%
X124915000Y-102050000D03*
%TD*%
D14*
%TO.P,J7,1,Pin_1*%
%TO.N,HV-*%
X95240000Y-62030000D03*
D12*
%TO.P,J7,2,Pin_2*%
%TO.N,HV+*%
X102440000Y-62030000D03*
%TD*%
D15*
%TO.P,J11,1,Pin_1*%
%TO.N,LV-*%
X155614999Y-66605001D03*
D12*
%TO.P,J11,2,Pin_2*%
%TO.N,LV+*%
X155614999Y-59405001D03*
%TD*%
D16*
%TO.P,J2,1,Pin_1*%
%TO.N,HV-*%
X157210000Y-84260000D03*
D17*
%TO.P,J2,2,Pin_2*%
%TO.N,HV+*%
X157210000Y-78760000D03*
%TD*%
D10*
%TO.P,J14,1,Pin_1*%
%TO.N,Net-(J14-Pin_1)*%
X148280000Y-99990000D03*
D11*
%TO.P,J14,2,Pin_2*%
%TO.N,Net-(J14-Pin_2)*%
X148280000Y-97450000D03*
%TO.P,J14,3,Pin_3*%
%TO.N,Net-(J14-Pin_3)*%
X148280000Y-94910000D03*
%TO.P,J14,4,Pin_4*%
%TO.N,Net-(J14-Pin_4)*%
X148280000Y-92370000D03*
%TO.P,J14,5,Pin_5*%
%TO.N,Net-(J14-Pin_5)*%
X148280000Y-89830000D03*
%TD*%
D18*
%TO.P,J4,1,Pin_1*%
%TO.N,5V*%
X138415001Y-73070000D03*
%TO.P,J4,2,Pin_2*%
%TO.N,LV-*%
X139915000Y-76770000D03*
%TO.P,J4,3,Pin_3*%
%TO.N,5V*%
X141415002Y-73070000D03*
%TO.P,J4,4,Pin_4*%
%TO.N,LV-*%
X142915002Y-76770000D03*
%TD*%
D16*
%TO.P,J3,1,Pin_1*%
%TO.N,HV-*%
X94510000Y-84110000D03*
D17*
%TO.P,J3,2,Pin_2*%
%TO.N,HV+*%
X94510000Y-78610000D03*
%TD*%
D19*
%TO.P,J12,1,Pin_1*%
%TO.N,HV+*%
X124750000Y-109800000D03*
D20*
%TO.P,J12,2,Pin_2*%
%TO.N,HV-*%
X119250000Y-109800000D03*
%TD*%
D21*
%TO.P,J8,*%
%TO.N,*%
X147735000Y-45480000D03*
D13*
X145195000Y-45480000D03*
D11*
%TO.P,J8,3,Pin_3*%
%TO.N,LV+*%
X142655000Y-45480000D03*
%TO.P,J8,4,Pin_4*%
%TO.N,LV-*%
X140115000Y-45480000D03*
%TO.P,J8,5,Pin_5*%
X137575000Y-45480000D03*
%TO.P,J8,6,Pin_6*%
%TO.N,5V*%
X135035000Y-45480000D03*
%TD*%
D18*
%TO.P,J1,1,Pin_1*%
%TO.N,7.4V*%
X124630000Y-73605000D03*
%TO.P,J1,2,Pin_2*%
%TO.N,LV-*%
X123130000Y-75605001D03*
%TO.P,J1,3,Pin_3*%
%TO.N,7.4V*%
X121630001Y-73605000D03*
%TO.P,J1,4,Pin_4*%
%TO.N,LV-*%
X120130001Y-75605001D03*
%TO.P,J1,5,Pin_5*%
%TO.N,7.4V*%
X118629999Y-73605000D03*
%TO.P,J1,6,Pin_6*%
%TO.N,LV-*%
X117130000Y-75605001D03*
%TO.P,J1,7,Pin_7*%
%TO.N,7.4V*%
X115630000Y-73605000D03*
%TO.P,J1,8,Pin_8*%
%TO.N,LV-*%
X114130001Y-75605001D03*
%TD*%
D22*
%TO.N,Net-(J14-Pin_5)*%
X136995000Y-89870000D02*
X148240000Y-89870000D01*
X148240000Y-89870000D02*
X148280000Y-89830000D01*
%TO.N,Net-(J14-Pin_1)*%
X136995000Y-100030000D02*
X148240000Y-100030000D01*
X148240000Y-100030000D02*
X148280000Y-99990000D01*
%TO.N,Net-(J14-Pin_3)*%
X136995000Y-94950000D02*
X148240000Y-94950000D01*
X148240000Y-94950000D02*
X148280000Y-94910000D01*
%TO.N,Net-(J14-Pin_2)*%
X148280000Y-97450000D02*
X137035000Y-97450000D01*
X137035000Y-97450000D02*
X136995000Y-97490000D01*
%TO.N,Net-(J14-Pin_4)*%
X148240000Y-92410000D02*
X148280000Y-92370000D01*
X136995000Y-92410000D02*
X148240000Y-92410000D01*
%TD*%
%TA.AperFunction,Conductor*%
%TO.N,7.4V*%
G36*
X115834288Y-67465264D02*
G01*
X115880307Y-67517838D01*
X115890598Y-67586946D01*
X115868092Y-67642799D01*
X115824949Y-67702181D01*
X115728443Y-67891585D01*
X115662752Y-68093760D01*
X115629499Y-68303713D01*
X115629499Y-68516286D01*
X115662752Y-68726239D01*
X115728443Y-68928414D01*
X115824950Y-69117820D01*
X115949889Y-69289786D01*
X116100212Y-69440109D01*
X116272178Y-69565048D01*
X116272180Y-69565049D01*
X116272183Y-69565051D01*
X116361255Y-69610435D01*
X116461586Y-69661557D01*
X116461592Y-69661559D01*
X116496887Y-69673026D01*
X116576799Y-69698991D01*
X116620334Y-69723778D01*
X116689998Y-69784999D01*
X116690000Y-69785000D01*
X125206917Y-69804899D01*
X125273909Y-69824740D01*
X125283739Y-69831793D01*
X125712433Y-70172226D01*
X125752691Y-70229332D01*
X125759312Y-70270736D01*
X125715931Y-74102680D01*
X125695489Y-74169492D01*
X125642170Y-74214646D01*
X125638772Y-74216092D01*
X125357655Y-74330758D01*
X125310532Y-74339942D01*
X109388332Y-74302706D01*
X109321339Y-74282864D01*
X109309077Y-74273830D01*
X108395805Y-73510127D01*
X107764790Y-72982454D01*
X107725990Y-72924350D01*
X107720338Y-72886617D01*
X107749751Y-67817796D01*
X107769824Y-67750875D01*
X107776585Y-67741478D01*
X107943006Y-67531644D01*
X108000085Y-67491353D01*
X108039534Y-67484701D01*
X115767153Y-67445917D01*
X115834288Y-67465264D01*
G37*
%TD.AperFunction*%
%TD*%
%TA.AperFunction,Conductor*%
%TO.N,HV+*%
G36*
X132617464Y-98349371D02*
G01*
X132684263Y-98369856D01*
X132706091Y-98388179D01*
X133240861Y-98953886D01*
X133272609Y-99016126D01*
X133274748Y-99039698D01*
X133215175Y-110790421D01*
X133196956Y-110854497D01*
X132676620Y-111705133D01*
X132624846Y-111752050D01*
X132569824Y-111764424D01*
X122937631Y-111685431D01*
X122870755Y-111665197D01*
X122848748Y-111646840D01*
X122063958Y-110820745D01*
X122032056Y-110758584D01*
X122029859Y-110735694D01*
X122015000Y-105535001D01*
X122014999Y-105534998D01*
X118530000Y-103630000D01*
X115864223Y-103644755D01*
X115840484Y-103637927D01*
X115815929Y-103635254D01*
X115801656Y-103626759D01*
X115797076Y-103625442D01*
X115785610Y-103617210D01*
X115659698Y-103515463D01*
X115619929Y-103458018D01*
X115613642Y-103420222D01*
X115596394Y-101643725D01*
X115615427Y-101576500D01*
X115652660Y-101538655D01*
X115819536Y-101429860D01*
X115886366Y-101409740D01*
X120755000Y-101375000D01*
X121035000Y-101090000D01*
X121103183Y-99171124D01*
X121125236Y-99104828D01*
X121142336Y-99085029D01*
X122026252Y-98257136D01*
X122088634Y-98225676D01*
X122112491Y-98223649D01*
X132617464Y-98349371D01*
G37*
%TD.AperFunction*%
%TD*%
%TA.AperFunction,Conductor*%
%TO.N,LV+*%
G36*
X122793982Y-44427387D02*
G01*
X122859979Y-44450316D01*
X122880343Y-44468557D01*
X123237818Y-44868089D01*
X123250316Y-44894344D01*
X123265334Y-44919248D01*
X123266338Y-44927998D01*
X123267850Y-44931175D01*
X123269357Y-44954312D01*
X123263364Y-45164066D01*
X123257346Y-45198843D01*
X123242753Y-45243755D01*
X123209499Y-45453713D01*
X123209499Y-45666286D01*
X123241170Y-45866249D01*
X123242646Y-45889188D01*
X123230768Y-46304915D01*
X123414639Y-46596043D01*
X123530769Y-46779915D01*
X123956743Y-46783033D01*
X124012125Y-46796545D01*
X124022642Y-46801904D01*
X124041576Y-46811552D01*
X124041582Y-46811554D01*
X124041587Y-46811557D01*
X124243756Y-46877246D01*
X124453712Y-46910500D01*
X124453713Y-46910500D01*
X124666285Y-46910500D01*
X124666286Y-46910500D01*
X124876242Y-46877246D01*
X125078411Y-46811557D01*
X125090754Y-46805267D01*
X125147955Y-46791754D01*
X126534522Y-46801904D01*
X126576814Y-46810477D01*
X126576953Y-46810051D01*
X126580671Y-46811259D01*
X126581055Y-46811337D01*
X126581579Y-46811554D01*
X126581584Y-46811555D01*
X126581587Y-46811557D01*
X126783756Y-46877246D01*
X126993712Y-46910500D01*
X126993713Y-46910500D01*
X127206285Y-46910500D01*
X127206286Y-46910500D01*
X127416242Y-46877246D01*
X127604461Y-46816089D01*
X127643678Y-46810024D01*
X141300000Y-46910000D01*
X141600000Y-46760000D01*
X141600000Y-44828234D01*
X141607914Y-44801278D01*
X141612689Y-44773591D01*
X141618576Y-44764969D01*
X141619685Y-44761195D01*
X141632593Y-44744445D01*
X141783465Y-44579856D01*
X141843275Y-44543738D01*
X141874059Y-44539648D01*
X143303459Y-44530367D01*
X143370625Y-44549615D01*
X143397352Y-44572446D01*
X143549579Y-44745431D01*
X143579090Y-44808763D01*
X143580484Y-44826044D01*
X143596052Y-46304915D01*
X143600000Y-46680000D01*
X143851040Y-46877246D01*
X143879999Y-46899999D01*
X143880000Y-46900000D01*
X148190555Y-46890113D01*
X148257638Y-46909644D01*
X148275957Y-46923943D01*
X148571877Y-47203287D01*
X148607115Y-47263620D01*
X148610758Y-47293481D01*
X148610000Y-51180000D01*
X150150845Y-52135879D01*
X150150846Y-52135879D01*
X150279120Y-52133628D01*
X156575429Y-52023166D01*
X156642801Y-52041672D01*
X156667917Y-52062181D01*
X156737245Y-52135879D01*
X158945468Y-54483292D01*
X158977065Y-54545610D01*
X158979132Y-54570389D01*
X158856125Y-61717347D01*
X158835289Y-61784038D01*
X158817518Y-61805142D01*
X158406353Y-62195487D01*
X158344181Y-62227368D01*
X158319873Y-62229553D01*
X120243314Y-61890249D01*
X120176453Y-61869968D01*
X120174716Y-61868809D01*
X118465128Y-60706861D01*
X118420748Y-60652896D01*
X118410831Y-60604191D01*
X118425713Y-44998503D01*
X118445462Y-44931483D01*
X118471067Y-44902754D01*
X118513323Y-44868089D01*
X119223816Y-44285229D01*
X119288130Y-44257929D01*
X119308503Y-44257245D01*
X122793982Y-44427387D01*
G37*
%TD.AperFunction*%
%TD*%
%TA.AperFunction,Conductor*%
%TO.N,HV+*%
G36*
X104728928Y-58156625D02*
G01*
X105508055Y-58604399D01*
X105556371Y-58654871D01*
X105570267Y-58711445D01*
X105629815Y-74618956D01*
X105629816Y-74618957D01*
X107880000Y-76935000D01*
X138684437Y-77015733D01*
X138751423Y-77035594D01*
X138797039Y-77088517D01*
X138802038Y-77101409D01*
X138839152Y-77215631D01*
X138922109Y-77378444D01*
X139029515Y-77526276D01*
X139158724Y-77655485D01*
X139306556Y-77762891D01*
X139469369Y-77845848D01*
X139643155Y-77902315D01*
X139710835Y-77913034D01*
X139823630Y-77930900D01*
X139823635Y-77930900D01*
X140006370Y-77930900D01*
X140106631Y-77915019D01*
X140186845Y-77902315D01*
X140360631Y-77845848D01*
X140523444Y-77762891D01*
X140671276Y-77655485D01*
X140800485Y-77526276D01*
X140907891Y-77378444D01*
X140990848Y-77215631D01*
X141025865Y-77107858D01*
X141065301Y-77050186D01*
X141129660Y-77022987D01*
X141144098Y-77022180D01*
X141686997Y-77023603D01*
X141753982Y-77043463D01*
X141799598Y-77096386D01*
X141804596Y-77109275D01*
X141839154Y-77215631D01*
X141922111Y-77378444D01*
X142029517Y-77526276D01*
X142158726Y-77655485D01*
X142306558Y-77762891D01*
X142469371Y-77845848D01*
X142643157Y-77902315D01*
X142710837Y-77913034D01*
X142823632Y-77930900D01*
X142823637Y-77930900D01*
X143006372Y-77930900D01*
X143106633Y-77915019D01*
X143186847Y-77902315D01*
X143360633Y-77845848D01*
X143523446Y-77762891D01*
X143671278Y-77655485D01*
X143800487Y-77526276D01*
X143907893Y-77378444D01*
X143990850Y-77215631D01*
X144023314Y-77115715D01*
X144062750Y-77058043D01*
X144127109Y-77030844D01*
X144141566Y-77030036D01*
X159344201Y-77069879D01*
X159411186Y-77089740D01*
X159424722Y-77099861D01*
X159559341Y-77215633D01*
X159846142Y-77462282D01*
X159884135Y-77520919D01*
X159889279Y-77557840D01*
X159850558Y-80668396D01*
X159830041Y-80735186D01*
X159820846Y-80747398D01*
X159437080Y-81196596D01*
X159378568Y-81234781D01*
X159342915Y-81240051D01*
X153131107Y-81245705D01*
X153125191Y-81245711D01*
X152348766Y-81697807D01*
X151159999Y-82390000D01*
X151187459Y-83314460D01*
X151169774Y-83382055D01*
X151118352Y-83429357D01*
X151110925Y-83432720D01*
X150342529Y-83750676D01*
X150295616Y-83760097D01*
X133838111Y-83826226D01*
X133093837Y-85494964D01*
X133093837Y-85494966D01*
X133040488Y-90870815D01*
X133020139Y-90937655D01*
X133005928Y-90955476D01*
X132106549Y-91891943D01*
X132045915Y-91926660D01*
X132017236Y-91930051D01*
X121873847Y-91939957D01*
X121806788Y-91920338D01*
X121795872Y-91912470D01*
X120373500Y-90765090D01*
X120333680Y-90707678D01*
X120327480Y-90674167D01*
X120080000Y-85190000D01*
X118820000Y-83990000D01*
X96843134Y-83930144D01*
X96776149Y-83910276D01*
X96753454Y-83891424D01*
X96394482Y-83512508D01*
X96362666Y-83450303D01*
X96360500Y-83427228D01*
X96360500Y-82659997D01*
X96360499Y-82659984D01*
X96349999Y-82557204D01*
X96349999Y-82557203D01*
X96294814Y-82390666D01*
X96294812Y-82390663D01*
X96294810Y-82390658D01*
X96265461Y-82343078D01*
X96247007Y-82279462D01*
X96240063Y-81697808D01*
X96240063Y-81697807D01*
X96240063Y-81697806D01*
X95790000Y-81125000D01*
X95789998Y-81124999D01*
X92581939Y-81129905D01*
X92514869Y-81110323D01*
X92482721Y-81080534D01*
X92024604Y-80472647D01*
X91999977Y-80407262D01*
X91999637Y-80399119D01*
X91976975Y-77845846D01*
X91970418Y-77107126D01*
X91989507Y-77039915D01*
X92000983Y-77024498D01*
X92413023Y-76552369D01*
X92471934Y-76514804D01*
X92506233Y-76509904D01*
X98330000Y-76500000D01*
X99110000Y-75830000D01*
X99098749Y-58801463D01*
X99118389Y-58734413D01*
X99147595Y-58702755D01*
X99826937Y-58185189D01*
X99892189Y-58160222D01*
X99901561Y-58159828D01*
X104666634Y-58140137D01*
X104728928Y-58156625D01*
G37*
%TD.AperFunction*%
%TD*%
M02*
