%TF.GenerationSoftware,KiCad,Pcbnew,7.0.1*%
%TF.CreationDate,2025-05-09T23:10:08+09:00*%
%TF.ProjectId,301_Bright,3330315f-4272-4696-9768-742e6b696361,rev?*%
%TF.SameCoordinates,Original*%
%TF.FileFunction,Copper,L1,Top*%
%TF.FilePolarity,Positive*%
%FSLAX46Y46*%
G04 Gerber Fmt 4.6, Leading zero omitted, Abs format (unit mm)*
G04 Created by KiCad (PCBNEW 7.0.1) date 2025-05-09 23:10:08*
%MOMM*%
%LPD*%
G01*
G04 APERTURE LIST*
G04 Aperture macros list*
%AMRoundRect*
0 Rectangle with rounded corners*
0 $1 Rounding radius*
0 $2 $3 $4 $5 $6 $7 $8 $9 X,Y pos of 4 corners*
0 Add a 4 corners polygon primitive as box body*
4,1,4,$2,$3,$4,$5,$6,$7,$8,$9,$2,$3,0*
0 Add four circle primitives for the rounded corners*
1,1,$1+$1,$2,$3*
1,1,$1+$1,$4,$5*
1,1,$1+$1,$6,$7*
1,1,$1+$1,$8,$9*
0 Add four rect primitives between the rounded corners*
20,1,$1+$1,$2,$3,$4,$5,0*
20,1,$1+$1,$4,$5,$6,$7,0*
20,1,$1+$1,$6,$7,$8,$9,0*
20,1,$1+$1,$8,$9,$2,$3,0*%
G04 Aperture macros list end*
%TA.AperFunction,ComponentPad*%
%ADD10C,4.200000*%
%TD*%
%TA.AperFunction,SMDPad,CuDef*%
%ADD11R,10.000000X10.000000*%
%TD*%
%TA.AperFunction,SMDPad,CuDef*%
%ADD12RoundRect,0.250000X-0.262500X-0.450000X0.262500X-0.450000X0.262500X0.450000X-0.262500X0.450000X0*%
%TD*%
%TA.AperFunction,ComponentPad*%
%ADD13RoundRect,0.420000X-1.980000X-0.980000X1.980000X-0.980000X1.980000X0.980000X-1.980000X0.980000X0*%
%TD*%
%TA.AperFunction,SMDPad,CuDef*%
%ADD14R,2.985999X0.989800*%
%TD*%
%TA.AperFunction,SMDPad,CuDef*%
%ADD15R,8.712200X10.337800*%
%TD*%
%TA.AperFunction,SMDPad,CuDef*%
%ADD16R,0.400000X1.100000*%
%TD*%
%TA.AperFunction,SMDPad,CuDef*%
%ADD17RoundRect,0.225000X-0.225000X-0.250000X0.225000X-0.250000X0.225000X0.250000X-0.225000X0.250000X0*%
%TD*%
%TA.AperFunction,ComponentPad*%
%ADD18RoundRect,0.250000X-0.600000X-0.725000X0.600000X-0.725000X0.600000X0.725000X-0.600000X0.725000X0*%
%TD*%
%TA.AperFunction,ComponentPad*%
%ADD19O,1.700000X1.950000*%
%TD*%
%TA.AperFunction,Conductor*%
%ADD20C,0.300000*%
%TD*%
%TA.AperFunction,Conductor*%
%ADD21C,10.000000*%
%TD*%
%TA.AperFunction,Conductor*%
%ADD22C,1.000000*%
%TD*%
%TA.AperFunction,Conductor*%
%ADD23C,0.500000*%
%TD*%
%TA.AperFunction,Conductor*%
%ADD24C,2.800000*%
%TD*%
G04 APERTURE END LIST*
D10*
%TO.P,REF\u002A\u002A,1*%
%TO.N,GND*%
X62000000Y-185100000D03*
%TD*%
%TO.P,REF\u002A\u002A,1*%
%TO.N,GND*%
X222000000Y-185100000D03*
%TD*%
%TO.P,REF\u002A\u002A,1*%
%TO.N,GND*%
X62000000Y-25100000D03*
%TD*%
%TO.P,REF\u002A\u002A,1*%
%TO.N,GND*%
X222000000Y-25100000D03*
%TD*%
D11*
%TO.P,J7,1,Pin_1*%
%TO.N,GND*%
X182000000Y-180000000D03*
%TO.P,J7,2,Pin_2*%
X142000000Y-180000000D03*
%TO.P,J7,3,Pin_3*%
X102000000Y-180000000D03*
%TD*%
D12*
%TO.P,R3,1*%
%TO.N,+3.3V*%
X195381500Y-165922000D03*
%TO.P,R3,2*%
%TO.N,Net-(J5-Pin_4)*%
X197206500Y-165922000D03*
%TD*%
D13*
%TO.P,J4,1,Pin_1*%
%TO.N,Net-(J2-Pin_1)*%
X220050000Y-45000000D03*
%TO.P,J4,2,Pin_2*%
X220050000Y-85000000D03*
%TO.P,J4,3,Pin_3*%
X220050000Y-125000000D03*
%TO.P,J4,4,Pin_4*%
X220050000Y-165000000D03*
%TD*%
D12*
%TO.P,R1,1*%
%TO.N,+3.3V*%
X195381500Y-169986000D03*
%TO.P,R1,2*%
%TO.N,Net-(J5-Pin_2)*%
X197206500Y-169986000D03*
%TD*%
D13*
%TO.P,J3,1,Pin_1*%
%TO.N,Net-(J1-Pin_1)*%
X64550000Y-45000000D03*
%TO.P,J3,2,Pin_2*%
X64550000Y-85000000D03*
%TO.P,J3,3,Pin_3*%
X64550000Y-125000000D03*
%TO.P,J3,4,Pin_4*%
X64550000Y-165000000D03*
%TD*%
D12*
%TO.P,R2,1*%
%TO.N,+3.3V*%
X195383500Y-167954000D03*
%TO.P,R2,2*%
%TO.N,Net-(J5-Pin_3)*%
X197208500Y-167954000D03*
%TD*%
D11*
%TO.P,J2,1,Pin_1*%
%TO.N,Net-(J2-Pin_1)*%
X217450000Y-65000000D03*
%TO.P,J2,2,Pin_2*%
X217450000Y-105000000D03*
%TO.P,J2,3,Pin_3*%
X217450000Y-145000000D03*
%TD*%
%TO.P,J1,1,Pin_1*%
%TO.N,Net-(J1-Pin_1)*%
X67150000Y-65000000D03*
%TO.P,J1,2,Pin_2*%
X67150000Y-105000000D03*
%TO.P,J1,3,Pin_3*%
X67150000Y-145000000D03*
%TD*%
%TO.P,J6,1,Pin_1*%
%TO.N,GND*%
X102000000Y-30000000D03*
%TO.P,J6,2,Pin_2*%
X142000000Y-30000000D03*
%TO.P,J6,3,Pin_3*%
X182000000Y-30000000D03*
%TD*%
D14*
%TO.P,U1,1,NC*%
%TO.N,Net-(J2-Pin_1)*%
X133237000Y-79920000D03*
%TO.P,U1,2,A*%
%TO.N,Net-(J1-Pin_1)*%
X133237000Y-85000000D03*
D15*
%TO.P,U1,3,K*%
%TO.N,Net-(J2-Pin_1)*%
X144247900Y-82460000D03*
%TD*%
D16*
%TO.P,U2,1,SDA*%
%TO.N,Net-(J5-Pin_2)*%
X199850000Y-170222000D03*
%TO.P,U2,2,SCL*%
%TO.N,Net-(J5-Pin_3)*%
X200500000Y-170222000D03*
%TO.P,U2,3,OS*%
%TO.N,Net-(J5-Pin_4)*%
X201150000Y-170222000D03*
%TO.P,U2,4,GND*%
%TO.N,GND*%
X201800000Y-170222000D03*
%TO.P,U2,5,A2*%
X201800000Y-165922000D03*
%TO.P,U2,6,A1*%
X201150000Y-165922000D03*
%TO.P,U2,7,A0*%
X200500000Y-165922000D03*
%TO.P,U2,8,VCC*%
%TO.N,+3.3V*%
X199850000Y-165922000D03*
%TD*%
D17*
%TO.P,C1,1*%
%TO.N,+3.3V*%
X199376000Y-163220900D03*
%TO.P,C1,2*%
%TO.N,GND*%
X200926000Y-163220900D03*
%TD*%
D18*
%TO.P,J5,1,Pin_1*%
%TO.N,+3.3V*%
X195476900Y-175750000D03*
D19*
%TO.P,J5,2,Pin_2*%
%TO.N,Net-(J5-Pin_2)*%
X197976900Y-175750000D03*
%TO.P,J5,3,Pin_3*%
%TO.N,Net-(J5-Pin_3)*%
X200476900Y-175750000D03*
%TO.P,J5,4,Pin_4*%
%TO.N,Net-(J5-Pin_4)*%
X202976900Y-175750000D03*
%TO.P,J5,5,Pin_5*%
%TO.N,GND*%
X205476900Y-175750000D03*
%TD*%
D20*
%TO.N,GND*%
X201800000Y-170222000D02*
X201800000Y-165922000D01*
X205476900Y-172476900D02*
X205476900Y-175750000D01*
X203222000Y-170222000D02*
X205476900Y-172476900D01*
X201800000Y-170222000D02*
X203222000Y-170222000D01*
D21*
X102000000Y-180000000D02*
X142000000Y-180000000D01*
X142000000Y-180000000D02*
X182000000Y-180000000D01*
D22*
%TO.N,Net-(J2-Pin_1)*%
X141707900Y-79920000D02*
X144247900Y-82460000D01*
D23*
%TO.N,+3.3V*%
X195381500Y-169986000D02*
X195381500Y-175654600D01*
X199376000Y-163220900D02*
X199850000Y-163694900D01*
X199850000Y-163694900D02*
X199850000Y-165922000D01*
X195381500Y-164487400D02*
X196648000Y-163220900D01*
X196648000Y-163220900D02*
X199376000Y-163220900D01*
X195381500Y-165922000D02*
X195381500Y-164487400D01*
X195381500Y-167956000D02*
X195383500Y-167954000D01*
X195381500Y-167952000D02*
X195383500Y-167954000D01*
X195381500Y-165922000D02*
X195381500Y-167952000D01*
X195381500Y-169986000D02*
X195381500Y-167956000D01*
X195381500Y-175654600D02*
X195476900Y-175750000D01*
%TO.N,GND*%
X200926000Y-163220900D02*
X200550000Y-163596900D01*
X200550000Y-165922000D02*
X201800000Y-165922000D01*
X200550000Y-163596900D02*
X200550000Y-165922000D01*
D24*
%TO.N,Net-(J1-Pin_1)*%
X63550000Y-148600000D02*
X67150000Y-145000000D01*
X70750000Y-61400000D02*
X67150000Y-65000000D01*
X63550000Y-61400000D02*
X67150000Y-65000000D01*
%TO.N,Net-(J2-Pin_1)*%
X221050000Y-61400000D02*
X217450000Y-65000000D01*
X213850000Y-148600000D02*
X217450000Y-145000000D01*
X213850000Y-61400000D02*
X217450000Y-65000000D01*
X221050000Y-148600000D02*
X217450000Y-145000000D01*
D20*
%TO.N,Net-(J5-Pin_2)*%
X199614000Y-169986000D02*
X199850000Y-170222000D01*
X199850000Y-173876900D02*
X197976900Y-175750000D01*
X197206500Y-169986000D02*
X199850000Y-169986000D01*
X197206500Y-169986000D02*
X199614000Y-169986000D01*
X199850000Y-169986000D02*
X199850000Y-173876900D01*
%TO.N,Net-(J5-Pin_3)*%
X200500000Y-175726900D02*
X200476900Y-175750000D01*
X199176900Y-167954000D02*
X200500000Y-169277100D01*
X197208500Y-167954000D02*
X199176900Y-167954000D01*
X200500000Y-169277100D02*
X200500000Y-170222000D01*
X200500000Y-170222000D02*
X200500000Y-175726900D01*
%TO.N,Net-(J5-Pin_4)*%
X201150000Y-173923100D02*
X202976900Y-175750000D01*
X201150000Y-170222000D02*
X201150000Y-173923100D01*
X198160900Y-165922000D02*
X201150000Y-168911100D01*
X201150000Y-168911100D02*
X201150000Y-170222000D01*
X197206500Y-165922000D02*
X198160900Y-165922000D01*
%TD*%
%TA.AperFunction,Conductor*%
%TO.N,Net-(J2-Pin_1)*%
G36*
X222041091Y-43614439D02*
G01*
X222081319Y-43641319D01*
X222408680Y-43968680D01*
X222435560Y-44008908D01*
X222444999Y-44056361D01*
X222444999Y-46055573D01*
X222444956Y-46058836D01*
X222444855Y-46062662D01*
X222444500Y-46089388D01*
X222444500Y-59930832D01*
X222444969Y-59952000D01*
X222444999Y-59954747D01*
X222444999Y-61339289D01*
X222445284Y-61363219D01*
X222445425Y-61369169D01*
X222446304Y-61393587D01*
X222447472Y-61417866D01*
X222447391Y-61431268D01*
X222446205Y-61450976D01*
X222445805Y-61460956D01*
X222444999Y-61501214D01*
X222444999Y-70045231D01*
X222444969Y-70047954D01*
X222444501Y-70069150D01*
X222444500Y-70069177D01*
X222444500Y-83910624D01*
X222444852Y-83937220D01*
X222444956Y-83941165D01*
X222444999Y-83944433D01*
X222444999Y-86055573D01*
X222444956Y-86058836D01*
X222444855Y-86062662D01*
X222444500Y-86089388D01*
X222444500Y-99930838D01*
X222444969Y-99952046D01*
X222444999Y-99954787D01*
X222444999Y-110045206D01*
X222444969Y-110047945D01*
X222444500Y-110069174D01*
X222444500Y-123910624D01*
X222444852Y-123937220D01*
X222444956Y-123941165D01*
X222444999Y-123944433D01*
X222444999Y-126055573D01*
X222444956Y-126058836D01*
X222444855Y-126062662D01*
X222444500Y-126089388D01*
X222444500Y-139930832D01*
X222444969Y-139952000D01*
X222444999Y-139954747D01*
X222444999Y-148579760D01*
X222445031Y-148587848D01*
X222445048Y-148589890D01*
X222445143Y-148597864D01*
X222446515Y-148683424D01*
X222446482Y-148688887D01*
X222444999Y-148741772D01*
X222444999Y-150045206D01*
X222444969Y-150047945D01*
X222444500Y-150069174D01*
X222444500Y-163910624D01*
X222444852Y-163937220D01*
X222444956Y-163941165D01*
X222444999Y-163944433D01*
X222444999Y-165943639D01*
X222435560Y-165991092D01*
X222408680Y-166031320D01*
X222076319Y-166363681D01*
X222036091Y-166390561D01*
X221988638Y-166400000D01*
X212574000Y-166400000D01*
X212512000Y-166383387D01*
X212466613Y-166338000D01*
X212450000Y-166276000D01*
X212450000Y-90747989D01*
X212455198Y-88586716D01*
X212450246Y-88508415D01*
X212450000Y-88500592D01*
X212450000Y-87460000D01*
X212449999Y-87459999D01*
X211415934Y-87460154D01*
X211407794Y-87459888D01*
X211338203Y-87455320D01*
X211325701Y-87454500D01*
X149204302Y-87454500D01*
X149083597Y-87461771D01*
X149071987Y-87463889D01*
X149052190Y-87467502D01*
X149029951Y-87469516D01*
X145861373Y-87469992D01*
X145813910Y-87460557D01*
X145773673Y-87433673D01*
X138760000Y-80420000D01*
X131864000Y-80420000D01*
X131802000Y-80403387D01*
X131756613Y-80358000D01*
X131740000Y-80296000D01*
X131740000Y-70589500D01*
X131756613Y-70527500D01*
X131802000Y-70482113D01*
X131864000Y-70465500D01*
X141584138Y-70465500D01*
X141631591Y-70474939D01*
X141671819Y-70501819D01*
X148630000Y-77460000D01*
X149619426Y-77460000D01*
X149631579Y-77460596D01*
X149681362Y-77465500D01*
X211325994Y-77465500D01*
X211326000Y-77465500D01*
X211405873Y-77460264D01*
X211413982Y-77460000D01*
X212450000Y-77460000D01*
X212450000Y-76423982D01*
X212450265Y-76415873D01*
X212455500Y-76335994D01*
X212455500Y-70069168D01*
X212455030Y-70047954D01*
X212455000Y-70045207D01*
X212455000Y-61420237D01*
X212454967Y-61412144D01*
X212454967Y-61412138D01*
X212454951Y-61410150D01*
X212454855Y-61402117D01*
X212453482Y-61316527D01*
X212453514Y-61311133D01*
X212455000Y-61258226D01*
X212455000Y-59954747D01*
X212455030Y-59952036D01*
X212455079Y-59949802D01*
X212455500Y-59930837D01*
X212455500Y-43729500D01*
X212472113Y-43667500D01*
X212517500Y-43622113D01*
X212579500Y-43605500D01*
X217960624Y-43605500D01*
X217963405Y-43605463D01*
X217987230Y-43605148D01*
X217990703Y-43605056D01*
X217991202Y-43605043D01*
X217994470Y-43605000D01*
X221993638Y-43605000D01*
X222041091Y-43614439D01*
G37*
%TD.AperFunction*%
%TD*%
%TA.AperFunction,Conductor*%
%TO.N,Net-(J1-Pin_1)*%
G36*
X71992500Y-43628858D02*
G01*
X72037887Y-43674245D01*
X72054500Y-43736245D01*
X72054500Y-59550744D01*
X72061772Y-59671456D01*
X72061773Y-59671461D01*
X72083481Y-59790414D01*
X72097576Y-59847839D01*
X72134598Y-59967159D01*
X72138320Y-59977359D01*
X72140212Y-59983969D01*
X72144999Y-60018092D01*
X72144999Y-61339289D01*
X72145284Y-61363219D01*
X72145425Y-61369169D01*
X72146304Y-61393587D01*
X72147472Y-61417866D01*
X72147391Y-61431268D01*
X72146205Y-61450976D01*
X72145805Y-61460956D01*
X72144999Y-61501214D01*
X72144999Y-69981906D01*
X72140210Y-70016032D01*
X72139249Y-70019391D01*
X72138317Y-70022648D01*
X72134594Y-70032850D01*
X72097577Y-70152155D01*
X72083481Y-70209585D01*
X72061773Y-70328538D01*
X72061772Y-70328544D01*
X72054500Y-70449256D01*
X72054500Y-80454500D01*
X72054500Y-83376000D01*
X72059793Y-83456766D01*
X72063102Y-83507250D01*
X72088760Y-83636237D01*
X72105376Y-83698248D01*
X72142522Y-83800305D01*
X72150000Y-83842715D01*
X72150000Y-84500000D01*
X73096018Y-84500000D01*
X73104126Y-84500264D01*
X73184000Y-84505500D01*
X134600999Y-84505500D01*
X134662999Y-84522113D01*
X134708386Y-84567500D01*
X134724999Y-84629500D01*
X134724999Y-85502830D01*
X134724512Y-85513810D01*
X134723515Y-85525025D01*
X134721304Y-85539769D01*
X134719030Y-85550489D01*
X134714246Y-85584601D01*
X134704500Y-85724259D01*
X134704500Y-95808245D01*
X134687887Y-95870245D01*
X134642500Y-95915632D01*
X134580500Y-95932245D01*
X72150000Y-95932245D01*
X72150000Y-96755489D01*
X72145775Y-96787581D01*
X72138762Y-96813754D01*
X72113102Y-96942749D01*
X72113102Y-96942755D01*
X72104500Y-97074000D01*
X72104500Y-97074008D01*
X72104500Y-99700745D01*
X72114245Y-99840399D01*
X72119028Y-99874504D01*
X72142300Y-99984217D01*
X72144999Y-100009947D01*
X72144999Y-109990049D01*
X72142300Y-110015778D01*
X72119029Y-110125491D01*
X72114245Y-110159602D01*
X72104500Y-110299255D01*
X72104500Y-139700745D01*
X72114245Y-139840399D01*
X72119028Y-139874504D01*
X72142300Y-139984217D01*
X72144999Y-140009947D01*
X72144999Y-149990049D01*
X72142300Y-150015778D01*
X72119029Y-150125491D01*
X72114245Y-150159602D01*
X72104500Y-150299255D01*
X72104500Y-166270500D01*
X72087887Y-166332500D01*
X72042500Y-166377887D01*
X71980500Y-166394500D01*
X66639376Y-166394500D01*
X66625377Y-166394685D01*
X66612770Y-166394852D01*
X66610568Y-166394910D01*
X66608835Y-166394956D01*
X66605567Y-166394999D01*
X62604116Y-166394999D01*
X62556663Y-166385560D01*
X62516435Y-166358680D01*
X62186319Y-166028564D01*
X62159439Y-165988336D01*
X62150000Y-165940883D01*
X62150000Y-44083607D01*
X62159439Y-44036154D01*
X62186319Y-43995926D01*
X62533681Y-43648564D01*
X62573909Y-43621684D01*
X62621362Y-43612245D01*
X71930500Y-43612245D01*
X71992500Y-43628858D01*
G37*
%TD.AperFunction*%
%TD*%
%TA.AperFunction,Conductor*%
%TO.N,GND*%
G36*
X222956091Y-21009439D02*
G01*
X222996319Y-21036319D01*
X225923681Y-23963681D01*
X225950561Y-24003909D01*
X225960000Y-24051362D01*
X225960000Y-185948638D01*
X225950561Y-185996091D01*
X225923681Y-186036319D01*
X222996319Y-188963681D01*
X222956091Y-188990561D01*
X222908638Y-189000000D01*
X61011362Y-189000000D01*
X60963909Y-188990561D01*
X60923681Y-188963681D01*
X58375892Y-186415892D01*
X74649500Y-186415892D01*
X74683607Y-186543186D01*
X74749499Y-186657314D01*
X74842685Y-186750500D01*
X74956813Y-186816392D01*
X75084108Y-186850500D01*
X75149901Y-186850500D01*
X75150000Y-186850500D01*
X75150500Y-186850500D01*
X84149500Y-186850500D01*
X84150099Y-186850500D01*
X84215892Y-186850500D01*
X84343186Y-186816392D01*
X84457314Y-186750500D01*
X84550500Y-186657314D01*
X84616392Y-186543186D01*
X84650500Y-186415892D01*
X84650500Y-186284108D01*
X84616392Y-186156813D01*
X84550500Y-186042685D01*
X84457314Y-185949499D01*
X84343186Y-185883607D01*
X84215892Y-185849500D01*
X84150099Y-185849500D01*
X75150500Y-185849500D01*
X75150000Y-185849500D01*
X75084108Y-185849500D01*
X74956813Y-185883607D01*
X74842685Y-185949499D01*
X74749499Y-186042685D01*
X74683607Y-186156813D01*
X74649500Y-186284108D01*
X74649500Y-186415892D01*
X58375892Y-186415892D01*
X57996319Y-186036319D01*
X57969439Y-185996091D01*
X57960000Y-185948638D01*
X57960000Y-176539214D01*
X193626400Y-176539214D01*
X193636804Y-176671416D01*
X193691802Y-176889681D01*
X193784892Y-177094625D01*
X193913080Y-177279654D01*
X194072245Y-177438819D01*
X194257274Y-177567007D01*
X194462218Y-177660097D01*
X194680483Y-177715095D01*
X194680484Y-177715095D01*
X194680488Y-177715096D01*
X194812683Y-177725500D01*
X196141116Y-177725499D01*
X196273312Y-177715096D01*
X196273316Y-177715095D01*
X196491581Y-177660097D01*
X196512237Y-177650714D01*
X196696526Y-177567007D01*
X196861025Y-177453041D01*
X196907377Y-177433368D01*
X196957736Y-177433750D01*
X197003788Y-177454125D01*
X197010321Y-177458799D01*
X197251225Y-177582656D01*
X197393140Y-177631071D01*
X197507595Y-177670118D01*
X197773966Y-177719319D01*
X198044664Y-177729212D01*
X198044664Y-177729211D01*
X198044665Y-177729212D01*
X198313918Y-177699586D01*
X198575988Y-177631072D01*
X198825290Y-177525130D01*
X199056510Y-177384018D01*
X199144379Y-177310892D01*
X199192334Y-177286237D01*
X199246221Y-177284268D01*
X199295848Y-177305356D01*
X199510321Y-177458799D01*
X199751225Y-177582656D01*
X199893140Y-177631071D01*
X200007595Y-177670118D01*
X200273966Y-177719319D01*
X200544664Y-177729212D01*
X200544664Y-177729211D01*
X200544665Y-177729212D01*
X200813918Y-177699586D01*
X201075988Y-177631072D01*
X201325290Y-177525130D01*
X201556510Y-177384018D01*
X201644379Y-177310892D01*
X201692334Y-177286237D01*
X201746221Y-177284268D01*
X201795848Y-177305356D01*
X202010321Y-177458799D01*
X202251225Y-177582656D01*
X202393140Y-177631071D01*
X202507595Y-177670118D01*
X202773966Y-177719319D01*
X203044664Y-177729212D01*
X203044664Y-177729211D01*
X203044665Y-177729212D01*
X203313918Y-177699586D01*
X203575988Y-177631072D01*
X203825290Y-177525130D01*
X204056510Y-177384018D01*
X204264720Y-177210745D01*
X204445482Y-177009002D01*
X204594944Y-176783090D01*
X204702263Y-176554155D01*
X204709921Y-176537822D01*
X204787958Y-176278437D01*
X204787960Y-176278431D01*
X204827400Y-176010439D01*
X204827400Y-175557369D01*
X204812577Y-175354844D01*
X204753680Y-175090447D01*
X204656914Y-174837442D01*
X204524341Y-174601223D01*
X204358788Y-174386823D01*
X204163781Y-174198814D01*
X203943479Y-174041201D01*
X203702575Y-173917344D01*
X203702571Y-173917342D01*
X203702570Y-173917342D01*
X203446204Y-173829881D01*
X203179833Y-173780680D01*
X202909134Y-173770787D01*
X202712087Y-173792468D01*
X202657418Y-173786200D01*
X202610845Y-173756893D01*
X202336819Y-173482866D01*
X202309939Y-173442638D01*
X202300500Y-173395185D01*
X202300500Y-171104458D01*
X202305284Y-171070347D01*
X202309496Y-171055625D01*
X202339886Y-170949418D01*
X202350500Y-170830037D01*
X202350499Y-169613964D01*
X202339886Y-169494582D01*
X202305284Y-169373653D01*
X202300500Y-169339542D01*
X202300500Y-168940554D01*
X202300632Y-168934828D01*
X202300659Y-168934224D01*
X202304196Y-168857738D01*
X202293534Y-168781310D01*
X202292875Y-168775622D01*
X202285756Y-168698794D01*
X202285756Y-168698790D01*
X202280787Y-168681328D01*
X202277245Y-168664536D01*
X202274739Y-168646564D01*
X202250198Y-168573347D01*
X202248533Y-168567969D01*
X202227405Y-168493711D01*
X202219317Y-168477468D01*
X202212744Y-168461600D01*
X202206979Y-168444398D01*
X202169418Y-168376963D01*
X202166770Y-168371938D01*
X202155574Y-168349454D01*
X202132366Y-168302845D01*
X202121434Y-168288370D01*
X202112058Y-168273980D01*
X202103227Y-168258125D01*
X202053921Y-168198749D01*
X202050364Y-168194258D01*
X202003873Y-168132694D01*
X201946829Y-168080691D01*
X201942687Y-168076735D01*
X200954653Y-167088700D01*
X200926420Y-167045065D01*
X200918551Y-166993692D01*
X200932426Y-166943607D01*
X200934206Y-166940201D01*
X200983909Y-166845049D01*
X201039886Y-166649418D01*
X201050500Y-166530037D01*
X201050499Y-166304659D01*
X201058406Y-166261088D01*
X201060307Y-166256024D01*
X201100500Y-166034547D01*
X201100500Y-163772076D01*
X201101280Y-163758191D01*
X201105237Y-163723071D01*
X201100781Y-163656977D01*
X201100500Y-163648636D01*
X201100500Y-163638748D01*
X201100241Y-163635873D01*
X201096842Y-163598108D01*
X201096626Y-163595352D01*
X201090096Y-163498489D01*
X201090096Y-163498487D01*
X201089027Y-163494245D01*
X201085768Y-163475057D01*
X201085377Y-163470712D01*
X201059534Y-163377073D01*
X201058840Y-163374447D01*
X201035096Y-163280216D01*
X201033290Y-163276240D01*
X201026655Y-163257940D01*
X201025493Y-163253730D01*
X200983346Y-163166211D01*
X200982189Y-163163739D01*
X200959709Y-163114246D01*
X200942008Y-163075275D01*
X200941062Y-163073910D01*
X200939517Y-163071680D01*
X200929724Y-163054862D01*
X200927830Y-163050929D01*
X200927829Y-163050927D01*
X200870676Y-162972262D01*
X200869159Y-162970123D01*
X200856994Y-162952564D01*
X200845612Y-162936134D01*
X200823924Y-162875249D01*
X200822414Y-162856058D01*
X200816304Y-162778415D01*
X200762404Y-162564507D01*
X200671176Y-162363661D01*
X200660025Y-162347565D01*
X200545551Y-162182332D01*
X200389567Y-162026348D01*
X200208238Y-161900723D01*
X200007396Y-161809497D01*
X200007394Y-161809496D01*
X200007393Y-161809496D01*
X199793485Y-161755596D01*
X199663933Y-161745400D01*
X199663929Y-161745400D01*
X199088069Y-161745400D01*
X198968710Y-161754793D01*
X198958515Y-161755596D01*
X198751113Y-161807856D01*
X198744603Y-161809497D01*
X198543761Y-161900723D01*
X198475049Y-161948328D01*
X198441426Y-161964753D01*
X198404433Y-161970400D01*
X196725176Y-161970400D01*
X196711293Y-161969620D01*
X196706815Y-161969115D01*
X196676171Y-161965662D01*
X196610077Y-161970119D01*
X196601736Y-161970400D01*
X196591842Y-161970400D01*
X196551238Y-161974053D01*
X196548470Y-161974271D01*
X196451585Y-161980804D01*
X196447343Y-161981873D01*
X196428180Y-161985129D01*
X196423814Y-161985522D01*
X196330152Y-162011370D01*
X196327465Y-162012079D01*
X196233311Y-162035804D01*
X196229328Y-162037614D01*
X196211050Y-162044241D01*
X196206833Y-162045405D01*
X196119323Y-162087546D01*
X196116806Y-162088723D01*
X196028374Y-162128891D01*
X196024776Y-162131385D01*
X196007972Y-162141171D01*
X196004027Y-162143070D01*
X195925434Y-162200170D01*
X195923169Y-162201777D01*
X195843339Y-162257085D01*
X195840239Y-162260185D01*
X195825464Y-162272804D01*
X195821921Y-162275378D01*
X195754803Y-162345577D01*
X195752859Y-162347565D01*
X194551843Y-163548581D01*
X194541480Y-163557843D01*
X194513835Y-163579891D01*
X194470235Y-163629792D01*
X194464550Y-163635873D01*
X194457559Y-163642864D01*
X194431428Y-163674164D01*
X194429624Y-163676276D01*
X194365735Y-163749403D01*
X194363486Y-163753167D01*
X194352239Y-163769017D01*
X194349432Y-163772379D01*
X194301478Y-163856890D01*
X194300104Y-163859249D01*
X194294295Y-163868974D01*
X194250282Y-163942641D01*
X194248746Y-163946735D01*
X194240509Y-163964344D01*
X194238347Y-163968153D01*
X194206262Y-164059844D01*
X194205314Y-164062457D01*
X194171191Y-164153378D01*
X194170410Y-164157682D01*
X194165450Y-164176477D01*
X194164001Y-164180617D01*
X194148804Y-164276566D01*
X194148338Y-164279307D01*
X194131000Y-164374850D01*
X194131000Y-164379230D01*
X194129473Y-164398629D01*
X194128790Y-164402939D01*
X194130969Y-164500040D01*
X194131000Y-164502822D01*
X194131000Y-164663492D01*
X194125353Y-164700485D01*
X194108928Y-164734108D01*
X194026992Y-164852374D01*
X193933902Y-165057318D01*
X193878904Y-165275583D01*
X193868500Y-165407786D01*
X193868500Y-166436214D01*
X193878904Y-166568416D01*
X193933902Y-166786682D01*
X193980341Y-166888920D01*
X193991442Y-166940201D01*
X193980342Y-166991481D01*
X193935902Y-167089320D01*
X193880904Y-167307583D01*
X193870500Y-167439786D01*
X193870500Y-168468214D01*
X193880904Y-168600416D01*
X193935902Y-168818682D01*
X193980341Y-168916517D01*
X193991442Y-168967798D01*
X193980342Y-169019078D01*
X193933902Y-169121320D01*
X193878904Y-169339583D01*
X193868500Y-169471786D01*
X193868500Y-170500214D01*
X193878904Y-170632416D01*
X193933902Y-170850681D01*
X194026992Y-171055625D01*
X194108928Y-171173892D01*
X194125353Y-171207515D01*
X194131000Y-171244508D01*
X194131000Y-173955532D01*
X194116846Y-174013063D01*
X194077616Y-174057460D01*
X194075279Y-174059079D01*
X194072241Y-174061184D01*
X193913080Y-174220345D01*
X193784892Y-174405374D01*
X193691802Y-174610318D01*
X193636804Y-174828583D01*
X193626400Y-174960786D01*
X193626400Y-176539214D01*
X57960000Y-176539214D01*
X57960000Y-167400000D01*
X61110000Y-167400000D01*
X62460609Y-167400000D01*
X62467185Y-167400174D01*
X62473307Y-167400500D01*
X66626692Y-167400499D01*
X66629616Y-167400343D01*
X66632815Y-167400174D01*
X66639386Y-167400000D01*
X73110000Y-167400000D01*
X73110000Y-150299257D01*
X73114784Y-150265146D01*
X73117206Y-150256680D01*
X73139886Y-150177418D01*
X73150500Y-150058037D01*
X73150499Y-139941964D01*
X73139886Y-139822582D01*
X73114784Y-139734854D01*
X73110000Y-139700743D01*
X73110000Y-110299257D01*
X73114784Y-110265146D01*
X73117206Y-110256680D01*
X73139886Y-110177418D01*
X73150500Y-110058037D01*
X73150499Y-99941964D01*
X73139886Y-99822582D01*
X73114784Y-99734854D01*
X73110000Y-99700743D01*
X73110000Y-97074000D01*
X73126613Y-97012000D01*
X73172000Y-96966613D01*
X73234000Y-96950000D01*
X135710000Y-96950000D01*
X135710000Y-85724260D01*
X135714784Y-85690150D01*
X135719885Y-85672321D01*
X135719884Y-85672321D01*
X135719886Y-85672318D01*
X135730500Y-85552937D01*
X135730499Y-84447064D01*
X135719886Y-84327682D01*
X135714784Y-84309850D01*
X135710000Y-84275740D01*
X135710000Y-83500000D01*
X73184000Y-83500000D01*
X73122000Y-83483387D01*
X73076613Y-83438000D01*
X73060000Y-83376000D01*
X73060000Y-81460000D01*
X130550000Y-81460000D01*
X137518638Y-81460000D01*
X137566091Y-81469439D01*
X137606319Y-81496319D01*
X138533681Y-82423681D01*
X138560561Y-82463909D01*
X138570000Y-82511362D01*
X138570000Y-88460000D01*
X139291498Y-88460000D01*
X139348907Y-88474090D01*
X139518751Y-88562809D01*
X139714382Y-88618786D01*
X139833763Y-88629400D01*
X148662036Y-88629399D01*
X148781418Y-88618786D01*
X148977049Y-88562809D01*
X149146892Y-88474090D01*
X149204302Y-88460000D01*
X211325701Y-88460000D01*
X211387787Y-88476663D01*
X211433187Y-88522172D01*
X211449701Y-88584298D01*
X211260000Y-167460000D01*
X223450000Y-167460000D01*
X223450000Y-166089391D01*
X223450175Y-166082809D01*
X223450500Y-166076693D01*
X223450499Y-163923308D01*
X223450174Y-163917185D01*
X223450000Y-163910614D01*
X223450000Y-150069163D01*
X223450487Y-150058184D01*
X223450487Y-150058174D01*
X223450500Y-150058037D01*
X223450499Y-148741780D01*
X223451279Y-148727892D01*
X223452662Y-148715620D01*
X223450515Y-148581756D01*
X223450499Y-148579767D01*
X223450499Y-139941965D01*
X223450487Y-139941830D01*
X223450000Y-139930850D01*
X223450000Y-126089391D01*
X223450175Y-126082809D01*
X223450500Y-126076693D01*
X223450499Y-123923308D01*
X223450174Y-123917185D01*
X223450000Y-123910614D01*
X223450000Y-110069163D01*
X223450487Y-110058184D01*
X223450487Y-110058174D01*
X223450500Y-110058037D01*
X223450499Y-99941964D01*
X223450486Y-99941828D01*
X223450000Y-99930850D01*
X223450000Y-86089391D01*
X223450175Y-86082809D01*
X223450500Y-86076693D01*
X223450499Y-83923308D01*
X223450174Y-83917185D01*
X223450000Y-83910614D01*
X223450000Y-70069163D01*
X223450487Y-70058184D01*
X223450488Y-70058170D01*
X223450500Y-70058037D01*
X223450499Y-61501220D01*
X223450897Y-61491294D01*
X223455133Y-61438554D01*
X223450641Y-61345231D01*
X223450499Y-61339273D01*
X223450499Y-59941965D01*
X223450487Y-59941830D01*
X223450000Y-59930850D01*
X223450000Y-46089391D01*
X223450175Y-46082809D01*
X223450500Y-46076693D01*
X223450499Y-43923308D01*
X223450174Y-43917185D01*
X223450000Y-43910614D01*
X223450000Y-42600000D01*
X222139391Y-42600000D01*
X222132814Y-42599825D01*
X222128401Y-42599590D01*
X222126694Y-42599500D01*
X217973309Y-42599500D01*
X217967185Y-42599826D01*
X217960614Y-42600000D01*
X211450000Y-42600000D01*
X211450000Y-59930837D01*
X211449513Y-59941816D01*
X211449500Y-59941962D01*
X211449500Y-61258226D01*
X211448720Y-61272112D01*
X211447337Y-61284378D01*
X211449484Y-61418242D01*
X211449500Y-61420230D01*
X211449500Y-70058035D01*
X211449513Y-70058170D01*
X211450000Y-70069150D01*
X211450000Y-76336000D01*
X211433387Y-76398000D01*
X211388000Y-76443387D01*
X211326000Y-76460000D01*
X149681362Y-76460000D01*
X149633909Y-76450561D01*
X149593681Y-76423681D01*
X142630000Y-69460000D01*
X130550000Y-69460000D01*
X130550000Y-81460000D01*
X73060000Y-81460000D01*
X73060000Y-70449256D01*
X73074091Y-70391845D01*
X73083908Y-70373050D01*
X73083909Y-70373049D01*
X73139886Y-70177418D01*
X73150500Y-70058037D01*
X73150499Y-61501220D01*
X73150897Y-61491294D01*
X73155133Y-61438554D01*
X73150641Y-61345231D01*
X73150499Y-61339273D01*
X73150499Y-59941966D01*
X73149510Y-59930837D01*
X73139886Y-59822582D01*
X73083909Y-59626951D01*
X73074091Y-59608155D01*
X73060000Y-59550744D01*
X73060000Y-42600000D01*
X66639391Y-42600000D01*
X66632814Y-42599825D01*
X66628401Y-42599590D01*
X66626694Y-42599500D01*
X62473309Y-42599500D01*
X62467185Y-42599826D01*
X62460614Y-42600000D01*
X61110000Y-42600000D01*
X61110000Y-167400000D01*
X57960000Y-167400000D01*
X57960000Y-24051362D01*
X57969439Y-24003909D01*
X57996319Y-23963681D01*
X58244108Y-23715892D01*
X199349500Y-23715892D01*
X199383607Y-23843186D01*
X199449499Y-23957314D01*
X199542685Y-24050500D01*
X199656813Y-24116392D01*
X199784108Y-24150500D01*
X199849901Y-24150500D01*
X199850000Y-24150500D01*
X199850500Y-24150500D01*
X208849500Y-24150500D01*
X208850099Y-24150500D01*
X208915892Y-24150500D01*
X209043186Y-24116392D01*
X209157314Y-24050500D01*
X209250500Y-23957314D01*
X209316392Y-23843186D01*
X209350500Y-23715892D01*
X209350500Y-23584108D01*
X209316392Y-23456813D01*
X209250500Y-23342685D01*
X209157314Y-23249499D01*
X209043186Y-23183607D01*
X208915892Y-23149500D01*
X208850099Y-23149500D01*
X199850500Y-23149500D01*
X199850000Y-23149500D01*
X199784108Y-23149500D01*
X199656813Y-23183607D01*
X199542685Y-23249499D01*
X199449499Y-23342685D01*
X199383607Y-23456813D01*
X199349500Y-23584108D01*
X199349500Y-23715892D01*
X58244108Y-23715892D01*
X60923681Y-21036319D01*
X60963909Y-21009439D01*
X61011362Y-21000000D01*
X222908638Y-21000000D01*
X222956091Y-21009439D01*
G37*
%TD.AperFunction*%
%TD*%
M02*
