%TF.GenerationSoftware,KiCad,Pcbnew,9.0.0*%
%TF.CreationDate,2025-07-07T23:18:44+09:00*%
%TF.ProjectId,MPPT_TYPE2-1,4d505054-5f54-4595-9045-322d312e6b69,rev?*%
%TF.SameCoordinates,Original*%
%TF.FileFunction,Legend,Bot*%
%TF.FilePolarity,Positive*%
%FSLAX46Y46*%
G04 Gerber Fmt 4.6, Leading zero omitted, Abs format (unit mm)*
G04 Created by KiCad (PCBNEW 9.0.0) date 2025-07-07 23:18:44*
%MOMM*%
%LPD*%
G01*
G04 APERTURE LIST*
%ADD10C,0.300000*%
%ADD11C,0.100000*%
%ADD12C,0.150000*%
%ADD13C,0.152400*%
%ADD14C,0.508000*%
G04 APERTURE END LIST*
D10*
X201140225Y-99100828D02*
X200854511Y-99100828D01*
X200854511Y-99100828D02*
X200711654Y-99172257D01*
X200711654Y-99172257D02*
X200568797Y-99315114D01*
X200568797Y-99315114D02*
X200497368Y-99600828D01*
X200497368Y-99600828D02*
X200497368Y-100100828D01*
X200497368Y-100100828D02*
X200568797Y-100386542D01*
X200568797Y-100386542D02*
X200711654Y-100529400D01*
X200711654Y-100529400D02*
X200854511Y-100600828D01*
X200854511Y-100600828D02*
X201140225Y-100600828D01*
X201140225Y-100600828D02*
X201283083Y-100529400D01*
X201283083Y-100529400D02*
X201425940Y-100386542D01*
X201425940Y-100386542D02*
X201497368Y-100100828D01*
X201497368Y-100100828D02*
X201497368Y-99600828D01*
X201497368Y-99600828D02*
X201425940Y-99315114D01*
X201425940Y-99315114D02*
X201283083Y-99172257D01*
X201283083Y-99172257D02*
X201140225Y-99100828D01*
X199854511Y-99100828D02*
X199854511Y-100315114D01*
X199854511Y-100315114D02*
X199783082Y-100457971D01*
X199783082Y-100457971D02*
X199711654Y-100529400D01*
X199711654Y-100529400D02*
X199568796Y-100600828D01*
X199568796Y-100600828D02*
X199283082Y-100600828D01*
X199283082Y-100600828D02*
X199140225Y-100529400D01*
X199140225Y-100529400D02*
X199068796Y-100457971D01*
X199068796Y-100457971D02*
X198997368Y-100315114D01*
X198997368Y-100315114D02*
X198997368Y-99100828D01*
X198497367Y-99100828D02*
X197640225Y-99100828D01*
X198068796Y-100600828D02*
X198068796Y-99100828D01*
X195997368Y-100029400D02*
X194854511Y-100029400D01*
X111945489Y-82300828D02*
X111945489Y-80800828D01*
X111231203Y-82300828D02*
X111231203Y-80800828D01*
X111231203Y-80800828D02*
X110374060Y-82300828D01*
X110374060Y-82300828D02*
X110374060Y-80800828D01*
X108516917Y-81729400D02*
X107374060Y-81729400D01*
X107945488Y-82300828D02*
X107945488Y-81157971D01*
D11*
X136527693Y-103527580D02*
X135956265Y-103527580D01*
X136241979Y-103527580D02*
X136241979Y-104527580D01*
X136241979Y-104527580D02*
X136146741Y-104384723D01*
X136146741Y-104384723D02*
X136051503Y-104289485D01*
X136051503Y-104289485D02*
X135956265Y-104241866D01*
X137003884Y-103575200D02*
X137003884Y-103527580D01*
X137003884Y-103527580D02*
X136956265Y-103432342D01*
X136956265Y-103432342D02*
X136908646Y-103384723D01*
X137432455Y-103527580D02*
X137432455Y-104527580D01*
X137432455Y-104527580D02*
X138003883Y-103527580D01*
X138003883Y-103527580D02*
X138003883Y-104527580D01*
X139051502Y-103622819D02*
X139003883Y-103575200D01*
X139003883Y-103575200D02*
X138861026Y-103527580D01*
X138861026Y-103527580D02*
X138765788Y-103527580D01*
X138765788Y-103527580D02*
X138622931Y-103575200D01*
X138622931Y-103575200D02*
X138527693Y-103670438D01*
X138527693Y-103670438D02*
X138480074Y-103765676D01*
X138480074Y-103765676D02*
X138432455Y-103956152D01*
X138432455Y-103956152D02*
X138432455Y-104099009D01*
X138432455Y-104099009D02*
X138480074Y-104289485D01*
X138480074Y-104289485D02*
X138527693Y-104384723D01*
X138527693Y-104384723D02*
X138622931Y-104479961D01*
X138622931Y-104479961D02*
X138765788Y-104527580D01*
X138765788Y-104527580D02*
X138861026Y-104527580D01*
X138861026Y-104527580D02*
X139003883Y-104479961D01*
X139003883Y-104479961D02*
X139051502Y-104432342D01*
X140194360Y-104432342D02*
X140241979Y-104479961D01*
X140241979Y-104479961D02*
X140337217Y-104527580D01*
X140337217Y-104527580D02*
X140575312Y-104527580D01*
X140575312Y-104527580D02*
X140670550Y-104479961D01*
X140670550Y-104479961D02*
X140718169Y-104432342D01*
X140718169Y-104432342D02*
X140765788Y-104337104D01*
X140765788Y-104337104D02*
X140765788Y-104241866D01*
X140765788Y-104241866D02*
X140718169Y-104099009D01*
X140718169Y-104099009D02*
X140146741Y-103527580D01*
X140146741Y-103527580D02*
X140765788Y-103527580D01*
X141241979Y-103575200D02*
X141241979Y-103527580D01*
X141241979Y-103527580D02*
X141194360Y-103432342D01*
X141194360Y-103432342D02*
X141146741Y-103384723D01*
X141622931Y-103575200D02*
X141765788Y-103527580D01*
X141765788Y-103527580D02*
X142003883Y-103527580D01*
X142003883Y-103527580D02*
X142099121Y-103575200D01*
X142099121Y-103575200D02*
X142146740Y-103622819D01*
X142146740Y-103622819D02*
X142194359Y-103718057D01*
X142194359Y-103718057D02*
X142194359Y-103813295D01*
X142194359Y-103813295D02*
X142146740Y-103908533D01*
X142146740Y-103908533D02*
X142099121Y-103956152D01*
X142099121Y-103956152D02*
X142003883Y-104003771D01*
X142003883Y-104003771D02*
X141813407Y-104051390D01*
X141813407Y-104051390D02*
X141718169Y-104099009D01*
X141718169Y-104099009D02*
X141670550Y-104146628D01*
X141670550Y-104146628D02*
X141622931Y-104241866D01*
X141622931Y-104241866D02*
X141622931Y-104337104D01*
X141622931Y-104337104D02*
X141670550Y-104432342D01*
X141670550Y-104432342D02*
X141718169Y-104479961D01*
X141718169Y-104479961D02*
X141813407Y-104527580D01*
X141813407Y-104527580D02*
X142051502Y-104527580D01*
X142051502Y-104527580D02*
X142194359Y-104479961D01*
X142575312Y-103575200D02*
X142718169Y-103527580D01*
X142718169Y-103527580D02*
X142956264Y-103527580D01*
X142956264Y-103527580D02*
X143051502Y-103575200D01*
X143051502Y-103575200D02*
X143099121Y-103622819D01*
X143099121Y-103622819D02*
X143146740Y-103718057D01*
X143146740Y-103718057D02*
X143146740Y-103813295D01*
X143146740Y-103813295D02*
X143099121Y-103908533D01*
X143099121Y-103908533D02*
X143051502Y-103956152D01*
X143051502Y-103956152D02*
X142956264Y-104003771D01*
X142956264Y-104003771D02*
X142765788Y-104051390D01*
X142765788Y-104051390D02*
X142670550Y-104099009D01*
X142670550Y-104099009D02*
X142622931Y-104146628D01*
X142622931Y-104146628D02*
X142575312Y-104241866D01*
X142575312Y-104241866D02*
X142575312Y-104337104D01*
X142575312Y-104337104D02*
X142622931Y-104432342D01*
X142622931Y-104432342D02*
X142670550Y-104479961D01*
X142670550Y-104479961D02*
X142765788Y-104527580D01*
X142765788Y-104527580D02*
X143003883Y-104527580D01*
X143003883Y-104527580D02*
X143146740Y-104479961D01*
X144241979Y-104527580D02*
X144861026Y-104527580D01*
X144861026Y-104527580D02*
X144527693Y-104146628D01*
X144527693Y-104146628D02*
X144670550Y-104146628D01*
X144670550Y-104146628D02*
X144765788Y-104099009D01*
X144765788Y-104099009D02*
X144813407Y-104051390D01*
X144813407Y-104051390D02*
X144861026Y-103956152D01*
X144861026Y-103956152D02*
X144861026Y-103718057D01*
X144861026Y-103718057D02*
X144813407Y-103622819D01*
X144813407Y-103622819D02*
X144765788Y-103575200D01*
X144765788Y-103575200D02*
X144670550Y-103527580D01*
X144670550Y-103527580D02*
X144384836Y-103527580D01*
X144384836Y-103527580D02*
X144289598Y-103575200D01*
X144289598Y-103575200D02*
X144241979Y-103622819D01*
X145337217Y-103575200D02*
X145337217Y-103527580D01*
X145337217Y-103527580D02*
X145289598Y-103432342D01*
X145289598Y-103432342D02*
X145241979Y-103384723D01*
X145765788Y-103527580D02*
X145765788Y-104527580D01*
X145765788Y-104527580D02*
X146099121Y-103813295D01*
X146099121Y-103813295D02*
X146432454Y-104527580D01*
X146432454Y-104527580D02*
X146432454Y-103527580D01*
X147099121Y-104527580D02*
X147289597Y-104527580D01*
X147289597Y-104527580D02*
X147384835Y-104479961D01*
X147384835Y-104479961D02*
X147480073Y-104384723D01*
X147480073Y-104384723D02*
X147527692Y-104194247D01*
X147527692Y-104194247D02*
X147527692Y-103860914D01*
X147527692Y-103860914D02*
X147480073Y-103670438D01*
X147480073Y-103670438D02*
X147384835Y-103575200D01*
X147384835Y-103575200D02*
X147289597Y-103527580D01*
X147289597Y-103527580D02*
X147099121Y-103527580D01*
X147099121Y-103527580D02*
X147003883Y-103575200D01*
X147003883Y-103575200D02*
X146908645Y-103670438D01*
X146908645Y-103670438D02*
X146861026Y-103860914D01*
X146861026Y-103860914D02*
X146861026Y-104194247D01*
X146861026Y-104194247D02*
X146908645Y-104384723D01*
X146908645Y-104384723D02*
X147003883Y-104479961D01*
X147003883Y-104479961D02*
X147099121Y-104527580D01*
X147908645Y-103575200D02*
X148051502Y-103527580D01*
X148051502Y-103527580D02*
X148289597Y-103527580D01*
X148289597Y-103527580D02*
X148384835Y-103575200D01*
X148384835Y-103575200D02*
X148432454Y-103622819D01*
X148432454Y-103622819D02*
X148480073Y-103718057D01*
X148480073Y-103718057D02*
X148480073Y-103813295D01*
X148480073Y-103813295D02*
X148432454Y-103908533D01*
X148432454Y-103908533D02*
X148384835Y-103956152D01*
X148384835Y-103956152D02*
X148289597Y-104003771D01*
X148289597Y-104003771D02*
X148099121Y-104051390D01*
X148099121Y-104051390D02*
X148003883Y-104099009D01*
X148003883Y-104099009D02*
X147956264Y-104146628D01*
X147956264Y-104146628D02*
X147908645Y-104241866D01*
X147908645Y-104241866D02*
X147908645Y-104337104D01*
X147908645Y-104337104D02*
X147956264Y-104432342D01*
X147956264Y-104432342D02*
X148003883Y-104479961D01*
X148003883Y-104479961D02*
X148099121Y-104527580D01*
X148099121Y-104527580D02*
X148337216Y-104527580D01*
X148337216Y-104527580D02*
X148480073Y-104479961D01*
X148908645Y-103527580D02*
X148908645Y-104527580D01*
X150575311Y-104194247D02*
X150575311Y-103527580D01*
X150337216Y-104575200D02*
X150099121Y-103860914D01*
X150099121Y-103860914D02*
X150718168Y-103860914D01*
X151146740Y-103575200D02*
X151146740Y-103527580D01*
X151146740Y-103527580D02*
X151099121Y-103432342D01*
X151099121Y-103432342D02*
X151051502Y-103384723D01*
X151527692Y-103575200D02*
X151670549Y-103527580D01*
X151670549Y-103527580D02*
X151908644Y-103527580D01*
X151908644Y-103527580D02*
X152003882Y-103575200D01*
X152003882Y-103575200D02*
X152051501Y-103622819D01*
X152051501Y-103622819D02*
X152099120Y-103718057D01*
X152099120Y-103718057D02*
X152099120Y-103813295D01*
X152099120Y-103813295D02*
X152051501Y-103908533D01*
X152051501Y-103908533D02*
X152003882Y-103956152D01*
X152003882Y-103956152D02*
X151908644Y-104003771D01*
X151908644Y-104003771D02*
X151718168Y-104051390D01*
X151718168Y-104051390D02*
X151622930Y-104099009D01*
X151622930Y-104099009D02*
X151575311Y-104146628D01*
X151575311Y-104146628D02*
X151527692Y-104241866D01*
X151527692Y-104241866D02*
X151527692Y-104337104D01*
X151527692Y-104337104D02*
X151575311Y-104432342D01*
X151575311Y-104432342D02*
X151622930Y-104479961D01*
X151622930Y-104479961D02*
X151718168Y-104527580D01*
X151718168Y-104527580D02*
X151956263Y-104527580D01*
X151956263Y-104527580D02*
X152099120Y-104479961D01*
X153099120Y-103622819D02*
X153051501Y-103575200D01*
X153051501Y-103575200D02*
X152908644Y-103527580D01*
X152908644Y-103527580D02*
X152813406Y-103527580D01*
X152813406Y-103527580D02*
X152670549Y-103575200D01*
X152670549Y-103575200D02*
X152575311Y-103670438D01*
X152575311Y-103670438D02*
X152527692Y-103765676D01*
X152527692Y-103765676D02*
X152480073Y-103956152D01*
X152480073Y-103956152D02*
X152480073Y-104099009D01*
X152480073Y-104099009D02*
X152527692Y-104289485D01*
X152527692Y-104289485D02*
X152575311Y-104384723D01*
X152575311Y-104384723D02*
X152670549Y-104479961D01*
X152670549Y-104479961D02*
X152813406Y-104527580D01*
X152813406Y-104527580D02*
X152908644Y-104527580D01*
X152908644Y-104527580D02*
X153051501Y-104479961D01*
X153051501Y-104479961D02*
X153099120Y-104432342D01*
X154003882Y-103527580D02*
X153527692Y-103527580D01*
X153527692Y-103527580D02*
X153527692Y-104527580D01*
X154337216Y-103527580D02*
X154337216Y-104527580D01*
X154908644Y-103527580D02*
X154480073Y-104099009D01*
X154908644Y-104527580D02*
X154337216Y-103956152D01*
X156575311Y-104527580D02*
X156099121Y-104527580D01*
X156099121Y-104527580D02*
X156051502Y-104051390D01*
X156051502Y-104051390D02*
X156099121Y-104099009D01*
X156099121Y-104099009D02*
X156194359Y-104146628D01*
X156194359Y-104146628D02*
X156432454Y-104146628D01*
X156432454Y-104146628D02*
X156527692Y-104099009D01*
X156527692Y-104099009D02*
X156575311Y-104051390D01*
X156575311Y-104051390D02*
X156622930Y-103956152D01*
X156622930Y-103956152D02*
X156622930Y-103718057D01*
X156622930Y-103718057D02*
X156575311Y-103622819D01*
X156575311Y-103622819D02*
X156527692Y-103575200D01*
X156527692Y-103575200D02*
X156432454Y-103527580D01*
X156432454Y-103527580D02*
X156194359Y-103527580D01*
X156194359Y-103527580D02*
X156099121Y-103575200D01*
X156099121Y-103575200D02*
X156051502Y-103622819D01*
X157099121Y-103575200D02*
X157099121Y-103527580D01*
X157099121Y-103527580D02*
X157051502Y-103432342D01*
X157051502Y-103432342D02*
X157003883Y-103384723D01*
X157527692Y-103527580D02*
X157527692Y-104527580D01*
X157527692Y-104527580D02*
X157861025Y-103813295D01*
X157861025Y-103813295D02*
X158194358Y-104527580D01*
X158194358Y-104527580D02*
X158194358Y-103527580D01*
X158670549Y-103527580D02*
X158670549Y-104527580D01*
X159099120Y-103575200D02*
X159241977Y-103527580D01*
X159241977Y-103527580D02*
X159480072Y-103527580D01*
X159480072Y-103527580D02*
X159575310Y-103575200D01*
X159575310Y-103575200D02*
X159622929Y-103622819D01*
X159622929Y-103622819D02*
X159670548Y-103718057D01*
X159670548Y-103718057D02*
X159670548Y-103813295D01*
X159670548Y-103813295D02*
X159622929Y-103908533D01*
X159622929Y-103908533D02*
X159575310Y-103956152D01*
X159575310Y-103956152D02*
X159480072Y-104003771D01*
X159480072Y-104003771D02*
X159289596Y-104051390D01*
X159289596Y-104051390D02*
X159194358Y-104099009D01*
X159194358Y-104099009D02*
X159146739Y-104146628D01*
X159146739Y-104146628D02*
X159099120Y-104241866D01*
X159099120Y-104241866D02*
X159099120Y-104337104D01*
X159099120Y-104337104D02*
X159146739Y-104432342D01*
X159146739Y-104432342D02*
X159194358Y-104479961D01*
X159194358Y-104479961D02*
X159289596Y-104527580D01*
X159289596Y-104527580D02*
X159527691Y-104527580D01*
X159527691Y-104527580D02*
X159670548Y-104479961D01*
X160289596Y-104527580D02*
X160480072Y-104527580D01*
X160480072Y-104527580D02*
X160575310Y-104479961D01*
X160575310Y-104479961D02*
X160670548Y-104384723D01*
X160670548Y-104384723D02*
X160718167Y-104194247D01*
X160718167Y-104194247D02*
X160718167Y-103860914D01*
X160718167Y-103860914D02*
X160670548Y-103670438D01*
X160670548Y-103670438D02*
X160575310Y-103575200D01*
X160575310Y-103575200D02*
X160480072Y-103527580D01*
X160480072Y-103527580D02*
X160289596Y-103527580D01*
X160289596Y-103527580D02*
X160194358Y-103575200D01*
X160194358Y-103575200D02*
X160099120Y-103670438D01*
X160099120Y-103670438D02*
X160051501Y-103860914D01*
X160051501Y-103860914D02*
X160051501Y-104194247D01*
X160051501Y-104194247D02*
X160099120Y-104384723D01*
X160099120Y-104384723D02*
X160194358Y-104479961D01*
X160194358Y-104479961D02*
X160289596Y-104527580D01*
X162337215Y-104527580D02*
X162146739Y-104527580D01*
X162146739Y-104527580D02*
X162051501Y-104479961D01*
X162051501Y-104479961D02*
X162003882Y-104432342D01*
X162003882Y-104432342D02*
X161908644Y-104289485D01*
X161908644Y-104289485D02*
X161861025Y-104099009D01*
X161861025Y-104099009D02*
X161861025Y-103718057D01*
X161861025Y-103718057D02*
X161908644Y-103622819D01*
X161908644Y-103622819D02*
X161956263Y-103575200D01*
X161956263Y-103575200D02*
X162051501Y-103527580D01*
X162051501Y-103527580D02*
X162241977Y-103527580D01*
X162241977Y-103527580D02*
X162337215Y-103575200D01*
X162337215Y-103575200D02*
X162384834Y-103622819D01*
X162384834Y-103622819D02*
X162432453Y-103718057D01*
X162432453Y-103718057D02*
X162432453Y-103956152D01*
X162432453Y-103956152D02*
X162384834Y-104051390D01*
X162384834Y-104051390D02*
X162337215Y-104099009D01*
X162337215Y-104099009D02*
X162241977Y-104146628D01*
X162241977Y-104146628D02*
X162051501Y-104146628D01*
X162051501Y-104146628D02*
X161956263Y-104099009D01*
X161956263Y-104099009D02*
X161908644Y-104051390D01*
X161908644Y-104051390D02*
X161861025Y-103956152D01*
X162908644Y-103575200D02*
X162908644Y-103527580D01*
X162908644Y-103527580D02*
X162861025Y-103432342D01*
X162861025Y-103432342D02*
X162813406Y-103384723D01*
X163337215Y-103527580D02*
X163337215Y-104527580D01*
X163337215Y-104527580D02*
X163908643Y-103527580D01*
X163908643Y-103527580D02*
X163908643Y-104527580D01*
X164956262Y-103622819D02*
X164908643Y-103575200D01*
X164908643Y-103575200D02*
X164765786Y-103527580D01*
X164765786Y-103527580D02*
X164670548Y-103527580D01*
X164670548Y-103527580D02*
X164527691Y-103575200D01*
X164527691Y-103575200D02*
X164432453Y-103670438D01*
X164432453Y-103670438D02*
X164384834Y-103765676D01*
X164384834Y-103765676D02*
X164337215Y-103956152D01*
X164337215Y-103956152D02*
X164337215Y-104099009D01*
X164337215Y-104099009D02*
X164384834Y-104289485D01*
X164384834Y-104289485D02*
X164432453Y-104384723D01*
X164432453Y-104384723D02*
X164527691Y-104479961D01*
X164527691Y-104479961D02*
X164670548Y-104527580D01*
X164670548Y-104527580D02*
X164765786Y-104527580D01*
X164765786Y-104527580D02*
X164908643Y-104479961D01*
X164908643Y-104479961D02*
X164956262Y-104432342D01*
D10*
X202359774Y-80200828D02*
X202074060Y-80200828D01*
X202074060Y-80200828D02*
X201931203Y-80272257D01*
X201931203Y-80272257D02*
X201788346Y-80415114D01*
X201788346Y-80415114D02*
X201716917Y-80700828D01*
X201716917Y-80700828D02*
X201716917Y-81200828D01*
X201716917Y-81200828D02*
X201788346Y-81486542D01*
X201788346Y-81486542D02*
X201931203Y-81629400D01*
X201931203Y-81629400D02*
X202074060Y-81700828D01*
X202074060Y-81700828D02*
X202359774Y-81700828D01*
X202359774Y-81700828D02*
X202502632Y-81629400D01*
X202502632Y-81629400D02*
X202645489Y-81486542D01*
X202645489Y-81486542D02*
X202716917Y-81200828D01*
X202716917Y-81200828D02*
X202716917Y-80700828D01*
X202716917Y-80700828D02*
X202645489Y-80415114D01*
X202645489Y-80415114D02*
X202502632Y-80272257D01*
X202502632Y-80272257D02*
X202359774Y-80200828D01*
X201074060Y-80200828D02*
X201074060Y-81415114D01*
X201074060Y-81415114D02*
X201002631Y-81557971D01*
X201002631Y-81557971D02*
X200931203Y-81629400D01*
X200931203Y-81629400D02*
X200788345Y-81700828D01*
X200788345Y-81700828D02*
X200502631Y-81700828D01*
X200502631Y-81700828D02*
X200359774Y-81629400D01*
X200359774Y-81629400D02*
X200288345Y-81557971D01*
X200288345Y-81557971D02*
X200216917Y-81415114D01*
X200216917Y-81415114D02*
X200216917Y-80200828D01*
X199716916Y-80200828D02*
X198859774Y-80200828D01*
X199288345Y-81700828D02*
X199288345Y-80200828D01*
X197216917Y-81129400D02*
X196074060Y-81129400D01*
X196645488Y-81700828D02*
X196645488Y-80557971D01*
X111845489Y-101050828D02*
X111845489Y-99550828D01*
X111131203Y-101050828D02*
X111131203Y-99550828D01*
X111131203Y-99550828D02*
X110274060Y-101050828D01*
X110274060Y-101050828D02*
X110274060Y-99550828D01*
X108416917Y-100479400D02*
X107274060Y-100479400D01*
D12*
X111599279Y-91766733D02*
X110884994Y-91766733D01*
X110884994Y-91766733D02*
X110742137Y-91814352D01*
X110742137Y-91814352D02*
X110646899Y-91909590D01*
X110646899Y-91909590D02*
X110599279Y-92052447D01*
X110599279Y-92052447D02*
X110599279Y-92147685D01*
X111170708Y-91147685D02*
X111218327Y-91242923D01*
X111218327Y-91242923D02*
X111265946Y-91290542D01*
X111265946Y-91290542D02*
X111361184Y-91338161D01*
X111361184Y-91338161D02*
X111408803Y-91338161D01*
X111408803Y-91338161D02*
X111504041Y-91290542D01*
X111504041Y-91290542D02*
X111551660Y-91242923D01*
X111551660Y-91242923D02*
X111599279Y-91147685D01*
X111599279Y-91147685D02*
X111599279Y-90957209D01*
X111599279Y-90957209D02*
X111551660Y-90861971D01*
X111551660Y-90861971D02*
X111504041Y-90814352D01*
X111504041Y-90814352D02*
X111408803Y-90766733D01*
X111408803Y-90766733D02*
X111361184Y-90766733D01*
X111361184Y-90766733D02*
X111265946Y-90814352D01*
X111265946Y-90814352D02*
X111218327Y-90861971D01*
X111218327Y-90861971D02*
X111170708Y-90957209D01*
X111170708Y-90957209D02*
X111170708Y-91147685D01*
X111170708Y-91147685D02*
X111123089Y-91242923D01*
X111123089Y-91242923D02*
X111075470Y-91290542D01*
X111075470Y-91290542D02*
X110980232Y-91338161D01*
X110980232Y-91338161D02*
X110789756Y-91338161D01*
X110789756Y-91338161D02*
X110694518Y-91290542D01*
X110694518Y-91290542D02*
X110646899Y-91242923D01*
X110646899Y-91242923D02*
X110599279Y-91147685D01*
X110599279Y-91147685D02*
X110599279Y-90957209D01*
X110599279Y-90957209D02*
X110646899Y-90861971D01*
X110646899Y-90861971D02*
X110694518Y-90814352D01*
X110694518Y-90814352D02*
X110789756Y-90766733D01*
X110789756Y-90766733D02*
X110980232Y-90766733D01*
X110980232Y-90766733D02*
X111075470Y-90814352D01*
X111075470Y-90814352D02*
X111123089Y-90861971D01*
X111123089Y-90861971D02*
X111170708Y-90957209D01*
X197500720Y-90458266D02*
X198215005Y-90458266D01*
X198215005Y-90458266D02*
X198357862Y-90410647D01*
X198357862Y-90410647D02*
X198453101Y-90315409D01*
X198453101Y-90315409D02*
X198500720Y-90172552D01*
X198500720Y-90172552D02*
X198500720Y-90077314D01*
X197929291Y-91077314D02*
X197881672Y-90982076D01*
X197881672Y-90982076D02*
X197834053Y-90934457D01*
X197834053Y-90934457D02*
X197738815Y-90886838D01*
X197738815Y-90886838D02*
X197691196Y-90886838D01*
X197691196Y-90886838D02*
X197595958Y-90934457D01*
X197595958Y-90934457D02*
X197548339Y-90982076D01*
X197548339Y-90982076D02*
X197500720Y-91077314D01*
X197500720Y-91077314D02*
X197500720Y-91267790D01*
X197500720Y-91267790D02*
X197548339Y-91363028D01*
X197548339Y-91363028D02*
X197595958Y-91410647D01*
X197595958Y-91410647D02*
X197691196Y-91458266D01*
X197691196Y-91458266D02*
X197738815Y-91458266D01*
X197738815Y-91458266D02*
X197834053Y-91410647D01*
X197834053Y-91410647D02*
X197881672Y-91363028D01*
X197881672Y-91363028D02*
X197929291Y-91267790D01*
X197929291Y-91267790D02*
X197929291Y-91077314D01*
X197929291Y-91077314D02*
X197976910Y-90982076D01*
X197976910Y-90982076D02*
X198024529Y-90934457D01*
X198024529Y-90934457D02*
X198119767Y-90886838D01*
X198119767Y-90886838D02*
X198310243Y-90886838D01*
X198310243Y-90886838D02*
X198405481Y-90934457D01*
X198405481Y-90934457D02*
X198453101Y-90982076D01*
X198453101Y-90982076D02*
X198500720Y-91077314D01*
X198500720Y-91077314D02*
X198500720Y-91267790D01*
X198500720Y-91267790D02*
X198453101Y-91363028D01*
X198453101Y-91363028D02*
X198405481Y-91410647D01*
X198405481Y-91410647D02*
X198310243Y-91458266D01*
X198310243Y-91458266D02*
X198119767Y-91458266D01*
X198119767Y-91458266D02*
X198024529Y-91410647D01*
X198024529Y-91410647D02*
X197976910Y-91363028D01*
X197976910Y-91363028D02*
X197929291Y-91267790D01*
D13*
%TO.C,J8*%
X92809101Y-87407500D02*
X95018898Y-87407500D01*
X92809101Y-95459300D02*
X92809101Y-87407500D01*
X95018898Y-85286600D02*
X110081099Y-85286600D01*
X95018898Y-87407500D02*
X95018898Y-85286600D01*
X95018898Y-97580200D02*
X95018901Y-95459300D01*
X95018901Y-95459300D02*
X92809101Y-95459300D01*
X110081099Y-85286600D02*
X110081099Y-87423664D01*
X110081099Y-89743132D02*
X110081099Y-93123668D01*
X110081099Y-95443136D02*
X110081099Y-97580200D01*
X110081099Y-97580200D02*
X95018898Y-97580200D01*
D14*
X111435099Y-84651600D02*
G75*
G02*
X110673099Y-84651600I-381000J0D01*
G01*
X110673099Y-84651600D02*
G75*
G02*
X111435099Y-84651600I381000J0D01*
G01*
D13*
X199018901Y-84644800D02*
X214081102Y-84644800D01*
X199018901Y-86781864D02*
X199018901Y-84644800D01*
X199018901Y-92481868D02*
X199018901Y-89101332D01*
X199018901Y-96938400D02*
X199018901Y-94801336D01*
X214081099Y-86765700D02*
X216290899Y-86765700D01*
X214081102Y-84644800D02*
X214081099Y-86765700D01*
X214081102Y-94817500D02*
X214081102Y-96938400D01*
X214081102Y-96938400D02*
X199018901Y-96938400D01*
X216290899Y-86765700D02*
X216290899Y-94817500D01*
X216290899Y-94817500D02*
X214081102Y-94817500D01*
D14*
X198426901Y-97573400D02*
G75*
G02*
X197664901Y-97573400I-381000J0D01*
G01*
X197664901Y-97573400D02*
G75*
G02*
X198426901Y-97573400I381000J0D01*
G01*
%TD*%
M02*
