M48
; DRILL file {KiCad 9.0.0} date 2025-07-07T23:18:47+0900
; FORMAT={-:-/ absolute / metric / decimal}
; #@! TF.CreationDate,2025-07-07T23:18:47+09:00
; #@! TF.GenerationSoftware,Kicad,Pcbnew,9.0.0
; #@! TF.FileFunction,Plated,1,2,PTH
FMAT,2
METRIC
; #@! TA.AperFunction,Plated,PTH,ViaDrill
T1C0.300
; #@! TA.AperFunction,Plated,PTH,ComponentDrill
T2C1.000
; #@! TA.AperFunction,Plated,PTH,ComponentDrill
T3C1.854
; #@! TA.AperFunction,Plated,PTH,ComponentDrill
T4C3.200
%
G90
G05
T1
X121.0Y-94.79
X121.0Y-96.0
X122.451Y-94.75
X122.451Y-95.96
X124.75Y-94.79
X124.75Y-96.0
X126.25Y-94.79
X126.25Y-96.0
X136.251Y-81.87
X136.251Y-82.72
X136.261Y-81.14
X139.871Y-81.91
X139.871Y-82.76
X139.881Y-81.18
X143.341Y-81.89
X143.341Y-82.74
X143.351Y-81.16
X148.542Y-88.119
X150.451Y-92.35
X151.501Y-91.325
X152.626Y-92.075
X152.8Y-80.35
X152.8Y-81.7
X153.6Y-80.3
X153.6Y-81.65
X154.501Y-80.3
X154.501Y-81.65
X155.311Y-80.32
X155.311Y-81.67
X156.131Y-80.32
X156.131Y-81.67
X156.651Y-95.2
X157.0Y-80.32
X157.0Y-81.67
X160.451Y-91.6
X161.101Y-88.05
X166.861Y-81.87
X166.861Y-82.72
X166.871Y-81.14
X170.481Y-81.91
X170.481Y-82.76
X170.491Y-81.18
X173.951Y-81.89
X173.951Y-82.74
X173.961Y-81.16
T2
X152.491Y-97.22
X155.031Y-97.22
X157.571Y-97.22
X160.111Y-97.22
X162.651Y-97.22
X165.191Y-97.22
T3
X111.054Y-88.583
X111.054Y-94.283
X198.046Y-87.942
X198.046Y-93.642
T4
X100.0Y-65.5
X100.0Y-105.5
X210.0Y-65.5
X210.0Y-105.5
M30
