%TF.GenerationSoftware,KiCad,Pcbnew,9.0.0*%
%TF.CreationDate,2025-07-07T23:18:44+09:00*%
%TF.ProjectId,MPPT_TYPE2-1,4d505054-5f54-4595-9045-322d312e6b69,rev?*%
%TF.SameCoordinates,Original*%
%TF.FileFunction,Paste,Top*%
%TF.FilePolarity,Positive*%
%FSLAX46Y46*%
G04 Gerber Fmt 4.6, Leading zero omitted, Abs format (unit mm)*
G04 Created by KiCad (PCBNEW 9.0.0) date 2025-07-07 23:18:44*
%MOMM*%
%LPD*%
G01*
G04 APERTURE LIST*
G04 Aperture macros list*
%AMRoundRect*
0 Rectangle with rounded corners*
0 $1 Rounding radius*
0 $2 $3 $4 $5 $6 $7 $8 $9 X,Y pos of 4 corners*
0 Add a 4 corners polygon primitive as box body*
4,1,4,$2,$3,$4,$5,$6,$7,$8,$9,$2,$3,0*
0 Add four circle primitives for the rounded corners*
1,1,$1+$1,$2,$3*
1,1,$1+$1,$4,$5*
1,1,$1+$1,$6,$7*
1,1,$1+$1,$8,$9*
0 Add four rect primitives between the rounded corners*
20,1,$1+$1,$2,$3,$4,$5,0*
20,1,$1+$1,$4,$5,$6,$7,0*
20,1,$1+$1,$6,$7,$8,$9,0*
20,1,$1+$1,$8,$9,$2,$3,0*%
G04 Aperture macros list end*
%ADD10C,0.000000*%
%ADD11R,5.000000X4.500000*%
%ADD12RoundRect,0.250000X0.262500X0.450000X-0.262500X0.450000X-0.262500X-0.450000X0.262500X-0.450000X0*%
%ADD13RoundRect,0.250000X0.475000X-0.337500X0.475000X0.337500X-0.475000X0.337500X-0.475000X-0.337500X0*%
%ADD14RoundRect,0.250000X1.500000X0.900000X-1.500000X0.900000X-1.500000X-0.900000X1.500000X-0.900000X0*%
%ADD15RoundRect,0.250000X0.650000X-0.412500X0.650000X0.412500X-0.650000X0.412500X-0.650000X-0.412500X0*%
%ADD16RoundRect,0.250000X-0.650000X0.412500X-0.650000X-0.412500X0.650000X-0.412500X0.650000X0.412500X0*%
%ADD17RoundRect,0.250000X0.450000X-0.262500X0.450000X0.262500X-0.450000X0.262500X-0.450000X-0.262500X0*%
%ADD18RoundRect,0.250000X-0.475000X0.337500X-0.475000X-0.337500X0.475000X-0.337500X0.475000X0.337500X0*%
%ADD19R,1.549400X0.355600*%
%ADD20RoundRect,0.250000X-0.262500X-0.450000X0.262500X-0.450000X0.262500X0.450000X-0.262500X0.450000X0*%
%ADD21R,3.500000X1.100000*%
%ADD22R,3.500000X1.000000*%
%ADD23R,9.000000X9.000000*%
%ADD24RoundRect,0.250000X0.337500X0.475000X-0.337500X0.475000X-0.337500X-0.475000X0.337500X-0.475000X0*%
%ADD25RoundRect,0.250000X-0.450000X0.262500X-0.450000X-0.262500X0.450000X-0.262500X0.450000X0.262500X0*%
%ADD26RoundRect,0.250000X-0.412500X-0.650000X0.412500X-0.650000X0.412500X0.650000X-0.412500X0.650000X0*%
%ADD27RoundRect,0.250000X0.412500X0.650000X-0.412500X0.650000X-0.412500X-0.650000X0.412500X-0.650000X0*%
G04 APERTURE END LIST*
D10*
%TO.C,U1*%
G36*
X154116834Y-84022049D02*
G01*
X152750500Y-84022049D01*
X152750500Y-82844099D01*
X154116834Y-82844099D01*
X154116834Y-84022049D01*
G37*
G36*
X154116834Y-85399999D02*
G01*
X152750500Y-85399999D01*
X152750500Y-84222049D01*
X154116834Y-84222049D01*
X154116834Y-85399999D01*
G37*
G36*
X154116834Y-86777949D02*
G01*
X152750500Y-86777949D01*
X152750500Y-85599999D01*
X154116834Y-85599999D01*
X154116834Y-86777949D01*
G37*
G36*
X154116834Y-88155899D02*
G01*
X152750500Y-88155899D01*
X152750500Y-86977949D01*
X154116834Y-86977949D01*
X154116834Y-88155899D01*
G37*
G36*
X155683167Y-84022049D02*
G01*
X154316833Y-84022049D01*
X154316833Y-82844099D01*
X155683167Y-82844099D01*
X155683167Y-84022049D01*
G37*
G36*
X155683167Y-85399999D02*
G01*
X154316833Y-85399999D01*
X154316833Y-84222049D01*
X155683167Y-84222049D01*
X155683167Y-85399999D01*
G37*
G36*
X155683167Y-86777949D02*
G01*
X154316833Y-86777949D01*
X154316833Y-85599999D01*
X155683167Y-85599999D01*
X155683167Y-86777949D01*
G37*
G36*
X155683167Y-88155899D02*
G01*
X154316833Y-88155899D01*
X154316833Y-86977949D01*
X155683167Y-86977949D01*
X155683167Y-88155899D01*
G37*
G36*
X157249500Y-84022049D02*
G01*
X155883166Y-84022049D01*
X155883166Y-82844099D01*
X157249500Y-82844099D01*
X157249500Y-84022049D01*
G37*
G36*
X157249500Y-85399999D02*
G01*
X155883166Y-85399999D01*
X155883166Y-84222049D01*
X157249500Y-84222049D01*
X157249500Y-85399999D01*
G37*
G36*
X157249500Y-86777949D02*
G01*
X155883166Y-86777949D01*
X155883166Y-85599999D01*
X157249500Y-85599999D01*
X157249500Y-86777949D01*
G37*
G36*
X157249500Y-88155899D02*
G01*
X155883166Y-88155899D01*
X155883166Y-86977949D01*
X157249500Y-86977949D01*
X157249500Y-88155899D01*
G37*
%TD*%
D11*
%TO.C,L2*%
X132281000Y-63150000D03*
X132281000Y-73650000D03*
%TD*%
%TO.C,L1*%
X147375000Y-62100000D03*
X147375000Y-72600000D03*
%TD*%
D12*
%TO.C,R5*%
X143651000Y-89800000D03*
X141826000Y-89800000D03*
%TD*%
D13*
%TO.C,C18*%
X130676000Y-84650000D03*
X130676000Y-82575000D03*
%TD*%
D14*
%TO.C,D1*%
X138626000Y-91275000D03*
X133226000Y-91275000D03*
%TD*%
D15*
%TO.C,C7*%
X138001000Y-81725000D03*
X138001000Y-78600000D03*
%TD*%
D16*
%TO.C,C9*%
X121786000Y-89900000D03*
X121786000Y-93025000D03*
%TD*%
D17*
%TO.C,R20*%
X155746000Y-93990000D03*
X155746000Y-92165000D03*
%TD*%
D12*
%TO.C,R15*%
X175313500Y-89750000D03*
X173488500Y-89750000D03*
%TD*%
D16*
%TO.C,C37*%
X168526000Y-78395000D03*
X168526000Y-81520000D03*
%TD*%
D15*
%TO.C,C33*%
X141776000Y-81725000D03*
X141776000Y-78600000D03*
%TD*%
D18*
%TO.C,C27*%
X167673500Y-91530000D03*
X167673500Y-93605000D03*
%TD*%
D16*
%TO.C,C39*%
X172391000Y-78325000D03*
X172391000Y-81450000D03*
%TD*%
D18*
%TO.C,C21*%
X162651000Y-78575000D03*
X162651000Y-80650000D03*
%TD*%
%TO.C,C22*%
X180001000Y-82450000D03*
X180001000Y-84525000D03*
%TD*%
D13*
%TO.C,C17*%
X147751000Y-80375000D03*
X147751000Y-78300000D03*
%TD*%
D19*
%TO.C,U1*%
X159826000Y-89749998D03*
X159826000Y-89249999D03*
X159826000Y-88750000D03*
X159826000Y-88249999D03*
X159826000Y-87750000D03*
X159826000Y-87250001D03*
X159826000Y-86749999D03*
X159826000Y-86250000D03*
X159826000Y-85749999D03*
X159826000Y-85249999D03*
X159826000Y-84750001D03*
X159826000Y-84249999D03*
X159826000Y-83750000D03*
X159826000Y-83249998D03*
X159826000Y-82749999D03*
X159826000Y-82250000D03*
X159826000Y-81749999D03*
X159826000Y-81250000D03*
X150174000Y-81250000D03*
X150174000Y-81749999D03*
X150174000Y-82249998D03*
X150174000Y-82749999D03*
X150174000Y-83249998D03*
X150174000Y-83750000D03*
X150174000Y-84249999D03*
X150174000Y-84749998D03*
X150174000Y-85249999D03*
X150174000Y-85749999D03*
X150174000Y-86249997D03*
X150174000Y-86749999D03*
X150174000Y-87249998D03*
X150174000Y-87750000D03*
X150174000Y-88249999D03*
X150174000Y-88749998D03*
X150174000Y-89249999D03*
X150174000Y-89749998D03*
%TD*%
D11*
%TO.C,L6*%
X178446000Y-63045000D03*
X178446000Y-73545000D03*
%TD*%
%TO.C,L5*%
X162800000Y-62050000D03*
X162800000Y-72550000D03*
%TD*%
D20*
%TO.C,R14*%
X177188500Y-89775000D03*
X179013500Y-89775000D03*
%TD*%
D18*
%TO.C,C34*%
X158301000Y-92225000D03*
X158301000Y-94300000D03*
%TD*%
D21*
%TO.C,R24*%
X187725000Y-73750000D03*
D22*
X187725000Y-78500000D03*
D23*
X196375000Y-76200000D03*
%TD*%
D24*
%TO.C,C25*%
X165593500Y-93595000D03*
X163518500Y-93595000D03*
%TD*%
D25*
%TO.C,R16*%
X171341000Y-89660000D03*
X171341000Y-91485000D03*
%TD*%
D18*
%TO.C,C13*%
X142050000Y-93500000D03*
X142050000Y-95575000D03*
%TD*%
D20*
%TO.C,R12*%
X163668500Y-91195000D03*
X165493500Y-91195000D03*
%TD*%
D16*
%TO.C,C5*%
X125426000Y-89975000D03*
X125426000Y-93100000D03*
%TD*%
D12*
%TO.C,R6*%
X147701000Y-89800000D03*
X145876000Y-89800000D03*
%TD*%
D17*
%TO.C,R7*%
X145375000Y-95575000D03*
X145375000Y-93750000D03*
%TD*%
D18*
%TO.C,C15*%
X148450000Y-93625000D03*
X148450000Y-95700000D03*
%TD*%
D26*
%TO.C,C11*%
X150850000Y-78350000D03*
X153975000Y-78350000D03*
%TD*%
D27*
%TO.C,C29*%
X159125000Y-78350000D03*
X156000000Y-78350000D03*
%TD*%
M02*
